<svg width="24" height="24" viewBox="0 0 24 24" fill="none" xmlns="http://www.w3.org/2000/svg">
<path d="M16.5021 3.06251L16.5021 3.06251C15.6387 3.06103 14.7869 3.26104 14.0144 3.64664C13.2419 4.03224 12.57 4.59278 12.0522 5.28369L12.0023 5.35033L11.9522 5.28376C11.251 4.35069 10.274 3.66177 9.15964 3.31449C8.04527 2.96722 6.8499 2.97916 5.7427 3.34865C4.63549 3.71813 3.67251 4.42644 2.99002 5.37335C2.30753 6.32025 1.9401 7.45779 1.9397 8.62501L16.5021 3.06251ZM16.5021 3.06251C17.9769 3.06418 19.3908 3.65077 20.4336 4.69359C21.4764 5.73642 22.063 7.15031 22.0647 8.62508C22.0647 11.4651 20.4186 14.397 17.1497 17.3391C15.6674 18.6678 14.0553 19.8441 12.3376 20.8501C12.2351 20.9074 12.1196 20.9375 12.0022 20.9375C11.8846 20.9375 11.7689 20.9073 11.6662 20.8499C11.4688 20.7393 9.03401 19.3565 6.64937 17.1615M16.5021 3.06251L6.64937 17.1615M6.64937 17.1615C4.26208 14.964 1.93971 11.9658 1.9397 8.62503L6.64937 17.1615Z" fill="#4E4B66" stroke="#4E4B66" stroke-width="0.125"/>
</svg>
