<svg width="64" height="64" viewBox="0 0 64 64" fill="none" xmlns="http://www.w3.org/2000/svg">
<rect width="64" height="64" rx="4" fill="#ECF9ED"/>
<path d="M32.8116 29.7498L31.7335 25.1006C31.5314 24.2921 30.5207 24.0225 29.948 24.629L29.2742 25.3701L32.7105 40.3621L33.6539 40.7327C34.4287 41.0359 35.2373 40.3621 35.0351 39.5536L33.9571 34.9044C35.3047 34.5001 36.1132 33.1525 35.81 31.7712C35.5068 30.3899 34.1592 29.5477 32.8116 29.7498Z" fill="#15421B"/>
<path d="M25.5009 29.5814C25.063 30.053 24.5239 30.3899 23.9175 30.5247L17.1121 32.0744C16.3373 32.2429 15.8656 33.0177 16.0341 33.7926L17.1458 38.6103C17.3143 39.3851 18.0891 39.8568 18.864 39.6883L20.5148 39.3177L22.5699 44.1354C22.7047 44.4386 23.0416 44.6071 23.3448 44.5397L25.3662 44.068C25.7704 43.9669 26.0063 43.529 25.8378 43.1247L23.8838 38.4755L25.6357 38.0712C26.2421 37.9365 26.8822 37.9701 27.4886 38.206L30.9587 39.621L28.0277 26.7514L25.5009 29.5814Z" fill="#15421B"/>
<path d="M47.9384 29.0086C47.6352 27.6274 46.2202 26.7514 44.8389 27.0546C43.7608 27.2905 43.0196 28.1664 42.8512 29.2108L38.8084 30.1204C38.303 30.2215 37.9998 30.7268 38.1009 31.2322C38.202 31.6701 38.5726 31.9397 39.0105 31.9397C39.0779 31.9397 39.1453 31.9397 39.2127 31.906L43.2555 30.9963C43.8282 31.8723 44.9063 32.3102 45.9843 32.0744C47.3993 31.8049 48.2416 30.4236 47.9384 29.0086Z" fill="#15421B"/>
<path d="M45.6475 35.4771C44.6368 35.0054 43.525 35.2413 42.7502 35.9488L38.9769 34.1969C38.5052 33.9947 37.9662 34.1632 37.764 34.6348C37.5619 35.1065 37.7304 35.6455 38.202 35.8477L41.9753 37.5996C41.9079 38.6439 42.4469 39.6546 43.4576 40.1263C44.7379 40.7327 46.2876 40.16 46.894 38.8798C47.4667 37.5996 46.9277 36.0835 45.6475 35.4771Z" fill="#15421B"/>
<path d="M43.0534 24.2247C43.963 23.1129 43.7946 21.4958 42.6828 20.5862C41.5711 19.6765 39.9539 19.845 39.0443 20.9568C38.3368 21.799 38.3031 22.9781 38.8085 23.8878L36.1807 27.122C35.8438 27.5263 35.9112 28.099 36.3154 28.4359C36.4839 28.5707 36.686 28.6381 36.8882 28.6381C37.1577 28.6381 37.4272 28.537 37.5957 28.3012L40.2235 25.0669C41.2342 25.3364 42.3796 25.0669 43.0534 24.2247Z" fill="#15421B"/>
</svg>
