<svg width="64" height="64" viewBox="0 0 64 64" fill="none" xmlns="http://www.w3.org/2000/svg">
<rect width="64" height="64" rx="4" fill="#ECF9ED"/>
<path d="M25.9909 42.2918C25.9123 42.2502 25.8247 42.2287 25.7358 42.2293C25.6468 42.2299 25.5595 42.2525 25.4814 42.2951C25.4034 42.3377 25.3371 42.399 25.2886 42.4735C25.24 42.548 25.2107 42.6333 25.2032 42.7219C25.1488 43.3721 24.9578 44.0034 24.6429 44.5748C27.5828 44.8302 30.5227 45.0856 33.4626 45.341C30.881 44.5637 28.3792 43.5427 25.9909 42.2918Z" fill="#15421B"/>
<path d="M29.3228 30.6585L33.3124 29.5894C33.4772 30.0462 33.4715 30.7907 33.9562 30.8807L42.2342 32.8028C42.3256 32.824 42.421 32.8212 42.511 32.7947C42.601 32.7681 42.6825 32.7187 42.7478 32.6512C42.813 32.5838 42.8596 32.5005 42.8832 32.4097C42.9067 32.3189 42.9063 32.2235 42.882 32.1328L41.6001 27.3487C44.059 26.4155 42.9803 22.7665 40.4857 23.1896L39.203 18.4028C39.1788 18.3121 39.1314 18.2293 39.0656 18.1624C38.9998 18.0955 38.9178 18.0468 38.8276 18.021C38.7374 17.9951 38.642 17.9931 38.5508 18.0151C38.4596 18.0371 38.3756 18.0824 38.3071 18.1465L32.0992 23.9501C31.7227 24.2726 32.1046 24.9194 32.1872 25.3902L28.1976 26.4592C27.6453 26.6124 27.1757 26.9776 26.8913 27.4753C26.6069 27.9729 26.5305 28.5628 26.6789 29.1165C26.8272 29.6702 27.1883 30.1429 27.6834 30.4317C28.1786 30.7205 28.7678 30.802 29.3228 30.6585Z" fill="#15421B"/>
<path d="M32.523 36.6785C32.5807 36.787 32.6734 36.8728 32.7861 36.9218C32.8988 36.9708 33.0248 36.9802 33.1435 36.9483L34.1657 36.6745C34.2446 36.6533 34.3178 36.6146 34.3797 36.5612C34.4417 36.5079 34.4908 36.4412 34.5234 36.3663C34.556 36.2913 34.5712 36.21 34.568 36.1283C34.5648 36.0466 34.5432 35.9667 34.5049 35.8945L31.4224 30.0959L29.3228 30.6585L32.523 36.6785Z" fill="#15421B"/>
<path d="M47.3259 23.0216L45.2263 23.5842C45.09 23.624 44.9747 23.7156 44.9051 23.8394C44.8355 23.9632 44.8171 24.1093 44.8539 24.2465C44.8906 24.3836 44.9796 24.5009 45.1017 24.5733C45.2239 24.6457 45.3695 24.6675 45.5075 24.6338L47.6071 24.0713C47.7439 24.0319 47.8597 23.9404 47.9297 23.8164C47.9997 23.6925 48.0183 23.546 47.9815 23.4085C47.9446 23.271 47.8553 23.1534 47.7327 23.0811C47.6101 23.0088 47.464 22.9874 47.3259 23.0216Z" fill="#15421B"/>
<path d="M44.6759 19.8853L43.4291 21.6658C43.3499 21.7839 43.3201 21.9285 43.3462 22.0683C43.3723 22.2082 43.4522 22.3323 43.5688 22.4139C43.6853 22.4955 43.8292 22.5282 43.9696 22.5049C44.11 22.4816 44.2356 22.4042 44.3196 22.2893L45.5664 20.5089C45.6457 20.3907 45.6755 20.2462 45.6494 20.1063C45.6233 19.9664 45.5434 19.8423 45.4268 19.7606C45.3102 19.679 45.1663 19.6463 45.0259 19.6696C44.8855 19.693 44.7598 19.7704 44.6759 19.8853Z" fill="#15421B"/>
<path d="M47.3397 27.1273L45.3695 26.2087C45.2394 26.1507 45.0916 26.1462 44.9581 26.1961C44.8246 26.246 44.7161 26.3464 44.6559 26.4755C44.5957 26.6047 44.5886 26.7524 44.6363 26.8867C44.6839 27.021 44.7824 27.1312 44.9105 27.1937C45.6263 27.5547 46.3604 27.8783 47.1099 28.1632C47.2321 28.1605 47.35 28.1169 47.4445 28.0394C47.5391 27.9618 47.6048 27.8548 47.6313 27.7354C47.6578 27.616 47.6434 27.4912 47.5906 27.381C47.5377 27.2707 47.4493 27.1814 47.3397 27.1273Z" fill="#15421B"/>
<path d="M24.6602 42.7011C24.673 42.5217 24.7301 42.3483 24.8264 42.1964C24.9226 42.0444 25.055 41.9187 25.2117 41.8305C25.3684 41.7422 25.5446 41.6942 25.7244 41.6906C25.9042 41.687 26.0821 41.7281 26.2422 41.8101C28.5978 43.0453 31.066 44.0529 33.6131 44.8191C34.7743 45.1592 35.952 45.4404 37.1416 45.6616L42.6464 44.2868C42.7422 44.2624 42.8296 44.2125 42.8992 44.1422C42.9688 44.072 43.0179 43.9841 43.0414 43.8881C43.0648 43.792 43.0617 43.6914 43.0323 43.597C43.0029 43.5026 42.9483 43.418 42.8745 43.3522C37.9751 38.8919 35.2951 35.1453 34.0646 31.4635C33.8283 31.4461 33.6029 31.3574 33.418 31.2092C33.2332 31.061 33.0977 30.8602 33.0293 30.6334L32.9279 30.255L32.2229 30.4438L34.9846 35.6393C35.0601 35.7839 35.1023 35.9435 35.1081 36.1065C35.1139 36.2694 35.0833 36.4316 35.0183 36.5812C34.9533 36.7308 34.8557 36.8639 34.7326 36.9709C34.6095 37.0779 34.4641 37.156 34.3069 37.1995L33.284 37.4733C33.0466 37.5365 32.7947 37.5175 32.5694 37.4195C32.3441 37.3214 32.1586 37.15 32.043 36.9331L29.0266 31.2589C28.5928 31.3031 28.1547 31.2411 27.7502 31.0783C27.3457 30.9154 26.9869 30.6566 26.7047 30.3242C26.6587 30.3962 26.5948 30.4549 26.5192 30.4948C26.4437 30.5347 26.3591 30.5543 26.2737 30.5517C26.2587 30.556 18.4799 30.0632 18.4573 30.0644C18.3154 30.0527 18.1838 29.9859 18.0907 29.8782C17.9976 29.7706 17.9504 29.6307 17.9593 29.4887C17.9682 29.3466 18.0325 29.2137 18.1383 29.1185C18.2441 29.0233 18.383 28.9735 18.5252 28.9796L26.2069 29.4597C26.0117 28.9345 25.9938 28.3599 26.156 27.8236C22.5636 27.5988 18.7595 27.3604 16.5786 27.2234C16.5001 27.2179 16.4214 27.2297 16.3479 27.2577C16.2745 27.2858 16.208 27.3295 16.1531 27.3859C16.0983 27.4423 16.0564 27.51 16.0304 27.5842C16.0044 27.6585 15.9949 27.7375 16.0026 27.8157C16.7606 35.1608 22.688 42.3547 24.2588 44.1466C24.4776 43.6925 24.6135 43.203 24.6602 42.7011ZM19.6423 31.6551L25.3641 32.0127C25.503 32.0242 25.6323 32.0886 25.7251 32.1925C25.8179 32.2965 25.8673 32.4322 25.863 32.5715C25.8587 32.7108 25.8011 32.8432 25.702 32.9412C25.603 33.0393 25.47 33.0956 25.3307 33.0985C25.3042 33.1001 19.6052 32.7405 19.5743 32.7397C19.4326 32.7279 19.3011 32.6611 19.2081 32.5534C19.1151 32.4458 19.068 32.306 19.0769 32.1641C19.0858 32.0221 19.15 31.8893 19.2557 31.7942C19.3614 31.699 19.5002 31.6491 19.6423 31.6551ZM20.873 34.2509L26.5948 34.6086C26.7337 34.62 26.8629 34.6844 26.9557 34.7884C27.0486 34.8924 27.098 35.028 27.0937 35.1673C27.0894 35.3067 27.0317 35.439 26.9327 35.5371C26.8336 35.6352 26.7007 35.6915 26.5613 35.6943C26.5348 35.6959 20.8359 35.3364 20.8049 35.3356C20.6633 35.3237 20.5319 35.2568 20.4389 35.1492C20.346 35.0416 20.299 34.9018 20.3079 34.7599C20.3168 34.618 20.3809 34.4853 20.4865 34.3901C20.5922 34.295 20.7309 34.245 20.873 34.2509Z" fill="#15421B"/>
</svg>
