<svg width="387" height="347" viewBox="0 0 387 347" fill="none" xmlns="http://www.w3.org/2000/svg">
<path d="M356.873 285.384V280.164L349.008 273.88L266.597 215.433C265.397 214.067 262.314 213.482 259.719 214.106L53.8379 256.16H48.647L48.5494 260.454C48.5494 260.454 48.4713 262.717 49.2422 263.596L120.032 344.582C121.252 345.977 124.403 346.533 127.067 345.889L353.994 288.321C356.17 287.843 357.292 286.564 356.873 285.384Z" fill="white" stroke="#263238" stroke-linecap="round" stroke-linejoin="round"/>
<path d="M353.994 282.418L127.067 339.986C124.403 340.65 121.213 340.064 120.032 338.669L49.2421 257.683C48.0225 256.297 49.2421 254.648 51.8864 253.994L259.719 208.203C262.314 207.569 265.397 208.154 266.597 209.52L356.492 278.759C357.702 280.134 356.58 281.774 353.994 282.418Z" fill="white" stroke="#263238" stroke-linecap="round" stroke-linejoin="round"/>
<path d="M275.935 216.682L268.022 211.111C266.071 208.847 260.938 207.872 256.645 208.925L157.276 230.743L54.0135 253.497C48.1591 254.707 48.0029 256.834 50.6862 259.303L77.6654 290.165L107.679 324.501L339.905 265.957L275.935 216.682Z" fill="#263238" stroke="#263238" stroke-linecap="round" stroke-linejoin="round"/>
<path d="M177.62 244.198C157.686 249.077 148.914 261.537 158.105 271.987C167.297 282.437 190.88 286.887 210.795 281.94C230.71 276.993 239.306 264.562 230.163 254.17C221.021 243.779 197.496 239.31 177.62 244.198ZM189.787 280.476L166.223 253.643L222.26 256.102L189.787 280.476Z" fill="#39B54A"/>
<path d="M342.129 277.782L129.555 331.604C127.906 332.014 125.955 331.604 125.203 330.784L123.418 328.745C122.666 327.886 123.418 326.852 125.037 326.442L337.651 272.669C339.251 272.269 341.163 272.669 341.915 273.479L343.681 275.489C344.432 276.338 343.739 277.353 342.129 277.782Z" fill="#39B54A" stroke="#263238" stroke-linecap="round" stroke-linejoin="round"/>
<path d="M141.098 325.399C139.566 323.662 135.644 322.921 132.316 323.75C128.989 324.579 127.555 326.677 129.087 328.404C130.619 330.131 134.541 330.883 137.868 330.053C141.196 329.224 142.62 327.136 141.098 325.399Z" fill="#263238" stroke="#263238" stroke-linecap="round" stroke-linejoin="round"/>
<path d="M93.043 153.484C93.2509 153.47 93.4596 153.47 93.6675 153.484C94.3067 153.484 94.9197 153.23 95.3717 152.778C95.8236 152.326 96.0776 151.713 96.0776 151.074C96.0776 150.434 95.8236 149.821 95.3717 149.37C94.9197 148.918 94.3067 148.664 93.6675 148.664H84.5346C84.5346 148.664 85.1005 145.366 85.1005 144.234C85.1005 143.102 85.6664 141.414 84.1248 139.248C82.5831 137.082 79.129 137.93 79.129 137.93L79.6656 142.399C79.7424 143.106 79.6065 143.819 79.2754 144.448L75.1773 152.147L73.2941 153.747L72.7281 163.261C73.9478 166.188 77.8117 167.115 77.8117 167.115H90.1158C90.7741 167.133 91.4129 166.89 91.8921 166.438C92.3713 165.986 92.6518 165.363 92.6722 164.705C92.667 164.297 92.5576 163.897 92.3544 163.544C92.1511 163.19 91.8608 162.895 91.5111 162.685C91.8681 162.747 92.2342 162.734 92.5857 162.646C92.9372 162.558 93.2662 162.396 93.5514 162.173C93.8366 161.949 94.0716 161.668 94.2412 161.348C94.4108 161.028 94.5112 160.675 94.5359 160.314C94.5242 159.92 94.4145 159.536 94.2169 159.195C94.0193 158.854 93.7399 158.568 93.404 158.362C93.9839 158.284 94.5167 158.001 94.9065 157.564C95.2964 157.128 95.5179 156.567 95.5311 155.982C95.5312 155.321 95.2693 154.687 94.803 154.219C94.3366 153.751 93.7038 153.486 93.043 153.484Z" fill="white"/>
<path d="M90.1158 167.456H77.7045C77.5386 167.456 73.6454 166.48 72.3574 163.367C72.3473 163.312 72.3473 163.256 72.3574 163.201L72.9233 153.698C72.932 153.592 72.9809 153.495 73.0599 153.424L74.8846 151.873L78.9534 144.233C79.2543 143.679 79.3737 143.044 79.2949 142.418L78.768 137.939C78.7581 137.849 78.7812 137.757 78.8331 137.682C78.8851 137.607 78.9624 137.553 79.051 137.53C79.2071 137.53 82.8076 136.652 84.437 139.003C84.9015 139.648 85.2337 140.378 85.4146 141.152C85.5954 141.925 85.6213 142.727 85.4908 143.511C85.4908 143.765 85.4908 143.999 85.4908 144.204C85.3996 145.562 85.2335 146.913 84.9932 148.253H93.6773H93.8041C94.5448 148.263 95.253 148.559 95.7805 149.079C96.3079 149.599 96.6137 150.303 96.6338 151.044C96.6242 151.613 96.4418 152.166 96.1107 152.63C95.7796 153.093 95.3155 153.445 94.7799 153.639C95.152 153.886 95.4577 154.221 95.6704 154.614C95.883 155.007 95.996 155.446 95.9995 155.893C95.9951 156.439 95.8298 156.972 95.5244 157.425C95.219 157.878 94.787 158.231 94.2822 158.44C94.7514 158.935 95.0132 159.592 95.014 160.274C95.0003 160.946 94.7486 161.591 94.3037 162.095C93.8588 162.599 93.2496 162.929 92.5845 163.026C92.9458 163.496 93.1414 164.072 93.1406 164.665C93.1308 165.049 93.044 165.426 92.8856 165.776C92.7271 166.125 92.5001 166.439 92.2181 166.7C91.9361 166.96 91.6047 167.161 91.2436 167.291C90.8825 167.42 90.499 167.477 90.1158 167.456ZM77.8118 166.694H90.1158C90.6742 166.71 91.2162 166.505 91.6237 166.123C92.0313 165.741 92.2714 165.213 92.2917 164.655C92.2873 164.312 92.1954 163.977 92.0246 163.679C91.8538 163.382 91.6099 163.134 91.316 162.957C91.2447 162.909 91.1918 162.839 91.1658 162.757C91.1398 162.675 91.1423 162.587 91.1728 162.506C91.2034 162.426 91.2602 162.359 91.334 162.315C91.4078 162.271 91.4943 162.253 91.5794 162.265C91.7157 162.278 91.853 162.278 91.9893 162.265C92.5493 162.283 93.0937 162.079 93.5034 161.697C93.9131 161.314 94.1546 160.785 94.1749 160.225C94.1679 159.884 94.0748 159.551 93.9042 159.256C93.7336 158.961 93.4911 158.713 93.1992 158.537C93.1331 158.498 93.0808 158.44 93.0493 158.37C93.0179 158.3 93.0089 158.222 93.0235 158.147C93.0389 158.072 93.0772 158.003 93.1332 157.951C93.1891 157.899 93.2599 157.865 93.3358 157.854C93.826 157.787 94.2766 157.549 94.6072 157.181C94.9378 156.812 95.1269 156.339 95.1409 155.844C95.1086 155.309 94.8737 154.807 94.484 154.439C94.0943 154.071 93.579 153.865 93.0431 153.864C92.9455 153.859 92.8537 153.816 92.7865 153.745C92.7193 153.675 92.6819 153.581 92.682 153.483C92.682 153.083 93.0235 153.083 93.6578 153.083C93.9423 153.111 94.2296 153.079 94.501 152.989C94.7725 152.899 95.0222 152.754 95.234 152.562C95.4458 152.369 95.615 152.135 95.7309 151.874C95.8467 151.612 95.9065 151.33 95.9065 151.044C95.9065 150.758 95.8467 150.475 95.7309 150.214C95.615 149.952 95.4458 149.718 95.234 149.526C95.0222 149.334 94.7725 149.188 94.501 149.098C94.2296 149.008 93.9423 148.976 93.6578 149.004C93.616 149.014 93.5727 149.014 93.5309 149.004H84.5249C84.4714 149.004 84.4186 148.993 84.3699 148.971C84.3211 148.949 84.2775 148.917 84.2419 148.878C84.2046 148.836 84.1772 148.786 84.162 148.731C84.1468 148.677 84.1441 148.621 84.1541 148.565C84.417 147.122 84.6059 145.666 84.72 144.204C84.72 143.97 84.72 143.716 84.72 143.443C84.8395 142.747 84.8199 142.034 84.6625 141.346C84.5051 140.657 84.2129 140.007 83.8028 139.432C82.7197 137.871 80.3975 138.066 79.5388 138.203L80.0267 142.321C80.1167 143.104 79.967 143.897 79.5974 144.594L75.4993 152.293C75.4787 152.335 75.4487 152.371 75.4115 152.4L73.6356 153.864L73.0892 163.123C74.1918 165.641 77.4312 166.548 77.8411 166.694H77.8118Z" fill="#263238"/>
<path d="M72.3183 150.215H66.5419C65.3887 150.215 64.4539 151.15 64.4539 152.303V166.49C64.4539 167.643 65.3887 168.578 66.5419 168.578H72.3183C73.4715 168.578 74.4064 167.643 74.4064 166.49V152.303C74.4064 151.15 73.4715 150.215 72.3183 150.215Z" fill="#263238"/>
<path d="M290.757 30.9799C290.688 30.9799 290.962 31.058 291.176 31.1653C291.381 31.2813 291.608 31.3544 291.842 31.3801C292.076 31.4057 292.313 31.3835 292.538 31.3148C292.764 31.246 292.973 31.1322 293.152 30.9801C293.332 30.8281 293.479 30.641 293.585 30.4303C293.69 30.2196 293.752 29.9897 293.765 29.7546C293.779 29.5194 293.745 29.2839 293.664 29.0624C293.584 28.8409 293.46 28.6381 293.299 28.4662C293.138 28.2943 292.943 28.1569 292.728 28.0625L286.873 25.1353C287.516 24.2781 288.115 23.389 288.669 22.4715C289.438 21.4682 289.788 20.2053 289.644 18.9491C289.371 17.0757 286.854 16.4902 286.854 16.4902L285.751 19.5053C285.581 19.9874 285.264 20.4038 284.844 20.6957L279.721 24.3254L277.994 24.7547L274.53 30.6872C274.374 32.9607 276.56 34.8146 276.56 34.8146L284.366 38.7175L284.512 38.7956C284.718 38.9071 284.945 38.9768 285.178 39.0009C285.411 39.0249 285.647 39.0028 285.871 38.9358C286.096 38.8687 286.305 38.7581 286.487 38.6101C286.669 38.4622 286.82 38.2799 286.932 38.0736C287.061 37.8089 287.12 37.5156 287.102 37.2217C287.085 36.9278 286.993 36.6432 286.834 36.3953L287.127 36.5807C287.547 36.8029 288.037 36.8507 288.492 36.7137C288.947 36.5767 289.329 36.266 289.557 35.8489C289.684 35.5895 289.743 35.3016 289.728 35.0129C289.713 34.7242 289.623 34.4442 289.469 34.1999C289.868 34.3368 290.302 34.3265 290.694 34.1708C291.086 34.0151 291.409 33.7243 291.606 33.351C291.804 32.9234 291.825 32.4352 291.667 31.9917C291.508 31.5481 291.181 31.1847 290.757 30.9799Z" fill="white"/>
<path d="M284.405 39.0489L284.249 38.961L276.443 35.0581C276.427 35.0622 276.41 35.0622 276.394 35.0581C276.296 34.98 274.101 33.1066 274.267 30.7063C274.258 30.6677 274.258 30.6278 274.267 30.5892L277.701 24.6567C277.717 24.6242 277.741 24.5958 277.769 24.5738C277.798 24.5518 277.832 24.5367 277.867 24.5299L279.545 24.1103L284.629 20.5098C285.003 20.2486 285.287 19.8767 285.439 19.4463L286.542 16.402C286.564 16.338 286.609 16.2846 286.669 16.2521C286.728 16.2197 286.798 16.2105 286.864 16.2264C286.971 16.2264 289.557 16.8703 289.849 18.9096C290.046 20.034 289.802 21.191 289.166 22.1393C289.069 22.2954 288.981 22.4418 288.913 22.5687C288.414 23.4137 287.87 24.2312 287.283 25.0177L292.874 27.8181L292.952 27.8767C293.426 28.1195 293.787 28.5375 293.959 29.0421C294.13 29.5467 294.098 30.0981 293.869 30.5795C293.681 30.9442 293.386 31.2425 293.023 31.4344C292.66 31.6263 292.247 31.7025 291.84 31.6528C292.003 31.9327 292.093 32.2487 292.103 32.5723C292.114 32.896 292.043 33.2171 291.898 33.5067C291.716 33.8589 291.433 34.1489 291.086 34.34C290.738 34.5312 290.342 34.6147 289.947 34.58C290.082 35.0542 290.036 35.5616 289.82 36.0046C289.589 36.4288 289.216 36.7586 288.767 36.9369C288.318 37.1151 287.82 37.1305 287.361 36.9803C287.449 37.397 287.39 37.8311 287.195 38.2097C287.067 38.4482 286.894 38.6591 286.684 38.8304C286.474 39.0017 286.233 39.13 285.974 39.2079C285.715 39.2859 285.443 39.3119 285.173 39.2846C284.904 39.2573 284.643 39.1772 284.405 39.0489ZM276.735 34.5897L284.541 38.4927L284.668 38.5707C285.023 38.7589 285.438 38.7998 285.823 38.6849C286.208 38.5699 286.533 38.3081 286.727 37.956C286.837 37.7351 286.887 37.4895 286.873 37.2432C286.86 36.9969 286.782 36.7584 286.649 36.551C286.619 36.4974 286.607 36.4352 286.617 36.3745C286.626 36.3137 286.656 36.2579 286.701 36.2162C286.746 36.1744 286.804 36.1491 286.866 36.1444C286.927 36.1396 286.988 36.1557 287.039 36.19C287.119 36.249 287.204 36.3012 287.293 36.3461C287.646 36.5376 288.061 36.5814 288.447 36.4681C288.833 36.3547 289.158 36.0934 289.352 35.7411C289.458 35.5215 289.508 35.2786 289.496 35.0347C289.484 34.7909 289.411 34.5539 289.283 34.3458C289.25 34.3006 289.232 34.2459 289.232 34.1897C289.232 34.1335 289.25 34.0788 289.283 34.0336C289.318 33.9914 289.364 33.9605 289.416 33.9449C289.468 33.9293 289.524 33.9296 289.576 33.9458C289.911 34.0604 290.277 34.0527 290.607 33.9242C290.937 33.7956 291.211 33.5544 291.381 33.2432C291.548 32.8767 291.563 32.4592 291.425 32.0812C291.286 31.7032 291.004 31.3951 290.64 31.2234C290.579 31.1885 290.534 31.1316 290.514 31.0644C290.494 30.9972 290.5 30.9249 290.532 30.8624C290.659 30.599 290.884 30.7161 291.323 30.9307C291.494 31.0172 291.681 31.069 291.873 31.0832C292.065 31.0974 292.258 31.0737 292.44 31.0135C292.623 30.9532 292.792 30.8576 292.937 30.7321C293.083 30.6065 293.202 30.4536 293.289 30.2819C293.375 30.1102 293.427 29.9231 293.441 29.7314C293.455 29.5396 293.432 29.347 293.372 29.1644C293.311 28.9818 293.216 28.8129 293.09 28.6673C292.965 28.5217 292.812 28.4022 292.64 28.3157H292.572L286.776 25.3885C286.739 25.37 286.708 25.3438 286.682 25.3118C286.657 25.2798 286.639 25.2428 286.629 25.2031C286.613 25.1679 286.605 25.1296 286.605 25.0909C286.605 25.0522 286.613 25.014 286.629 24.9787C286.629 24.9787 288.044 23.0272 288.395 22.354C288.473 22.1979 288.571 22.0418 288.669 21.8759C288.978 21.4611 289.2 20.9877 289.321 20.4845C289.442 19.9813 289.459 19.4587 289.371 18.9487C289.176 17.5924 287.625 16.9972 287.029 16.7825L286.005 19.5927C285.825 20.1254 285.484 20.5891 285.029 20.9197L279.907 24.5494H279.819L278.199 24.9494L274.852 30.7258C274.735 32.7358 276.482 34.3848 276.735 34.5897Z" fill="#263238"/>
<path d="M277.964 21.9459L275.295 20.6072C274.264 20.0901 273.01 20.5065 272.492 21.5373L268.437 29.6222C267.92 30.653 268.336 31.9078 269.367 32.4249L272.036 33.7636C273.067 34.2807 274.321 33.8643 274.838 32.8335L278.894 24.7486C279.411 23.7178 278.995 22.463 277.964 21.9459Z" fill="#263238"/>
<path d="M298.163 143.96C298.055 143.96 298.465 143.882 298.787 143.823C299.105 143.778 299.411 143.669 299.686 143.503C299.962 143.338 300.201 143.118 300.391 142.859C300.58 142.599 300.716 142.304 300.79 141.992C300.864 141.679 300.875 141.354 300.821 141.038C300.768 140.721 300.652 140.418 300.479 140.146C300.307 139.875 300.082 139.641 299.818 139.457C299.554 139.274 299.256 139.146 298.942 139.079C298.627 139.013 298.303 139.01 297.987 139.071L288.971 140.584C288.99 139.096 288.935 137.607 288.805 136.125C288.61 135.012 288.893 133.198 287.049 131.363C285.205 129.529 281.907 130.885 281.907 130.885L283.175 135.208C283.385 135.884 283.385 136.609 283.175 137.286L280.385 145.541L278.794 147.434L279.77 156.908C281.458 159.581 285.419 159.835 285.419 159.835L297.372 157.825H297.606C298.26 157.733 298.85 157.386 299.247 156.859C299.644 156.332 299.816 155.668 299.724 155.015C299.651 154.614 299.476 154.238 299.217 153.924C298.957 153.609 298.621 153.367 298.241 153.22C298.4 153.235 298.56 153.235 298.719 153.22C299.043 153.176 299.355 153.07 299.638 152.905C299.92 152.741 300.167 152.522 300.365 152.262C300.563 152.002 300.707 151.705 300.79 151.389C300.872 151.072 300.891 150.743 300.846 150.419C300.775 150.023 300.605 149.651 300.35 149.338C300.096 149.026 299.766 148.783 299.392 148.634C299.95 148.461 300.429 148.095 300.741 147.602C301.054 147.108 301.181 146.519 301.1 145.941C301.038 145.617 300.912 145.309 300.731 145.035C300.55 144.76 300.316 144.524 300.043 144.34C299.77 144.156 299.463 144.027 299.141 143.962C298.818 143.897 298.486 143.896 298.163 143.96Z" fill="white"/>
<path d="M297.655 158.216H297.411L285.478 160.167H285.39C285.215 160.167 281.214 159.836 279.438 157.026C279.424 156.974 279.424 156.921 279.438 156.869L278.462 147.395C278.455 147.345 278.458 147.294 278.471 147.245C278.485 147.197 278.508 147.151 278.54 147.112L280.092 145.278L282.843 137.072C283.034 136.468 283.034 135.821 282.843 135.218L281.585 130.895C281.56 130.806 281.568 130.71 281.608 130.626C281.647 130.542 281.715 130.475 281.799 130.437C281.946 130.378 285.351 128.954 287.351 131.003C288.487 132.136 289.129 133.672 289.137 135.276C289.151 135.509 289.177 135.74 289.215 135.969C289.348 137.321 289.406 138.679 289.391 140.038L297.958 138.604H298.085C298.816 138.489 299.564 138.663 300.17 139.089C300.776 139.515 301.193 140.159 301.334 140.887C301.421 141.449 301.335 142.024 301.085 142.536C300.836 143.047 300.435 143.469 299.938 143.746C300.394 143.948 300.785 144.27 301.07 144.679C301.354 145.088 301.521 145.567 301.552 146.064C301.583 146.561 301.478 147.057 301.246 147.498C301.015 147.939 300.667 148.309 300.241 148.566C300.768 148.989 301.116 149.595 301.217 150.264C301.311 150.929 301.167 151.607 300.81 152.177C300.452 152.746 299.905 153.171 299.265 153.376C299.7 153.778 299.988 154.314 300.085 154.898C300.148 155.276 300.136 155.663 300.047 156.036C299.959 156.409 299.797 156.761 299.57 157.07C299.344 157.379 299.058 157.64 298.729 157.837C298.4 158.034 298.035 158.163 297.655 158.216ZM285.4 159.494L297.304 157.494H297.499C298.053 157.419 298.556 157.127 298.896 156.683C299.236 156.238 299.386 155.678 299.314 155.123C299.258 154.783 299.113 154.464 298.893 154.198C298.674 153.933 298.388 153.73 298.065 153.61C297.984 153.576 297.917 153.514 297.876 153.436C297.835 153.358 297.822 153.268 297.841 153.181C297.857 153.095 297.903 153.017 297.971 152.962C298.038 152.907 298.124 152.877 298.211 152.879C298.348 152.889 298.485 152.889 298.621 152.879C298.896 152.843 299.161 152.753 299.402 152.614C299.642 152.475 299.852 152.29 300.021 152.07C300.189 151.85 300.313 151.598 300.384 151.33C300.455 151.062 300.473 150.783 300.436 150.508C300.376 150.174 300.233 149.862 300.02 149.599C299.807 149.336 299.53 149.132 299.216 149.005C299.143 148.98 299.079 148.933 299.034 148.87C298.989 148.807 298.964 148.731 298.964 148.654C298.964 148.576 298.989 148.501 299.034 148.438C299.079 148.375 299.143 148.327 299.216 148.302C299.688 148.157 300.094 147.848 300.36 147.432C300.626 147.016 300.736 146.519 300.67 146.029C300.555 145.483 300.229 145.003 299.764 144.695C299.298 144.386 298.73 144.273 298.182 144.38C298.086 144.389 297.99 144.362 297.912 144.305C297.835 144.247 297.781 144.162 297.762 144.068C297.694 143.668 298.036 143.609 298.738 143.492C299.018 143.467 299.29 143.384 299.536 143.249C299.783 143.114 299.999 142.93 300.171 142.707C300.343 142.485 300.467 142.23 300.535 141.957C300.603 141.684 300.615 141.4 300.568 141.123C300.522 140.846 300.418 140.581 300.265 140.346C300.111 140.111 299.91 139.91 299.675 139.756C299.44 139.601 299.176 139.498 298.899 139.45C298.622 139.403 298.338 139.414 298.065 139.482H297.948L289.069 140.975C289.013 140.985 288.957 140.982 288.902 140.967C288.848 140.951 288.798 140.924 288.756 140.887C288.717 140.851 288.685 140.808 288.663 140.759C288.641 140.71 288.63 140.657 288.63 140.604C288.63 140.604 288.63 137.277 288.464 136.203C288.418 135.955 288.389 135.704 288.376 135.452C288.378 134.745 288.241 134.045 287.971 133.392C287.702 132.739 287.305 132.146 286.805 131.647C285.478 130.281 283.224 130.856 282.395 131.139L283.566 135.12C283.797 135.87 283.797 136.673 283.566 137.423L280.794 145.697C280.778 145.742 280.755 145.785 280.726 145.824L279.233 147.59L280.209 156.811C281.634 159.055 284.98 159.455 285.4 159.494Z" fill="#263238"/>
<path d="M277.214 144.177L271.517 145.132C270.38 145.322 269.612 146.399 269.803 147.536L272.147 161.528C272.337 162.666 273.414 163.433 274.551 163.243L280.248 162.288C281.386 162.098 282.153 161.021 281.963 159.884L279.619 145.892C279.428 144.754 278.352 143.987 277.214 144.177Z" fill="#263238"/>
<path d="M169.717 9.85468C168.463 10.5947 167.449 11.6804 166.797 12.9818C166.144 14.2831 165.881 15.745 166.038 17.1922C164.616 16.2003 162.897 15.7246 161.167 15.8441C159.437 15.9635 157.799 16.671 156.527 17.849C155.254 19.0271 154.423 20.6049 154.17 22.3206C153.918 24.0363 154.26 25.7867 155.139 27.2813C157.656 31.5453 162.75 32.8821 167.287 33.5163C169.307 33.7993 171.326 34.0042 173.356 34.1701L176.156 34.4335C176.156 34.4335 177.259 32.0429 177.366 31.8088C178.196 29.9451 178.996 28.0717 179.718 26.1788C181.357 21.8953 182.645 16.7922 180.128 12.5184C179.1 10.785 177.426 9.53068 175.474 9.03117C173.521 8.53166 171.45 8.82787 169.717 9.85468Z" fill="#263238"/>
<path d="M318.555 107.878C317.181 107.395 315.697 107.317 314.28 107.655C312.863 107.992 311.573 108.73 310.564 109.78C310.417 108.048 309.68 106.418 308.476 105.164C307.271 103.909 305.673 103.107 303.948 102.889C302.222 102.672 300.475 103.054 298.997 103.971C297.52 104.888 296.402 106.284 295.83 107.926C294.191 112.59 296.435 117.352 298.865 121.235C299.948 122.962 301.09 124.641 302.261 126.309C302.417 126.524 303.861 128.622 303.861 128.622C303.861 128.622 306.398 127.929 306.651 127.851C308.603 127.295 310.554 126.7 312.506 126.036C316.838 124.533 321.58 122.24 323.239 117.576C323.57 116.632 323.712 115.632 323.656 114.633C323.6 113.634 323.347 112.655 322.911 111.754C322.476 110.853 321.868 110.047 321.12 109.382C320.372 108.716 319.501 108.205 318.555 107.878Z" fill="#263238"/>
<path d="M54.4818 180.755C53.0743 181.128 51.8034 181.897 50.8207 182.971C49.8381 184.045 49.1851 185.38 48.9397 186.815C47.843 185.468 46.3175 184.537 44.6177 184.179C42.9179 183.821 41.1467 184.056 39.5996 184.846C38.0526 185.637 36.8233 186.933 36.117 188.52C35.4106 190.107 35.2699 191.889 35.7184 193.567C36.9869 198.348 41.5728 201.022 45.7197 202.866C47.5834 203.685 49.4763 204.437 51.379 205.149L54.0037 206.125C54.0037 206.125 55.7113 204.124 55.8772 203.92C57.1846 202.358 58.4629 200.768 59.6728 199.138C62.4048 195.46 65.0393 190.903 63.7709 186.122C63.2471 184.181 61.9756 182.526 60.2347 181.52C58.4937 180.515 56.4251 180.24 54.4818 180.755Z" fill="#263238"/>
<path d="M81.0902 89.0362C80.2231 88.7286 79.2856 88.6782 78.3906 88.8912C77.4956 89.1041 76.6813 89.5712 76.0456 90.2363C75.9533 89.1426 75.4882 88.1139 74.7281 87.322C73.9681 86.5302 72.9592 86.0233 71.8703 85.8862C70.7813 85.7491 69.6783 85.99 68.7457 86.5687C67.8131 87.1474 67.1075 88.0288 66.7468 89.0654C65.7028 91.9927 67.1274 95.0077 68.6983 97.4665C69.3813 98.5496 70.1034 99.6132 70.8449 100.667L71.8207 102.121L73.5868 101.643C74.8162 101.291 76.0456 100.911 77.2653 100.491C79.9974 99.5156 82.9831 98.1008 84.0271 95.154C84.4484 93.9533 84.3757 92.6344 83.825 91.4872C83.2743 90.34 82.2906 89.4584 81.0902 89.0362Z" fill="#263238"/>
<path d="M122.725 210.027C121.856 209.72 120.917 209.67 120.021 209.883C119.125 210.096 118.309 210.563 117.671 211.228C117.578 210.134 117.113 209.105 116.353 208.313C115.593 207.521 114.584 207.015 113.495 206.877C112.406 206.74 111.303 206.981 110.371 207.56C109.438 208.139 108.732 209.02 108.372 210.057C107.338 212.984 108.752 215.999 110.323 218.458C110.997 219.541 111.728 220.604 112.47 221.658L113.446 223.112L115.202 222.634C116.441 222.283 117.671 221.912 118.881 221.483C121.613 220.507 124.608 219.092 125.652 216.145C126.074 214.946 126.003 213.628 125.454 212.481C124.905 211.334 123.924 210.452 122.725 210.027Z" fill="#263238"/>
<path d="M131.302 267.859C131.302 267.859 120.256 279.353 119.134 284.993C118.012 290.633 120.705 295.59 125.223 294.233C129.74 292.877 133.79 278.904 134.912 276.426C136.034 273.948 137.39 271.235 137.39 271.235C137.39 271.235 134.024 266.727 131.302 267.859Z" fill="#39B54A" stroke="#263238" stroke-linecap="round" stroke-linejoin="round"/>
<path d="M119.037 285.589C118.207 290.965 120.871 295.531 125.223 294.224C126.784 293.756 128.296 291.765 129.643 289.267C126.716 284.486 121.974 284.798 119.037 285.589Z" fill="white" stroke="#263238" stroke-linecap="round" stroke-linejoin="round"/>
<path d="M131.204 286.057C128.745 289.433 125.574 293.063 123.193 292.428C120.812 291.794 119.554 287.325 119.124 285.022C118.012 290.643 120.715 295.58 125.223 294.233C127.418 293.58 129.506 289.921 131.204 286.057Z" fill="white" stroke="#263238" stroke-linecap="round" stroke-linejoin="round"/>
<path d="M133.556 274.172C133.556 274.172 128.599 271.46 128.374 272.367C128.15 273.275 133.107 275.743 133.79 275.743C134.473 275.743 134.912 275.519 133.556 274.172Z" fill="white" stroke="#263238" stroke-linecap="round" stroke-linejoin="round"/>
<path d="M132.434 275.743C132.434 275.743 127.477 273.041 127.252 273.948C127.028 274.855 131.985 277.324 132.658 277.324C133.331 277.324 133.79 277.1 132.434 275.743Z" fill="white" stroke="#263238" stroke-linecap="round" stroke-linejoin="round"/>
<path d="M131.302 277.324C131.302 277.324 126.345 274.621 126.12 275.519C125.896 276.416 130.853 278.904 131.536 278.904C132.219 278.904 132.658 278.68 131.302 277.324Z" fill="white" stroke="#263238" stroke-linecap="round" stroke-linejoin="round"/>
<path d="M130.18 278.905C130.18 278.905 125.223 276.202 124.989 277.1C124.754 277.997 129.731 280.485 130.404 280.485C131.077 280.485 131.536 280.261 130.18 278.905Z" fill="white" stroke="#263238" stroke-linecap="round" stroke-linejoin="round"/>
<path d="M215.401 260.414C215.401 260.414 209.546 264.922 208.19 268.083C206.834 271.245 209.536 272.142 213.147 272.816C216.757 273.489 220.133 277.324 225.09 278.67C230.046 280.017 236.369 279.568 234.34 276.416C232.31 273.265 225.773 269.196 224.641 267.391C223.957 266.311 223.348 265.186 222.816 264.024L215.401 260.414Z" fill="#39B54A" stroke="#263238" stroke-linecap="round" stroke-linejoin="round"/>
<path d="M234.34 276.426C233.604 275.39 232.742 274.449 231.773 273.626C230.317 273.919 228.936 274.507 227.716 275.355C226.496 276.202 225.463 277.291 224.68 278.553L225.09 278.68C230.056 280.027 236.369 279.578 234.34 276.426Z" fill="white" stroke="#263238" stroke-linecap="round" stroke-linejoin="round"/>
<path d="M224.416 266.503C224.416 266.503 218.562 267.635 219.684 268.532C220.806 269.43 225.548 267.635 224.416 266.503Z" fill="white" stroke="#263238" stroke-linecap="round" stroke-linejoin="round"/>
<path d="M226.221 267.635C226.221 267.635 220.367 268.757 221.489 269.664C222.611 270.572 227.353 268.757 226.221 267.635Z" fill="white" stroke="#263238" stroke-linecap="round" stroke-linejoin="round"/>
<path d="M227.119 268.757C227.119 268.757 221.265 269.889 222.387 270.786C223.509 271.684 228.251 269.889 227.119 268.757Z" fill="white" stroke="#263238" stroke-linecap="round" stroke-linejoin="round"/>
<path d="M228.924 270.338C228.924 270.338 223.07 271.46 224.192 272.367C225.314 273.275 230.056 271.46 228.924 270.338Z" fill="white" stroke="#263238" stroke-linecap="round" stroke-linejoin="round"/>
<path d="M234.691 277.324C230.3 278.485 226.251 277.558 222.387 275.519C218.913 273.591 215.295 271.933 211.566 270.562C210.286 270.127 209.069 269.527 207.946 268.776C207.273 271.372 209.819 272.191 213.146 272.816C216.757 273.489 220.133 277.324 225.09 278.67C229.539 279.89 235.042 279.646 234.691 277.324Z" fill="white" stroke="#263238" stroke-linecap="round" stroke-linejoin="round"/>
<path d="M173.688 166.109C173.688 166.109 165.579 202.699 163.999 211.491C162.418 220.282 161.745 225.698 161.745 225.698C161.745 225.698 155.89 229.981 150.036 239.446C144.181 248.91 131.321 267.859 131.321 267.859C131.321 267.859 130.872 271.235 134.931 272.367C134.931 272.367 136.961 273.265 138.093 272.367C139.225 271.469 177.766 235.845 182.274 228.4C186.782 220.956 196.032 195.03 196.032 195.03L201.886 193.908L239.306 228.625L214.054 260.824C214.054 260.824 213.156 262.629 215.635 264.21C218.113 265.791 221.948 265.108 223.977 264.21C226.007 263.312 261.631 228.361 261.855 225.883C262.08 223.405 260.275 220.468 259.826 219.57C259.377 218.672 223.528 170.783 223.528 170.783L221.499 165.602C221.499 165.602 197.827 168.305 187.231 166.275C176.634 164.246 174.595 162.733 173.688 166.109Z" fill="white" stroke="#263238" stroke-linecap="round" stroke-linejoin="round"/>
<path d="M201.877 193.908L214.727 190.073" stroke="#263238" stroke-linecap="round" stroke-linejoin="round"/>
<path d="M203.223 194.581L220.806 192.552" stroke="#263238" stroke-linecap="round" stroke-linejoin="round"/>
<path d="M239.296 228.625L246.966 234.938" stroke="#263238" stroke-linecap="round" stroke-linejoin="round"/>
<path d="M205.35 177.955L197.623 180.531C197.623 180.531 209.771 180.16 210.141 181.634C210.512 183.107 202.774 189 202.774 189" stroke="#263238" stroke-linecap="round" stroke-linejoin="round"/>
<path d="M177.737 173.164C177.737 173.164 181.835 180.209 172.214 184.209" stroke="#263238" stroke-linecap="round" stroke-linejoin="round"/>
<path d="M226.358 91.7685C226.358 91.7685 193.759 91.0367 192.207 91.4855C190.656 91.9343 172.595 114.484 170.565 116.513C168.536 118.543 163.12 122.368 162.672 125.295C162.223 128.222 166.282 137.921 170.79 137.921C175.298 137.921 183.416 128.905 183.416 128.905C183.416 128.905 172.595 166.325 173.044 167.935C173.493 169.544 181.162 173.116 198.296 175.145C215.43 177.175 222.689 169.964 223.099 167.71C223.509 165.456 222.64 161.622 222.64 161.622L228.495 151.249C228.495 151.249 238.867 158.987 243.599 155.601C248.332 152.215 248.332 141.843 250.586 138.692C252.84 135.54 258.255 118.631 256.44 116.377C254.625 114.123 226.358 91.7685 226.358 91.7685Z" fill="#39B54A" stroke="#263238" stroke-linecap="round" stroke-linejoin="round"/>
<path d="M244.029 116.122C244.029 116.122 237.716 111.546 236.818 113.576C235.92 115.605 230.056 126.885 225.743 131.617C221.431 136.349 219.206 140.857 221.909 144.468C223.849 146.941 226.04 149.207 228.446 151.229" stroke="#263238" stroke-linecap="round" stroke-linejoin="round"/>
<path d="M183.387 128.915L191.505 101.857" stroke="#263238" stroke-linecap="round" stroke-linejoin="round"/>
<path d="M219.889 93.0656C219.889 93.0656 207.936 91.7093 202.755 86.5281C197.574 81.347 194.861 76.156 185.845 74.8193C180.464 74.0056 174.991 74.0056 169.609 74.8193L171.863 86.5281C171.863 86.5281 182.694 82.469 188.099 85.6207C193.505 88.7723 196.217 96.666 203.653 98.6956C211.088 100.725 220.562 100.276 220.562 100.276L219.889 93.0656Z" fill="#263238" stroke="#263238" stroke-linecap="round" stroke-linejoin="round"/>
<path d="M229.832 95.0952C231.951 96.9223 233.448 99.3642 234.115 102.081C235.013 106.365 230.954 111.546 227.802 114.483C224.651 117.42 221.489 118.767 213.371 119.889C205.253 121.011 198.042 112.678 192.627 111.78C187.211 110.883 176.166 116.961 176.166 116.961L178.43 107.263C183.323 104.391 189.024 103.205 194.656 103.887C204.131 105.009 210.444 111.78 214.044 112.668C217.645 113.556 224.192 111.536 225.548 106.355C226.904 101.174 225.09 96.4319 227.353 94.861C229.617 93.2901 229.832 95.0952 229.832 95.0952Z" fill="#263238" stroke="#263238" stroke-linecap="round" stroke-linejoin="round"/>
<path d="M228.67 53.1582C228.67 53.1582 222.133 54.9633 219.43 59.0126C216.727 63.0619 208.834 86.7431 209.058 88.7726C209.283 90.8022 219.43 88.7726 219.43 88.7726C219.43 88.7726 212.444 103.409 212.444 105.907C212.444 108.404 215.596 109.741 219.655 108.834C223.714 107.926 237.54 84.1281 237.54 84.1281C237.54 84.1281 241.638 88.8897 244.224 87.2602C247.151 85.3868 246.253 81.6205 243.999 81.6205C241.745 81.6205 250.312 72.3802 247.385 66.2916C244.458 60.203 231.403 51.1287 228.67 53.1582Z" fill="white" stroke="#263238" stroke-linecap="round" stroke-linejoin="round"/>
<path d="M226.221 45.9472C226.221 45.9472 213.595 45.9472 212.922 52.0358C212.249 58.1244 218.776 60.8174 225.997 59.6953C233.217 58.5732 239.745 59.0221 240.633 60.1442C241.521 61.2663 231.851 63.53 234.096 65.1107C235.409 66.0434 236.994 66.5168 238.603 66.4572C238.603 66.4572 235.442 67.3646 235.676 69.6186C235.91 71.8725 237.872 81.8348 239.443 81.8348C241.014 81.8348 244.019 81.6299 244.019 81.6299C246.869 80.1902 249.461 78.2878 251.688 75.9999C255.074 72.3897 255.972 64.7204 251.688 60.2125C247.405 55.7046 244.019 51.3528 240.643 47.7523C237.267 44.1518 234.105 40.3074 227.343 39.4097C220.582 38.5121 216.962 41.2051 226.221 45.9472Z" fill="#263238" stroke="#263238" stroke-linecap="round" stroke-linejoin="round"/>
<path d="M252.547 69.2188C252.778 70.5395 252.824 71.8859 252.683 73.2193" stroke="white" stroke-linecap="round" stroke-linejoin="round"/>
<path d="M229.373 53.0605C229.373 53.0605 215.537 54.4071 220.767 57.0513C225.997 59.6956 233.998 54.7486 244.077 58.7296C245.775 59.3466 247.325 60.3109 248.629 61.5609C249.933 62.8108 250.961 64.319 251.649 65.9891" stroke="white" stroke-linecap="round" stroke-linejoin="round"/>
<path d="M237.774 63.5596C237.774 63.5596 247.229 68.1846 248.507 74.8977" stroke="white" stroke-linecap="round" stroke-linejoin="round"/>
<path d="M219.46 88.7825C219.46 88.7825 230.281 88.0995 233.208 85.6211" stroke="#263238" stroke-linecap="round" stroke-linejoin="round"/>
<path d="M209.087 64.4273C209.087 64.4273 225.548 64.2029 234.788 66.2324C234.788 66.2324 233.169 71.5697 230.466 73.3748C227.763 75.1799 223.07 73.9017 221.938 72.9943C220.806 72.0868 219.908 66.6812 219.908 66.6812H218.103L217.206 69.3938C217.206 69.3938 216.523 72.9943 214.044 72.9943C211.566 72.9943 209.087 72.5454 209.087 64.4273Z" fill="#39B54A" stroke="#263238" stroke-linecap="round" stroke-linejoin="round"/>
<path d="M217.674 67.9989C214.945 67.1666 212.033 67.1463 209.292 67.9403C209.936 72.6824 211.986 73.0044 214.044 73.0044C216.523 73.0044 217.206 69.4039 217.206 69.4039L217.674 67.9989Z" fill="#263238" stroke="#263238" stroke-linecap="round" stroke-linejoin="round"/>
<path d="M233.149 70.0868C229.08 66.3302 224.992 69.9989 220.377 68.9842C220.748 70.5746 221.304 72.4968 221.938 72.9944C223.07 73.9019 227.792 75.1801 230.466 73.375C231.597 72.4952 232.514 71.3711 233.149 70.0868Z" fill="#263238" stroke="#263238" stroke-linecap="round" stroke-linejoin="round"/>
<path d="M234.788 66.2324L245.024 82.0198L244.029 81.6296L233.842 68.9547L234.788 66.2324Z" fill="#39B54A" stroke="#263238" stroke-linecap="round" stroke-linejoin="round"/>
<path d="M216.074 79.7665C216.074 79.7665 223.967 82.0204 226.221 77.2783" stroke="#263238" stroke-linecap="round" stroke-linejoin="round"/>
<path d="M224.865 76.3799L228.251 77.7362" stroke="#263238" stroke-linecap="round" stroke-linejoin="round"/>
<path d="M218.552 69.3945C218.552 69.3945 211.566 70.2922 211.566 71.4241C211.566 72.5559 216.074 75.7076 216.074 75.7076" fill="white"/>
<path d="M218.552 69.3945C218.552 69.3945 211.566 70.2922 211.566 71.4241C211.566 72.5559 216.074 75.7076 216.074 75.7076" stroke="#263238" stroke-linecap="round" stroke-linejoin="round"/>
<path d="M217.654 92.6163C217.181 92.5887 216.709 92.6765 216.277 92.8719C215.845 93.0674 215.468 93.3647 215.176 93.7384C213.82 95.0947 210.717 100.432 209.917 102.52C208.473 106.355 213.547 113.253 218.777 110.843C221.372 109.672 222.016 110.697 224.953 107.086C227.89 103.476 228.475 100.695 228.475 99.5733C228.475 98.4512 230.505 98.4414 226.221 100.471C221.938 102.501 213.371 99.1537 217.654 92.6163Z" fill="#263238" stroke="#263238" stroke-linecap="round" stroke-linejoin="round"/>
<path d="M75.4797 17.2017C74.1295 17.7713 72.9728 18.719 72.1487 19.9308C71.3247 21.1426 70.8685 22.5668 70.8352 24.0318C69.5612 22.8528 67.9216 22.1461 66.1897 22.0293C64.4578 21.9126 62.7382 22.3929 61.3175 23.3903C59.8968 24.3876 58.8608 25.8417 58.3822 27.5103C57.9035 29.1788 58.0112 30.961 58.6872 32.5598C60.6387 37.1165 65.5174 39.1362 69.8789 40.3657C71.8304 40.9121 73.7819 41.3414 75.8017 41.839C76.0554 41.839 78.5435 42.4733 78.5435 42.4733C78.5435 42.4733 79.9486 40.2583 80.0949 40.0339C81.1682 38.3069 82.2123 36.5505 83.188 34.7649C85.3834 30.7449 87.3446 25.8564 85.4322 21.2997C85.0478 20.3772 84.4854 19.5393 83.7772 18.8341C83.069 18.1289 82.2289 17.57 81.3047 17.1895C80.3805 16.8089 79.3904 16.6141 78.391 16.6162C77.3915 16.6183 76.4023 16.8172 75.4797 17.2017Z" fill="#263238"/>
<path d="M118.929 35.7994C117.562 35.2959 116.079 35.1965 114.657 35.5132C113.234 35.8298 111.933 36.549 110.909 37.585C110.778 35.8563 110.06 34.2244 108.874 32.9604C107.688 31.6965 106.104 30.8766 104.387 30.6372C102.67 30.3978 100.923 30.7532 99.4364 31.6444C97.9495 32.5356 96.8124 33.9089 96.2141 35.5359C94.5066 40.1707 96.6825 44.9615 99.0633 48.884C100.117 50.6208 101.239 52.3186 102.391 53.9969L103.961 56.3386C103.961 56.3386 106.508 55.6751 106.762 55.6068C108.713 55.0702 110.665 54.5043 112.616 53.87C116.968 52.4259 121.739 50.1915 123.447 45.5567C123.793 44.6196 123.95 43.6234 123.91 42.6253C123.87 41.6272 123.633 40.6468 123.213 39.7403C122.794 38.8339 122.199 38.0192 121.464 37.3429C120.729 36.6666 119.868 36.1421 118.929 35.7994Z" fill="#263238"/>
<path d="M114.509 31.897C114.717 31.8781 114.926 31.8781 115.134 31.897C115.773 31.897 116.386 31.6431 116.838 31.1911C117.29 30.7391 117.544 30.1261 117.544 29.4869C117.544 28.8477 117.29 28.2347 116.838 27.7827C116.386 27.3308 115.773 27.0769 115.134 27.0769H106.001C106.001 27.0769 106.567 23.7789 106.567 22.647C106.567 21.5151 107.133 19.8271 105.591 17.661C104.049 15.4949 100.576 16.2852 100.576 16.2852L101.112 20.7541C101.191 21.4608 101.055 22.1748 100.722 22.8031L96.6239 30.5017L94.7407 32.1019L94.1748 41.6153C95.3945 44.5426 99.2584 45.5183 99.2584 45.5183H111.582C112.241 45.5341 112.88 45.2885 113.359 44.8352C113.838 44.3819 114.118 43.7576 114.138 43.0985C114.132 42.6909 114.022 42.2916 113.819 41.9383C113.616 41.5849 113.326 41.2891 112.977 41.0787C113.133 41.0936 113.29 41.0936 113.446 41.0787C114.104 41.0971 114.743 40.8537 115.222 40.402C115.701 39.9502 115.982 39.3269 116.002 38.6686C115.998 38.2653 115.893 37.8695 115.695 37.5181C115.497 37.1666 115.213 36.8709 114.87 36.6586C115.449 36.582 115.982 36.3009 116.372 35.8661C116.762 35.4314 116.984 34.8715 116.997 34.2876C116.972 33.6447 116.699 33.0366 116.235 32.5909C115.771 32.1452 115.153 31.8965 114.509 31.897Z" fill="white"/>
<path d="M111.582 45.811H99.1706C99.0047 45.811 95.1116 44.8353 93.8236 41.7324C93.815 41.6775 93.815 41.6215 93.8236 41.5666L94.3895 32.0531C94.3986 31.9507 94.4477 31.8561 94.5261 31.7897L96.3507 30.2285L100.42 22.5982C100.721 22.0404 100.84 21.4025 100.761 20.7736L100.205 16.2852C100.195 16.1943 100.218 16.1028 100.27 16.0276C100.322 15.9523 100.399 15.8983 100.488 15.8754C100.644 15.8754 104.244 14.9972 105.874 17.3487C106.338 17.9934 106.671 18.7237 106.851 19.4973C107.032 20.271 107.058 21.0729 106.928 21.8566C106.928 22.1103 106.928 22.3445 106.928 22.5494C106.838 23.9074 106.672 25.2593 106.43 26.5987H115.114C115.156 26.5888 115.199 26.5888 115.241 26.5987C115.981 26.606 116.689 26.8999 117.217 27.4184C117.744 27.937 118.05 28.64 118.071 29.3796C118.062 29.9495 117.881 30.5033 117.549 30.967C117.218 31.4308 116.753 31.7825 116.217 31.975C116.59 32.2233 116.897 32.5597 117.11 32.9544C117.322 33.3492 117.435 33.7903 117.436 34.2388C117.431 34.7836 117.266 35.3149 116.96 35.7661C116.655 36.2173 116.223 36.5685 115.719 36.7757C116.19 37.2743 116.452 37.9342 116.451 38.6198C116.437 39.2907 116.185 39.9347 115.74 40.437C115.295 40.9392 114.686 41.2669 114.021 41.3616C114.383 41.8316 114.578 42.408 114.578 43.0009C114.57 43.3836 114.486 43.7609 114.331 44.1106C114.175 44.4604 113.951 44.7755 113.672 45.0373C113.393 45.2992 113.064 45.5026 112.705 45.6354C112.346 45.7683 111.964 45.828 111.582 45.811ZM99.278 45.0499H111.582C112.14 45.0658 112.682 44.8603 113.09 44.4783C113.497 44.0964 113.738 43.5688 113.758 43.0106C113.753 42.6679 113.662 42.332 113.491 42.0349C113.32 41.7377 113.076 41.4892 112.782 41.3129C112.709 41.2669 112.654 41.1974 112.625 41.1158C112.597 41.0342 112.597 40.9454 112.626 40.864C112.657 40.7809 112.715 40.711 112.792 40.6665C112.868 40.622 112.958 40.6055 113.046 40.6201C113.182 40.6336 113.319 40.6336 113.455 40.6201C113.732 40.6305 114.008 40.5863 114.268 40.4899C114.528 40.3935 114.766 40.2469 114.969 40.0584C115.172 39.8699 115.336 39.6433 115.451 39.3914C115.566 39.1395 115.631 38.8674 115.641 38.5905C115.635 38.2495 115.542 37.9156 115.372 37.6203C115.201 37.325 114.958 37.078 114.665 36.9025C114.6 36.861 114.548 36.8007 114.516 36.7294C114.485 36.6581 114.476 36.5791 114.49 36.5025C114.509 36.4291 114.548 36.3627 114.603 36.3108C114.659 36.259 114.728 36.224 114.802 36.2097C115.283 36.1466 115.728 35.9168 116.057 35.5604C116.387 35.2039 116.582 34.7432 116.607 34.2583C116.587 33.7001 116.347 33.1725 115.939 32.7906C115.531 32.4086 114.99 32.2032 114.431 32.219C114.334 32.214 114.242 32.1717 114.175 32.1008C114.107 32.03 114.07 31.9361 114.07 31.8384C114.07 31.4384 114.412 31.4384 115.046 31.4384C115.325 31.4577 115.605 31.4195 115.868 31.326C116.132 31.2325 116.374 31.0858 116.578 30.895C116.783 30.7042 116.946 30.4733 117.057 30.2168C117.169 29.9603 117.226 29.6837 117.226 29.404C117.226 29.1243 117.169 28.8476 117.057 28.5911C116.946 28.3346 116.783 28.1038 116.578 27.913C116.374 27.7222 116.132 27.5755 115.868 27.482C115.605 27.3885 115.325 27.3502 115.046 27.3696H114.919H105.913C105.859 27.3696 105.805 27.3573 105.756 27.3337C105.707 27.31 105.664 27.2756 105.63 27.233C105.593 27.1929 105.566 27.1446 105.55 27.0921C105.535 27.0396 105.532 26.9843 105.542 26.9305C105.805 25.4839 105.994 24.0249 106.108 22.5592C106.108 22.325 106.108 22.0713 106.108 21.7981C106.227 21.1022 106.207 20.3896 106.05 19.7014C105.892 19.0132 105.601 18.3629 105.191 17.7878C104.108 16.2266 101.786 16.4218 100.927 16.5584L101.415 20.6858C101.503 21.4663 101.353 22.2553 100.985 22.9495L96.9459 30.6285C96.9258 30.6736 96.8958 30.7136 96.8581 30.7456L95.092 32.2385L94.5456 41.4982C95.658 43.9961 98.8974 44.9426 99.3072 45.0499H99.278Z" fill="#263238"/>
<path d="M93.7845 28.5693H88.0081C86.8549 28.5693 85.92 29.5042 85.92 30.6574V44.8446C85.92 45.9979 86.8549 46.9327 88.0081 46.9327H93.7845C94.9377 46.9327 95.8726 45.9979 95.8726 44.8446V30.6574C95.8726 29.5042 94.9377 28.5693 93.7845 28.5693Z" fill="#263238"/>
<path d="M152.992 56.3873L152.485 51.5086C152.489 51.4893 152.489 51.4693 152.485 51.45L151.724 44.093H151.802C151.827 44.1012 151.855 44.1012 151.88 44.093C152.009 44.0593 152.12 43.9757 152.188 43.8604C152.255 43.7451 152.275 43.6077 152.241 43.4783C152.207 43.3489 152.124 43.2381 152.008 43.1704C151.893 43.1027 151.756 43.0836 151.626 43.1172L147.684 5.06348C147.674 4.97924 147.642 4.89911 147.591 4.83072C147.541 4.76232 147.474 4.70793 147.397 4.67273C147.32 4.63752 147.235 4.62267 147.15 4.62958C147.065 4.63649 146.984 4.66494 146.913 4.71221C144.399 6.42946 141.793 8.00921 139.108 9.44454L138.678 9.67872L138.21 9.93241C134.559 11.8949 130.721 13.4899 126.755 14.694L126.16 14.8599C123.537 15.6274 120.812 15.9861 118.08 15.9234C117.222 15.9234 116.324 15.8161 115.426 15.7381L114.685 15.6698C112.314 15.4551 109.806 15.1331 107.259 14.8111L106.186 14.6745L105.259 14.5672C102.644 14.2257 99.9414 13.9037 97.1508 13.6792H96.663H96.1751C92.7215 13.4039 89.2541 13.3453 85.7932 13.5036H85.1395H84.8175C81.0287 13.7382 77.2694 14.3195 73.5868 15.2404L73.255 15.3282H73.1184L72.7574 15.4258H72.6403L71.8792 15.6307C68.5717 16.588 65.3633 17.859 62.2975 19.4263L62.0438 19.5532L61.8682 19.641L61.7023 19.7288L61.3998 19.8849C58.1585 21.5905 55.0385 23.5173 52.062 25.6515L51.6717 25.9345L51.2521 26.237C48.5254 28.2137 45.9188 30.3511 43.4462 32.6378L43.1242 32.9403L43.0071 33.0574L42.7242 33.3208C40.5483 35.2539 38.6211 37.4499 36.9868 39.8583C36.8177 40.1286 36.6864 40.4208 36.5965 40.7267C36.5922 40.7917 36.5922 40.8569 36.5965 40.9218C36.5873 41.0061 36.5873 41.0912 36.5965 41.1755C36.6368 41.3824 36.7429 41.5707 36.899 41.7122C37.3237 42.0325 37.8405 42.207 38.3724 42.2098C38.5871 42.2098 38.8407 42.2098 39.1042 42.2098H39.1725C39.7384 42.2098 40.4117 42.2098 41.202 42.1513H41.6509L43.9731 41.9756L45.8465 41.8195C49.0911 41.5414 52.3481 41.434 55.6039 41.4975L56.6284 41.5853L60.8436 41.9561C62.075 42.1747 63.2933 42.4613 64.4929 42.8148L65.1954 43.0197C68.7723 44.1819 72.2668 45.5836 75.6553 47.2153L76.3871 47.5569C78.2605 48.435 80.1925 49.3587 82.183 50.3279C84.1735 51.2972 86.1478 52.2404 88.1057 53.1576L88.3106 53.2552L88.5448 53.3625C91.5501 54.7773 94.6237 56.1531 97.8241 57.4216L97.9997 57.4899L98.3217 57.6265L98.5169 57.7045L98.7705 57.8021C99.6877 58.1631 100.615 58.5242 101.551 58.8559C104.33 59.8389 107.172 60.6279 110.06 61.2172H110.226L110.567 61.2952L110.899 61.3538H111.036C114.366 61.9913 117.732 62.4311 121.115 62.671H121.242H121.613H121.837H122.091C123.935 62.7784 125.769 62.8467 127.574 62.8467C128.696 62.8467 129.799 62.8467 130.882 62.7686H131.185H131.37C135.797 62.6089 140.193 61.9543 144.474 60.8171L144.816 60.7195H144.942L145.167 60.6513L145.421 60.5732C148.689 59.5975 151.275 58.2217 152.865 56.5434C152.918 56.5009 152.962 56.4477 152.992 56.3873ZM110.967 60.5147L110.392 55.0115C113.646 55.7096 116.936 56.2307 120.247 56.5727L120.978 61.8709C117.617 61.6235 114.274 61.1705 110.967 60.5147ZM88.5253 52.3965L88.2423 48.2789C91.6086 49.5376 94.6725 50.6207 97.5997 51.5671L97.7753 56.4458C94.6042 55.1774 91.5306 53.8016 88.5351 52.3868L88.5253 52.3965ZM58.4336 40.7755C57.731 40.7169 57.0383 40.6974 56.3455 40.6681L55.7698 38.6093C58.4368 38.2864 61.125 38.1722 63.8099 38.2678L64.1904 41.195H63.7611H63.683C62.7951 41.195 61.9267 41.117 61.0583 41.117C60.1606 40.9511 59.2922 40.8438 58.4336 40.7755ZM40.6556 41.3609C41.8558 40.5608 43.134 39.7802 44.461 39.0289L44.9098 40.4828L44.6952 40.5608H44.6269L43.0852 41.1658C42.2266 41.2633 41.3972 41.3219 40.6556 41.3609ZM62.2682 26.3053C58.9312 27.4664 55.9942 28.6275 53.3109 29.8179L52.423 26.6566C55.3388 24.5484 58.3969 22.6445 61.5754 20.9582L62.2682 26.3053ZM63.3415 26.9493C65.6833 26.1492 68.2202 25.3003 71.0206 24.4514C71.8499 24.1879 72.6598 23.9538 73.4502 23.7391L73.9478 29.0764C70.5335 29.3162 67.1416 29.8086 63.8001 30.5497L63.3415 26.959V26.9493ZM105.952 21.5632L102.683 21.1632C100.898 20.9095 99.1901 20.6655 97.4338 20.4704L97.2191 14.7135C100.01 14.9379 102.713 15.2599 105.328 15.6014L105.952 21.5632ZM147.733 15.0648L149.46 31.7401C149.396 31.7273 149.329 31.7273 149.265 31.7401C146.918 32.4484 144.493 32.871 142.045 32.9988L140.337 19.0165C142.928 17.9485 145.405 16.6247 147.733 15.0648ZM143.654 54.4456C139.543 55.4518 135.329 55.9822 131.097 56.0263L130.121 46.0445H130.414C134.824 46.0445 138.912 45.8688 142.591 45.4981L143.684 54.4358L143.654 54.4456ZM87.7642 41.3219L89.4035 41.6146C91.9794 42.0732 94.6139 42.5904 97.2874 42.9904L97.5704 50.5231C94.6432 49.5474 91.5598 48.4838 88.174 47.1958L87.7642 41.3219ZM62.8439 30.7742C59.9439 31.4581 57.0893 32.3217 54.2964 33.3599L53.5744 30.7742C56.2089 29.5838 59.1166 28.4422 62.356 27.281L62.8439 30.7742ZM62.9707 31.7499L63.683 37.2726C60.9487 37.1859 58.2118 37.3099 55.4966 37.6434L54.5208 34.3063C57.2774 33.2671 60.1004 32.413 62.9707 31.7499ZM63.9465 31.5255C67.278 30.7819 70.6601 30.2862 74.0649 30.0424L74.826 38.2386C71.4686 37.7423 68.0882 37.4167 64.6978 37.2628L63.9465 31.5255ZM118.588 44.6394C116.978 44.5223 115.202 44.3759 113.046 44.171C111.758 44.0442 110.489 43.9076 109.211 43.7515L107.952 31.5743C111.026 31.9743 113.885 32.3939 116.656 32.7842H116.958L118.588 44.6394ZM97.4728 21.4071C99.1511 21.5925 100.81 21.8364 102.547 22.0803L106.059 22.5682L106.869 30.4424C103.659 30.0521 100.673 29.7399 97.7655 29.4667L97.4728 21.4071ZM97.2582 41.9951C94.6562 41.5593 92.0965 41.1137 89.5791 40.6584L87.6959 40.3266L86.9739 29.8667C90.1743 29.9448 93.4138 30.1204 96.8288 30.4034L97.2582 41.9951ZM74.9333 28.9691L74.4064 23.4269C78.0079 22.4133 81.6854 21.6922 85.4029 21.2705L85.9201 28.8227C82.9246 28.7641 79.8705 28.8227 76.836 28.8812C76.2017 28.9691 75.5578 28.9691 74.9333 28.9691ZM75.0211 29.9448C75.6358 29.9448 76.2505 29.8765 76.875 29.857C79.9193 29.7594 82.9734 29.7399 85.9884 29.7984L86.7007 40.112C83.2954 39.507 79.4509 38.8435 75.8017 38.3361L75.0211 29.9448ZM97.8046 30.4424C100.732 30.6864 103.737 30.9986 106.977 31.4182L108.235 43.6051C105.181 43.2343 101.971 42.7562 98.2339 42.1415L97.8046 30.4424ZM112.968 45.0785C115.221 45.2931 117.066 45.4493 118.744 45.5566L120.11 55.4994C116.81 55.1602 113.533 54.6325 110.294 53.9187L109.318 44.6882C110.538 44.9028 111.748 45.0297 112.968 45.1468V45.0785ZM117.993 32.911C121.583 33.4184 124.823 33.8868 127.867 34.1112L128.999 44.9907C125.984 44.9907 122.832 44.8443 119.603 44.6296L117.993 32.911ZM142.445 44.454C138.688 44.8248 134.512 45.0102 129.984 45.0004L128.862 34.1892C130.248 34.2966 131.565 34.3454 132.765 34.3454C135.81 34.3454 138.62 34.238 141.166 34.0331L142.445 44.454ZM142.162 33.9453C144.67 33.8073 147.154 33.3683 149.558 32.6378L150.66 43.2246H150.612C148.244 43.7321 145.849 44.1067 143.44 44.3467L142.162 33.9453ZM141.069 33.0574C138.571 33.2623 135.78 33.3696 132.785 33.3696C131.536 33.3696 130.18 33.3111 128.755 33.2038L127.643 22.5585C131.655 21.9258 135.582 20.8424 139.351 19.3288L141.069 33.0574ZM127.76 33.1257C124.745 32.8622 121.476 32.4232 117.856 31.906L116.666 23.3098H118.1C120.97 23.3139 123.837 23.1084 126.677 22.6951L127.76 33.1257ZM116.841 31.7499C114.002 31.3498 111.065 30.9205 107.894 30.501L107.074 22.6268C109.348 22.9 112.285 23.1927 115.7 23.2903L116.841 31.7499ZM96.7898 29.3496C93.365 29.0666 90.1255 28.891 86.9056 28.8129L86.3689 21.1436C89.7399 20.8409 93.1326 20.8735 96.4971 21.2412L96.7898 29.3496ZM85.3347 20.3338C81.6105 20.7544 77.9265 21.4756 74.3186 22.4902L73.7331 16.2064C77.4012 15.2771 81.148 14.6924 84.9248 14.4598L85.3347 20.3338ZM52.4133 30.2278C49.5599 31.5335 46.8044 33.0433 44.1683 34.7454L43.9146 33.916L43.8463 33.7014C46.312 31.4333 48.8982 29.2999 51.5936 27.3103L52.4133 30.2278ZM44.4708 35.7016C47.0958 34.0036 49.838 32.4939 52.6767 31.184L53.389 33.7111C50.5267 34.8303 47.7399 36.134 45.0464 37.6141L44.4708 35.7407V35.7016ZM45.8368 40.1315L45.3392 38.5313C48.0237 37.0535 50.8006 35.7498 53.6524 34.6283L54.5306 37.7409C51.9669 38.1214 49.4514 38.7756 47.0272 39.6924L45.8368 40.1315ZM65.1857 41.2829L64.8051 38.2873C67.7323 38.4044 71.0986 38.7167 74.904 39.2631L75.2358 42.8538C71.9324 42.066 68.5719 41.5407 65.1857 41.2829ZM75.9188 39.3314C79.5778 39.8485 83.4222 40.5023 86.7983 41.0975L87.1885 46.7665L84.115 45.5664C81.5697 44.5607 78.9623 43.7198 76.3091 43.0489L75.9188 39.3314ZM98.5754 50.7963L98.2924 43.1075C102.039 43.7222 105.269 44.2003 108.352 44.5809L109.328 53.7235C105.845 53.0015 102.322 52.0452 98.5559 50.8451L98.5754 50.7963ZM119.759 45.6444C122.969 45.8493 126.12 45.9664 129.126 45.9859L130.121 56.036C127.105 56.0785 124.088 55.9547 121.086 55.6652L119.759 45.6444ZM131.78 61.988L131.253 56.9532C135.473 56.9074 139.676 56.3903 143.781 55.4115L144.357 60.1634C140.245 61.2606 136.023 61.889 131.77 62.0368L131.78 61.988ZM143.567 45.4005C145.989 45.1543 148.396 44.7765 150.777 44.2686L151.49 51.2159L151.275 51.3525C149.215 52.6242 146.975 53.5781 144.63 54.1821L143.567 45.4005ZM147.635 13.972L147.509 14.0208L147.411 14.1086C145.162 15.654 142.758 16.962 140.239 18.0115L139.322 10.5081C142.845 8.55662 145.596 6.81005 146.816 5.98067L147.635 13.972ZM138.395 11.0447L139.303 18.4506C135.535 19.9745 131.607 21.0678 127.594 21.7096L126.969 15.7478C130.936 14.5691 134.774 12.9934 138.425 11.0447H138.395ZM125.984 16.0015L126.589 21.8559C123.784 22.2612 120.953 22.4634 118.119 22.4609H116.548L115.778 16.8016C116.558 16.8601 117.339 16.9285 118.1 16.9577C120.756 17.0089 123.406 16.6703 125.964 15.9527L125.984 16.0015ZM114.763 16.704L115.553 22.4219C112.148 22.3243 109.221 22.0218 106.967 21.7388L106.352 15.7185L107.191 15.8259C109.796 16.1186 112.314 16.4308 114.743 16.6552L114.763 16.704ZM96.2239 14.6355L96.4288 20.363C93.0566 20.0113 89.6583 19.9851 86.2811 20.285L85.8713 14.4306C89.3317 14.2596 92.7995 14.3117 96.2531 14.5867L96.2239 14.6355ZM72.1524 16.6455L72.7379 16.4894L73.3331 22.7926C72.4744 23.0268 71.606 23.2805 70.6986 23.5635C68.0153 24.4026 65.4881 25.2222 63.1854 26.0223L62.4731 20.5192C65.5727 18.8962 68.8246 17.5824 72.1817 16.5967L72.1524 16.6455ZM43.0364 34.4039L43.3194 35.3016C42.0412 36.1407 40.8117 37.0286 39.6408 37.8873C40.5288 36.8823 41.6704 35.7016 43.0364 34.4039ZM37.5137 40.9901C37.5326 40.8505 37.5755 40.7151 37.6406 40.5901L38.6163 39.8388C40.1775 38.6679 41.8363 37.4385 43.5828 36.2773L44.1292 38.0727C42.4607 39.0484 40.8703 40.0242 39.4067 40.9999C39.2115 41.1365 39.0164 41.2633 38.8407 41.3999C38.3795 41.4317 37.9188 41.3301 37.5137 41.1072C37.5035 41.0894 37.4981 41.0692 37.4981 41.0487C37.4981 41.0281 37.5035 41.0079 37.5137 40.9901ZM53.6915 40.6096C51.096 40.6096 48.6762 40.7462 46.5393 40.9121L47.3492 40.6096C49.7558 39.7157 52.2519 39.0844 54.7941 38.7264L55.3307 40.6779L53.6915 40.6096ZM65.7809 42.3171H65.8394C69.0392 42.5848 72.2133 43.1002 75.3333 43.8588L75.5578 46.2103C72.3845 44.7069 69.1189 43.4066 65.7809 42.3171ZM76.5823 46.6884L76.3481 44.132C78.8605 44.7753 81.3306 45.5737 83.7442 46.5226L87.169 47.8593H87.2373L87.5203 51.8891C85.8615 51.1085 84.2321 50.3182 82.6416 49.5376C80.5438 48.5619 78.5338 47.5959 76.5823 46.6884ZM98.7803 56.8556L98.5949 51.8891C102.381 53.0698 105.913 54.0358 109.387 54.8163L109.962 60.3293C107.222 59.7551 104.523 58.9989 101.883 58.0656C100.849 57.6655 99.8048 57.2654 98.7803 56.8556ZM121.983 61.9392L121.252 56.6605C123.906 56.9044 126.511 57.0215 129.155 57.0215H130.248L130.785 62.0856C127.85 62.192 124.912 62.1431 121.983 61.9392ZM145.303 59.8707L144.738 55.1578C147.135 54.5292 149.434 53.5703 151.568 52.3087L151.978 56.2702C150.061 57.9696 147.776 59.202 145.303 59.8707Z" fill="#39B54A"/>
<path d="M146.318 2L157.5 101.652" stroke="#263238" stroke-width="3" stroke-linecap="round" stroke-linejoin="round"/>
<path d="M159.266 85.3963C159.266 85.3963 165.121 83.8156 165.804 85.6208C166.487 87.4259 166.028 92.3826 165.804 93.0656C165.579 93.7487 162.877 94.6463 162.877 93.2901C162.877 91.9338 161.345 88.7821 161.345 88.7821L159.266 85.3963Z" stroke="#263238" stroke-linecap="round" stroke-linejoin="round"/>
<path d="M172.341 139.959C173.293 138.551 173.892 136.935 174.087 135.247C174.282 133.559 174.068 131.848 173.463 130.26C171.434 124.63 162.867 114.932 159.715 109.292C156.564 103.652 158.583 104.111 158.583 104.111C158.583 104.111 161.511 102.754 161.745 101.183C161.979 99.6125 162.867 89.6795 162.867 88.0988C162.867 86.5182 155.207 83.3665 152.046 82.9177C148.884 82.4688 150.016 85.396 150.924 92.1579C151.831 98.9198 153.178 117.859 154.3 124.406C155.422 130.953 157.012 137.93 162.867 141.306C168.721 144.682 172.341 139.959 172.341 139.959Z" fill="white" stroke="#263238" stroke-linecap="round" stroke-linejoin="round"/>
<path d="M150.699 88.5575C150.699 88.5575 152.27 87.2012 153.402 87.2012C154.534 87.2012 162.184 90.1284 162.184 90.1284" stroke="#263238" stroke-linecap="round" stroke-linejoin="round"/>
<path d="M152.27 94.4118C153.336 93.8177 154.474 93.3651 155.656 93.0653C157.012 92.8409 161.745 93.7386 161.745 93.7386" stroke="#263238" stroke-linecap="round" stroke-linejoin="round"/>
<path d="M154.983 97.3492C155.302 97.0222 155.69 96.771 156.119 96.6139C156.548 96.4569 157.007 96.398 157.461 96.4417C158.854 96.5287 160.223 96.8349 161.52 97.3492" stroke="#263238" stroke-linecap="round" stroke-linejoin="round"/>
<path d="M159.266 100.726L154.983 102.531" stroke="#263238" stroke-linecap="round" stroke-linejoin="round"/>
<path d="M157.705 102.218L166.389 180.784" stroke="#263238" stroke-width="3" stroke-linecap="round" stroke-linejoin="round"/>
<path d="M173.912 145.14C173.912 145.14 170.985 141.306 168.058 137.93C165.13 134.554 161.062 138.154 161.062 138.154C161.062 138.154 156.554 138.827 156.554 140.408C156.554 141.989 158.134 144.692 158.134 144.692C158.134 144.692 157.461 148.975 159.266 150.546C161.071 152.117 162.193 152.576 163.316 152.576C164.438 152.576 216.757 153.473 221.04 153.249C225.324 153.024 235.676 154.83 239.296 149.863C242.916 144.897 240.653 137.471 232.983 136.788C225.314 136.105 194.207 145.365 173.912 145.14Z" fill="white" stroke="#263238" stroke-linecap="round" stroke-linejoin="round"/>
</svg>
