<svg width="383" height="356" viewBox="0 0 383 356" fill="none" xmlns="http://www.w3.org/2000/svg">
<path d="M7.05766 283.511C9.46268 283.335 14.1284 280.729 14.1364 280.729C14.1444 280.729 11.4829 278.164 11.2905 278.02C9.10192 276.416 3.92312 274.532 1.43794 276.304C1.03274 276.609 0.696407 276.996 0.450888 277.44C0.205369 277.884 0.0561822 278.374 0.0130625 278.88C-0.0300573 279.385 0.033859 279.894 0.200641 280.373C0.367423 280.852 0.633322 281.29 0.980987 281.659C2.39995 283.287 5.02943 283.655 7.05766 283.511Z" fill="#263238"/>
<path d="M15.9322 296.378C18.0968 295.616 21.6802 292.161 21.9608 291.88C23.9333 293.937 26.0411 295.86 28.27 297.636C29.5607 298.67 30.8914 299.68 32.2783 300.674C31.5889 300.314 30.9796 299.993 30.8914 299.961C28.3501 298.967 22.8747 298.542 20.9267 300.907C20.6087 301.307 20.3795 301.771 20.2542 302.266C20.1289 302.762 20.1103 303.278 20.1998 303.782C20.2892 304.285 20.4846 304.764 20.773 305.186C21.0614 305.608 21.4362 305.964 21.8726 306.23C23.6684 307.425 26.3059 307.088 28.2219 306.406C30.1379 305.725 33.2884 302.839 34.1061 302.061C34.6272 302.438 35.1403 302.823 35.6614 303.192C38.1706 304.987 40.6879 306.767 43.1009 308.587C43.9507 309.228 44.7604 309.894 45.5781 310.551C44.9688 310.23 44.4557 309.966 44.3756 309.934C41.8343 308.94 36.3588 308.515 34.4108 310.88C34.101 311.282 33.8794 311.745 33.7603 312.238C33.6413 312.731 33.6274 313.244 33.7197 313.743C33.8119 314.243 34.0082 314.717 34.2958 315.135C34.5834 315.553 34.9558 315.906 35.3888 316.171C37.1846 317.357 39.8221 317.021 41.7381 316.347C43.6541 315.674 46.5 313.052 47.47 312.138C48.2717 312.836 49.0734 313.533 49.875 314.255C50.3801 314.752 50.9012 315.201 51.3822 315.73L52.8332 317.269C53.715 318.271 54.637 319.305 55.4707 320.315C56.0639 321.013 56.6091 321.678 57.1622 322.36C56.3606 321.71 54.653 320.476 54.5087 320.388C52.1037 319.025 46.7886 317.766 44.5199 319.818C44.1525 320.168 43.8629 320.591 43.67 321.06C43.4771 321.529 43.3853 322.033 43.4004 322.54C43.4155 323.047 43.5373 323.545 43.7578 324.001C43.9784 324.458 44.2926 324.863 44.6802 325.19C46.2835 326.633 48.9371 326.705 50.9332 326.328C53.1378 325.903 57.058 323.161 57.547 322.817C58.4529 323.939 59.3348 325.045 60.1444 326.096C62.333 328.917 64.1528 331.427 65.5557 333.455L67.3515 332.509C65.8604 330.457 63.9203 327.875 61.5634 324.973C60.6415 323.827 59.6314 322.624 58.5892 321.398C59.5872 320.228 60.5135 318.999 61.363 317.718C63.5355 318.52 68.0008 318.367 68.578 318.351C68.7223 319.794 68.8426 321.189 68.9388 322.52C69.1953 325.975 69.3236 329.006 69.3957 331.435L71.3438 330.4C71.2235 328.124 71.0392 325.414 70.7425 322.384C70.6063 320.917 70.4299 319.361 70.2295 317.758C70.7906 317.598 75.4003 316.251 77.0998 314.792C78.6551 313.469 80.2584 311.353 80.1301 309.18C80.1167 308.673 79.9966 308.174 79.7776 307.716C79.5587 307.259 79.2459 306.852 78.8595 306.523C78.4731 306.194 78.0218 305.95 77.5349 305.807C77.048 305.664 76.5365 305.625 76.0336 305.693C73.0273 306.182 70.6463 311.144 70.2375 313.838C70.2375 313.998 70.1413 315.754 70.1172 316.86C70.0371 316.211 69.9569 315.578 69.8687 314.904C69.6843 313.573 69.4679 312.251 69.2434 310.832C69.1098 310.153 68.9735 309.463 68.8346 308.763C68.7143 308.066 68.4979 307.352 68.3295 306.639C67.9126 304.987 67.3996 303.344 66.8544 301.693C68.0169 301.54 72.1375 300.891 73.8771 299.841C75.6167 298.791 77.5167 296.915 77.7171 294.774C77.7801 294.271 77.7366 293.76 77.5895 293.274C77.4424 292.788 77.195 292.339 76.8632 291.955C76.5315 291.571 76.1228 291.261 75.6636 291.045C75.2044 290.829 74.705 290.712 74.1978 290.702C71.1514 290.702 68.0489 295.279 67.2312 297.917C67.1831 298.085 66.8063 300.017 66.622 301.083C66.2853 300.089 65.9566 299.103 65.5798 298.117C64.5055 295.263 63.3191 292.409 62.1566 289.555L61.1065 286.934C61.5233 286.878 66.4376 286.244 68.3856 285.042C70.1172 283.968 72.0252 282.116 72.2176 279.975C72.2929 279.467 72.2591 278.949 72.1185 278.456C71.9779 277.962 71.7338 277.504 71.4024 277.111C71.071 276.719 70.6598 276.402 70.1963 276.182C69.7328 275.961 69.2276 275.841 68.7143 275.831C65.66 275.831 62.5575 280.408 61.7478 283.006C61.6837 283.206 61.1546 285.988 61.0503 286.701C60.2487 284.777 59.5352 282.845 58.8778 280.921C57.9784 278.32 57.2474 275.664 56.6892 272.969C56.8816 272.969 62.0204 272.303 64.0165 271.069C65.7401 269.995 67.6481 268.143 67.8485 266.002C67.9127 265.499 67.8704 264.988 67.7242 264.503C67.5781 264.017 67.3315 263.568 67.0003 263.184C66.6692 262.799 66.2609 262.489 65.8021 262.273C65.3433 262.057 64.8442 261.94 64.3372 261.93C61.2828 261.93 58.1804 266.507 57.3707 269.105C57.3065 269.313 56.7293 272.311 56.6652 272.856C56.6652 272.696 56.585 272.544 56.553 272.383C56.0677 269.663 55.8236 266.905 55.8234 264.142C55.8234 262.619 55.8715 261.16 55.9677 259.741C56.9378 259.741 61.363 259.581 63.287 258.667C65.211 257.753 67.2152 256.158 67.6561 254.049C67.7738 253.556 67.7868 253.044 67.6941 252.545C67.6014 252.047 67.4051 251.574 67.118 251.156C66.8309 250.738 66.4593 250.385 66.0273 250.12C65.5952 249.854 65.1123 249.683 64.6098 249.616C61.5714 249.311 57.9879 253.488 56.8897 255.989C56.8335 256.126 56.3766 257.593 56.088 258.627C56.1441 257.993 56.1842 257.328 56.2483 256.719C56.4808 254.418 56.8416 252.334 57.1702 250.482C57.3626 249.432 57.5631 248.494 57.7555 247.612C58.7014 247.091 62.4613 244.966 63.7199 243.299C64.9785 241.631 66.0608 239.29 65.4675 237.19C65.3458 236.695 65.1207 236.232 64.8072 235.83C64.4937 235.428 64.0988 235.097 63.6484 234.859C63.198 234.62 62.7023 234.48 62.1937 234.446C61.6852 234.413 61.1753 234.487 60.6976 234.665C57.8597 235.787 56.6091 241.15 56.7854 243.868C56.7854 244.109 57.4669 247.756 57.515 247.724H57.5711C57.3707 248.566 57.1622 249.472 56.9538 250.474C56.585 252.318 56.1521 254.402 55.8956 256.703C55.5603 259.177 55.3703 261.67 55.3264 264.166C55.2648 266.965 55.4526 269.763 55.8876 272.528C55.8876 272.528 55.8876 272.592 55.8876 272.624C55.4867 271.822 54.2842 269.626 54.172 269.473C52.5686 267.245 48.2637 263.862 45.3536 264.768C44.8745 264.932 44.4354 265.196 44.0648 265.542C43.6942 265.887 43.4003 266.307 43.2023 266.773C43.0042 267.24 42.9064 267.742 42.9152 268.249C42.924 268.756 43.0391 269.255 43.2532 269.714C44.095 271.694 46.4599 272.873 48.4561 273.37C50.6847 273.923 55.5749 273.017 55.9677 272.945C56.4761 275.746 57.1725 278.51 58.0521 281.218C58.5571 282.821 59.1103 284.377 59.6554 285.948C59.2867 285.266 58.95 284.665 58.8938 284.585C57.2905 282.356 52.9855 278.973 50.0754 279.879C49.5963 280.044 49.1572 280.308 48.7866 280.653C48.416 280.999 48.1222 281.418 47.9241 281.885C47.7261 282.351 47.6283 282.854 47.6371 283.36C47.6458 283.867 47.761 284.366 47.9751 284.825C48.8168 286.814 51.1818 287.984 53.1699 288.481C55.158 288.978 59.3668 288.297 60.4731 288.096C60.7056 288.698 60.9221 289.299 61.1546 289.9C62.2528 292.786 63.3672 295.656 64.3612 298.502C64.714 299.504 65.0266 300.506 65.3473 301.508C65.0186 300.907 64.73 300.402 64.6819 300.33C63.0786 298.101 58.7656 294.718 55.8635 295.624C55.3837 295.788 54.9438 296.051 54.5723 296.396C54.2008 296.741 53.9061 297.161 53.7072 297.627C53.5084 298.094 53.4099 298.597 53.4181 299.104C53.4264 299.611 53.5412 300.111 53.7551 300.57C54.6049 302.55 56.9618 303.729 58.958 304.226C60.9541 304.723 64.746 304.098 66.0608 303.873C66.3574 304.907 66.654 305.941 66.8625 306.96C67.0068 307.657 67.1992 308.322 67.3114 309.028C67.4236 309.733 67.5519 310.423 67.6721 311.104C67.8485 312.435 68.0489 313.806 68.1932 315.113C68.2974 316.018 68.3856 316.884 68.4738 317.75C68.1291 316.748 67.4236 314.8 67.3435 314.64C66.2036 312.539 64.5484 310.762 62.5334 309.477C62.4147 309.238 62.2752 309.01 62.1166 308.795C61.8255 308.38 61.4503 308.03 61.0153 307.769C60.5803 307.508 60.0953 307.342 59.5917 307.281C59.0882 307.219 58.5774 307.265 58.0925 307.414C57.6076 307.563 57.1596 307.812 56.7774 308.146C54.5327 310.214 55.2943 315.666 56.4327 318.143C56.5049 318.287 57.4107 319.786 58.036 320.724C57.6031 320.227 57.2344 319.738 56.7454 319.233C55.8635 318.223 54.9496 317.237 53.9796 316.179L52.4965 314.672C52.0155 314.167 51.4383 313.686 50.8932 313.181C49.6345 312.042 48.3037 310.944 46.9409 309.878C47.8227 309.076 50.9493 306.31 51.7509 304.45C52.5526 302.59 53.1699 300.009 52.1518 298.109C51.9324 297.651 51.6185 297.244 51.2308 296.915C50.8432 296.586 50.3904 296.343 49.9022 296.201C49.4139 296.06 48.9013 296.023 48.3979 296.094C47.8945 296.164 47.4116 296.34 46.981 296.61C44.4477 298.318 44.3675 303.825 45.1211 306.447C45.1692 306.607 45.9228 308.427 46.3557 309.413C45.554 308.779 44.7523 308.138 43.8545 307.521C41.3853 305.733 38.82 304.001 36.2787 302.27L33.9538 300.666C34.2745 300.394 38.0183 297.155 38.9803 295.055C39.8301 293.203 40.3993 290.613 39.3811 288.714C39.1563 288.264 38.8399 287.867 38.4521 287.547C38.0644 287.227 37.614 286.992 37.1299 286.857C36.6459 286.722 36.1388 286.689 35.6415 286.762C35.1442 286.835 34.6676 287.011 34.2424 287.279C31.7091 288.978 31.629 294.494 32.3906 297.107C32.4467 297.299 33.537 299.921 33.8416 300.57C32.142 299.384 30.4585 298.165 28.8392 296.947C26.6511 295.276 24.5731 293.466 22.6182 291.527C22.7625 291.399 26.6987 288.032 27.6767 285.916C28.5265 284.072 29.1037 281.474 28.0856 279.574C27.8609 279.12 27.543 278.717 27.1526 278.393C26.7622 278.07 26.308 277.832 25.8196 277.695C25.3312 277.558 24.8194 277.525 24.3176 277.599C23.8157 277.673 23.3351 277.852 22.9068 278.123C20.3735 279.831 20.2933 285.339 21.0549 287.952C21.111 288.16 22.2895 290.974 22.538 291.463L22.1853 291.135C20.2768 289.137 18.5516 286.972 17.0305 284.665C16.1727 283.398 15.4272 282.148 14.7217 280.913C15.5234 280.36 19.1309 277.795 20.2292 275.975C21.3275 274.155 22.1292 271.718 21.3275 269.722C21.155 269.245 20.884 268.809 20.5321 268.443C20.1801 268.078 19.7552 267.79 19.2848 267.6C18.8145 267.409 18.3093 267.32 17.8021 267.337C17.2949 267.355 16.7971 267.479 16.3411 267.702C13.6395 269.121 12.958 274.588 13.423 277.274C13.423 277.418 13.8639 278.877 14.2247 279.927C13.92 279.366 13.5914 278.789 13.3108 278.244C12.2365 276.199 11.3787 274.235 10.6332 272.544C10.2243 271.558 9.83152 270.66 9.54292 269.818C10.04 268.872 12.004 265.008 12.1323 262.94C12.2606 260.871 11.7956 258.266 10.1923 256.863C9.81927 256.519 9.37807 256.258 8.89736 256.096C8.41664 255.933 7.90718 255.874 7.40209 255.922C6.897 255.969 6.40759 256.123 5.96567 256.372C5.52376 256.621 5.13923 256.961 4.8371 257.368C3.08946 259.869 5.00545 265.032 6.6569 267.205C6.8012 267.397 9.36655 270.067 9.3906 270.019V269.962C9.68722 270.764 10.0159 271.654 10.3847 272.6C11.0982 274.34 11.9159 276.304 12.942 278.38C14.0339 280.63 15.2572 282.815 16.6056 284.922C18.0969 287.288 19.7951 289.517 21.6802 291.584L21.7524 291.656C20.9507 291.207 18.7621 290.052 18.5457 289.972C16.0044 288.978 10.529 288.553 8.58893 290.918C8.27897 291.319 8.05696 291.781 7.93735 292.273C7.81774 292.766 7.80322 293.278 7.89474 293.776C7.98626 294.275 8.18175 294.748 8.46849 295.166C8.75524 295.584 9.12679 295.937 9.55895 296.201C11.3787 297.412 14.0082 297.059 15.9322 296.378Z" fill="#263238"/>
<path d="M55.5667 259.3C55.6228 259.3 54.7651 255.692 54.6849 255.468C53.763 252.903 50.4681 248.493 47.4137 248.598C46.9082 248.631 46.4153 248.77 45.9668 249.005C45.5183 249.241 45.1243 249.568 44.81 249.965C44.4957 250.363 44.2683 250.822 44.1423 251.312C44.0164 251.803 43.9947 252.315 44.0788 252.814C44.3754 254.955 46.3555 256.718 48.1352 257.713C50.2196 258.883 55.5587 259.3 55.5667 259.3Z" fill="#263238"/>
<path d="M375.939 283.511C373.534 283.335 368.868 280.729 368.868 280.729C368.868 280.729 371.522 278.164 371.706 278.02C373.895 276.416 379.082 274.532 381.567 276.304C381.971 276.61 382.307 276.997 382.552 277.441C382.797 277.885 382.945 278.376 382.987 278.881C383.03 279.387 382.965 279.895 382.798 280.374C382.63 280.852 382.364 281.29 382.016 281.659C380.565 283.287 377.967 283.655 375.939 283.511Z" fill="#263238"/>
<path d="M367.072 296.377C364.908 295.616 361.324 292.161 361.036 291.88C359.065 293.939 356.957 295.862 354.727 297.636C353.436 298.67 352.105 299.68 350.758 300.674C351.44 300.314 352.057 299.993 352.145 299.961C354.687 298.967 360.162 298.542 362.102 300.907C362.412 301.308 362.633 301.77 362.752 302.263C362.871 302.756 362.885 303.268 362.793 303.767C362.7 304.265 362.504 304.739 362.217 305.156C361.929 305.574 361.557 305.926 361.124 306.19C359.328 307.384 356.699 307.048 354.775 306.366C352.851 305.685 349.708 302.799 348.899 302.021L347.335 303.152C344.826 304.947 342.317 306.727 339.904 308.547C339.054 309.188 338.236 309.854 337.419 310.511C338.028 310.19 338.541 309.926 338.629 309.894C341.162 308.9 346.646 308.475 348.586 310.84C348.896 311.242 349.117 311.704 349.236 312.198C349.355 312.691 349.369 313.204 349.277 313.703C349.185 314.202 348.988 314.676 348.701 315.095C348.413 315.513 348.041 315.866 347.608 316.131C345.812 317.317 343.175 316.98 341.259 316.307C339.343 315.634 336.497 313.012 335.527 312.098C334.725 312.796 333.923 313.493 333.122 314.215C332.609 314.712 332.087 315.161 331.606 315.69C331.125 316.219 330.636 316.716 330.163 317.229C329.274 318.231 328.36 319.265 327.518 320.275C326.933 320.973 326.38 321.638 325.826 322.32C326.668 321.67 328.336 320.436 328.488 320.347C330.845 318.985 336.208 317.726 338.469 319.778C338.836 320.128 339.126 320.551 339.319 321.02C339.512 321.488 339.603 321.993 339.588 322.5C339.573 323.006 339.451 323.504 339.231 323.961C339.01 324.418 338.696 324.822 338.308 325.149C336.705 326.592 334.06 326.665 332.055 326.288C329.859 325.863 325.939 323.121 325.45 322.776C324.536 323.899 323.662 325.005 322.844 326.055C320.664 328.877 318.836 331.386 317.433 333.415L315.629 332.469C317.12 330.416 319.068 327.835 321.417 324.933C322.339 323.787 323.349 322.584 324.399 321.357C323.401 320.187 322.472 318.958 321.618 317.678C319.445 318.479 314.98 318.327 314.403 318.311C314.266 319.754 314.138 321.149 314.042 322.48C313.785 325.935 313.657 328.965 313.593 331.394L311.637 330.36C311.757 328.084 311.949 325.374 312.238 322.344C312.382 320.876 312.559 319.321 312.751 317.718C312.19 317.558 307.588 316.211 305.881 314.752C304.334 313.429 302.73 311.313 302.859 309.14C302.871 308.633 302.99 308.134 303.208 307.677C303.426 307.219 303.738 306.812 304.124 306.483C304.51 306.154 304.96 305.91 305.447 305.767C305.933 305.624 306.445 305.585 306.947 305.653C309.961 306.142 312.334 311.104 312.743 313.798C312.743 313.958 312.839 315.714 312.863 316.82C312.952 316.171 313.024 315.537 313.12 314.864C313.296 313.533 313.513 312.21 313.745 310.791C313.873 310.11 314.01 309.421 314.146 308.723C314.282 308.026 314.483 307.312 314.651 306.599C315.076 304.947 315.581 303.304 316.126 301.652C314.964 301.5 310.843 300.851 309.104 299.801C307.364 298.75 305.464 296.874 305.272 294.734C305.207 294.231 305.25 293.72 305.396 293.234C305.542 292.749 305.789 292.299 306.12 291.915C306.451 291.531 306.859 291.221 307.318 291.005C307.777 290.789 308.276 290.672 308.783 290.661C311.837 290.661 314.94 295.239 315.749 297.877C315.806 298.045 316.174 299.977 316.359 301.043C316.695 300.049 317.032 299.063 317.401 298.077C318.483 295.223 319.662 292.369 320.824 289.515C321.185 288.641 321.529 287.767 321.874 286.894C321.465 286.838 316.543 286.204 314.595 285.002C312.871 283.927 310.963 282.076 310.763 279.935C310.699 279.432 310.741 278.921 310.887 278.436C311.033 277.95 311.28 277.5 311.611 277.116C311.942 276.732 312.351 276.422 312.809 276.206C313.268 275.99 313.767 275.873 314.274 275.863C317.329 275.863 320.431 280.44 321.249 283.038C321.305 283.238 321.842 286.02 321.938 286.733C322.74 284.809 323.453 282.877 324.119 280.953C325.021 278.352 325.755 275.696 326.315 273.001C326.123 273.001 320.992 272.335 318.996 271.101C317.265 270.026 315.357 268.175 315.156 266.034C315.093 265.531 315.137 265.02 315.284 264.534C315.431 264.048 315.678 263.599 316.01 263.215C316.342 262.831 316.751 262.521 317.21 262.305C317.669 262.089 318.168 261.972 318.676 261.962C321.73 261.962 324.824 266.539 325.642 269.137C325.706 269.345 326.275 272.343 326.339 272.888C326.339 272.728 326.428 272.576 326.452 272.415C326.941 269.696 327.185 266.938 327.181 264.174C327.181 262.651 327.133 261.192 327.037 259.773C326.067 259.773 321.642 259.613 319.726 258.699C317.81 257.785 315.79 256.19 315.357 254.081C315.238 253.588 315.224 253.075 315.316 252.576C315.408 252.077 315.604 251.604 315.891 251.185C316.179 250.767 316.551 250.414 316.984 250.149C317.416 249.884 317.9 249.714 318.403 249.648C321.441 249.343 325.025 253.52 326.115 256.021C326.179 256.158 326.628 257.625 326.917 258.659C326.861 258.025 326.821 257.36 326.756 256.751C326.524 254.45 326.171 252.366 325.834 250.514C325.642 249.464 325.442 248.526 325.249 247.644C324.311 247.123 320.551 244.998 319.293 243.331C318.034 241.663 316.952 239.322 317.537 237.222C317.659 236.73 317.884 236.269 318.196 235.87C318.508 235.47 318.9 235.14 319.348 234.902C319.795 234.664 320.288 234.523 320.793 234.487C321.299 234.452 321.807 234.523 322.283 234.697C325.121 235.819 326.372 241.182 326.195 243.9C326.195 244.14 325.514 247.788 325.466 247.756H325.41C325.61 248.598 325.826 249.504 326.035 250.506C326.404 252.35 326.837 254.434 327.093 256.735C327.425 259.21 327.613 261.702 327.654 264.198C327.719 266.996 327.534 269.795 327.101 272.56V272.656C327.502 271.854 328.704 269.658 328.817 269.505C330.42 267.277 334.725 263.894 337.635 264.8C338.115 264.963 338.555 265.226 338.926 265.572C339.298 265.917 339.592 266.337 339.79 266.804C339.988 267.27 340.086 267.774 340.076 268.281C340.067 268.788 339.951 269.287 339.735 269.746C338.894 271.726 336.529 272.904 334.541 273.401C332.312 273.955 327.414 273.049 327.021 272.977C326.513 275.778 325.816 278.542 324.937 281.25C324.432 282.853 323.878 284.408 323.333 285.98C323.702 285.298 324.039 284.697 324.095 284.617C325.698 282.388 330.011 279.005 332.913 279.911C333.393 280.075 333.833 280.338 334.204 280.683C334.576 281.029 334.871 281.448 335.07 281.914C335.268 282.381 335.367 282.884 335.359 283.391C335.35 283.898 335.236 284.398 335.022 284.857C334.172 286.846 331.815 288.016 329.819 288.513C327.823 289.01 323.622 288.329 322.516 288.128L321.842 289.932C320.736 292.818 319.621 295.688 318.635 298.534C318.283 299.536 317.97 300.538 317.657 301.54C317.986 300.939 318.267 300.434 318.315 300.362C319.918 298.133 324.231 294.75 327.133 295.656C327.612 295.821 328.051 296.085 328.422 296.43C328.793 296.776 329.086 297.195 329.284 297.661C329.483 298.128 329.58 298.631 329.572 299.137C329.563 299.644 329.448 300.143 329.234 300.602C328.384 302.582 326.027 303.761 324.031 304.258C322.035 304.755 318.243 304.13 316.928 303.905C316.639 304.939 316.343 305.973 316.126 306.992C315.982 307.689 315.79 308.354 315.685 309.06C315.581 309.765 315.445 310.455 315.325 311.136C315.14 312.467 314.948 313.838 314.803 315.145C314.691 316.05 314.603 316.916 314.515 317.782C314.86 316.78 315.573 314.832 315.645 314.672C316.769 312.545 318.42 310.743 320.439 309.437C320.552 309.194 320.692 308.966 320.856 308.755C321.146 308.34 321.521 307.99 321.955 307.73C322.389 307.469 322.874 307.302 323.377 307.241C323.88 307.18 324.39 307.225 324.874 307.374C325.358 307.523 325.806 307.772 326.187 308.106C328.432 310.174 327.678 315.626 326.532 318.103C326.46 318.247 325.554 319.746 324.929 320.684C325.361 320.187 325.778 319.698 326.227 319.193C327.109 318.183 328.015 317.197 328.993 316.139L330.468 314.631C330.957 314.126 331.534 313.645 332.071 313.14C333.33 312.002 334.661 310.904 336.032 309.837C335.15 309.036 332.023 306.27 331.222 304.41C330.42 302.55 329.795 299.969 330.813 298.069C331.037 297.613 331.354 297.21 331.744 296.886C332.134 296.561 332.588 296.322 333.077 296.184C333.565 296.047 334.077 296.014 334.58 296.087C335.082 296.16 335.563 296.338 335.992 296.61C338.525 298.317 338.597 303.825 337.843 306.446C337.795 306.607 337.042 308.427 336.609 309.413C337.411 308.779 338.252 308.138 339.11 307.521C341.587 305.733 344.145 304.001 346.694 302.27L349.011 300.666C348.698 300.394 344.946 297.155 343.984 295.055C343.135 293.203 342.565 290.613 343.583 288.713C343.807 288.258 344.125 287.854 344.515 287.53C344.905 287.205 345.36 286.967 345.848 286.83C346.337 286.693 346.849 286.661 347.352 286.735C347.854 286.81 348.334 286.989 348.762 287.262C351.288 288.962 351.368 294.477 350.614 297.091C350.558 297.283 349.468 299.905 349.155 300.554C350.863 299.368 352.546 298.149 354.158 296.931C356.347 295.262 358.425 293.452 360.379 291.511C360.234 291.383 356.306 288.016 355.32 285.9C354.47 284.056 353.901 281.458 354.919 279.558C355.143 279.104 355.46 278.702 355.85 278.378C356.239 278.054 356.693 277.816 357.181 277.679C357.668 277.542 358.18 277.509 358.681 277.583C359.182 277.657 359.662 277.836 360.09 278.107C362.623 279.815 362.703 285.322 361.942 287.936C361.886 288.144 360.715 290.958 360.467 291.447L360.819 291.118C362.723 289.118 364.445 286.953 365.966 284.649C366.824 283.382 367.57 282.132 368.275 280.897C367.473 280.344 363.866 277.779 362.775 275.959C361.685 274.139 360.876 271.702 361.677 269.706C361.85 269.229 362.121 268.793 362.473 268.427C362.825 268.062 363.25 267.774 363.72 267.584C364.19 267.393 364.695 267.304 365.203 267.321C365.71 267.339 366.208 267.463 366.664 267.686C369.365 269.105 370.047 274.572 369.582 277.258C369.582 277.402 369.133 278.861 368.78 279.911C369.085 279.35 369.413 278.773 369.702 278.228C370.776 276.183 371.626 274.219 372.372 272.528C372.788 271.542 373.173 270.644 373.47 269.802C372.965 268.856 371.009 264.992 370.872 262.924C370.736 260.855 371.153 258.266 372.78 256.863C373.153 256.519 373.595 256.258 374.075 256.095C374.556 255.933 375.065 255.874 375.571 255.922C376.076 255.969 376.565 256.123 377.007 256.372C377.449 256.621 377.833 256.96 378.136 257.368C379.883 259.869 377.967 265.032 376.324 267.205C376.179 267.397 373.606 270.067 373.582 270.018V269.962C373.293 270.764 372.965 271.654 372.588 272.6C371.882 274.339 371.065 276.304 370.031 278.38C368.944 280.63 367.726 282.814 366.383 284.922C364.897 287.292 363.199 289.521 361.308 291.583L361.236 291.656C362.038 291.207 364.227 290.052 364.443 289.972C366.976 288.978 372.46 288.553 374.4 290.918C374.709 291.319 374.931 291.782 375.05 292.274C375.169 292.767 375.183 293.279 375.09 293.778C374.998 294.276 374.802 294.75 374.514 295.167C374.227 295.585 373.854 295.937 373.422 296.201C371.626 297.412 368.988 297.059 367.072 296.377Z" fill="#263238"/>
<path d="M327.438 259.3C327.382 259.3 328.24 255.692 328.312 255.468C329.234 252.903 332.537 248.493 335.583 248.598C336.089 248.63 336.582 248.768 337.032 249.003C337.481 249.238 337.875 249.565 338.19 249.963C338.504 250.361 338.732 250.82 338.857 251.311C338.982 251.802 339.003 252.315 338.918 252.814C338.629 254.955 336.641 256.718 334.869 257.713C332.785 258.883 327.438 259.3 327.438 259.3Z" fill="#263238"/>
<path d="M65.6919 143.972L66.3573 144.413" stroke="#263238" stroke-miterlimit="10"/>
<path d="M67.7041 145.287L190.544 225.158" stroke="#263238" stroke-miterlimit="10" stroke-dasharray="2 2"/>
<path d="M191.218 225.598L191.883 226.031L191.45 225.365" stroke="#263238" stroke-miterlimit="10"/>
<path d="M190.584 224.027L85.2126 62.0088" stroke="#263238" stroke-miterlimit="10" stroke-dasharray="1.98 1.98"/>
<path d="M84.7718 61.3433L84.3389 60.6699" stroke="#263238" stroke-miterlimit="10"/>
<path d="M318.082 143.972L317.417 144.413" stroke="#263238" stroke-miterlimit="10"/>
<path d="M316.07 145.287L193.23 225.158" stroke="#263238" stroke-miterlimit="10" stroke-dasharray="2 2"/>
<path d="M192.557 225.598L191.883 226.031L192.324 225.365" stroke="#263238" stroke-miterlimit="10"/>
<path d="M193.19 224.027L298.562 62.0088" stroke="#263238" stroke-miterlimit="10" stroke-dasharray="1.98 1.98"/>
<path d="M298.995 61.3433L299.435 60.6699" stroke="#263238" stroke-miterlimit="10"/>
<path d="M191.883 35.8027V36.6044" stroke="#263238" stroke-miterlimit="10"/>
<path d="M191.883 38.2158V224.428" stroke="#263238" stroke-miterlimit="10" stroke-dasharray="2.01 2.01"/>
<path d="M191.883 225.229V226.031" stroke="#263238" stroke-miterlimit="10"/>
<path d="M193.382 56.8302C206.997 56.8302 218.034 45.7934 218.034 32.1788C218.034 18.5642 206.997 7.52734 193.382 7.52734C179.768 7.52734 168.731 18.5642 168.731 32.1788C168.731 45.7934 179.768 56.8302 193.382 56.8302Z" fill="#263238" stroke="#263238" stroke-width="2" stroke-miterlimit="10"/>
<path d="M193.382 32.1788L214.13 18.871C211.064 14.0987 206.45 10.5264 201.062 8.75391L193.382 32.1788Z" fill="#92E3A9" stroke="#263238" stroke-miterlimit="10"/>
<path d="M193.382 32.1789L204.999 53.9122C207.995 52.3057 210.627 50.0966 212.729 47.4239C214.831 44.7512 216.357 41.6725 217.211 38.3815C218.066 35.0905 218.23 31.6584 217.695 28.3007C217.159 24.9431 215.934 21.7326 214.098 18.8711L193.382 32.1789Z" fill="white" stroke="#263238" stroke-miterlimit="10"/>
<path d="M312.753 77.9401C322.377 68.3163 322.377 52.713 312.753 43.0891C303.129 33.4653 287.526 33.4653 277.902 43.0891C268.278 52.713 268.278 68.3163 277.902 77.9402C287.526 87.564 303.129 87.564 312.753 77.9401Z" stroke="#263238" stroke-miterlimit="10"/>
<path d="M295.323 81.8824C307.122 81.8824 316.687 72.3172 316.687 60.5179C316.687 48.7186 307.122 39.1533 295.323 39.1533C283.524 39.1533 273.958 48.7186 273.958 60.5179C273.958 72.3172 283.524 81.8824 295.323 81.8824Z" fill="#263238"/>
<path d="M307.613 60.5184L286.921 48.5654V72.4633L307.613 60.5184Z" fill="white"/>
<path d="M355.65 146.899C358.958 133.086 350.443 119.206 336.63 115.898C322.817 112.589 308.938 121.105 305.629 134.918C302.321 148.73 310.836 162.61 324.649 165.918C338.461 169.227 352.341 160.711 355.65 146.899Z" fill="#263238"/>
<path d="M348.521 145.193C350.875 135.326 344.785 125.419 334.919 123.065C325.052 120.711 315.146 126.801 312.792 136.667C310.437 146.534 316.527 156.441 326.394 158.795C336.26 161.149 346.167 155.059 348.521 145.193Z" fill="white"/>
<path d="M341.347 143.451C342.753 137.527 339.092 131.585 333.169 130.179C327.246 128.772 321.304 132.433 319.897 138.356C318.49 144.279 322.152 150.221 328.075 151.628C333.998 153.035 339.94 149.374 341.347 143.451Z" fill="#263238"/>
<path d="M336.433 142.302C337.189 139.114 335.217 135.917 332.028 135.162C328.84 134.406 325.644 136.378 324.888 139.566C324.133 142.754 326.105 145.951 329.293 146.707C332.481 147.462 335.678 145.49 336.433 142.302Z" fill="white"/>
<path d="M363.409 128.58L360.138 127.306L361.565 126.608C361.648 126.57 361.722 126.517 361.783 126.45C361.845 126.383 361.893 126.305 361.923 126.219C361.954 126.134 361.968 126.043 361.963 125.953C361.958 125.862 361.935 125.773 361.896 125.691C361.856 125.61 361.801 125.537 361.733 125.477C361.665 125.417 361.585 125.371 361.499 125.342C361.413 125.313 361.322 125.302 361.231 125.309C361.141 125.315 361.053 125.34 360.972 125.382L359.938 125.887L361.581 122.327L355.48 125.053L354.591 128.476L330.34 140.285C330.259 140.324 330.187 140.379 330.128 140.446C330.068 140.513 330.023 140.592 329.994 140.677C329.965 140.762 329.953 140.851 329.958 140.941C329.964 141.03 329.988 141.118 330.027 141.199C330.065 141.28 330.119 141.352 330.185 141.412C330.251 141.472 330.329 141.518 330.414 141.547C330.498 141.577 330.588 141.588 330.677 141.582C330.766 141.576 330.853 141.552 330.933 141.511L355.264 129.662L357.917 131.162L363.409 128.58Z" fill="#263238"/>
<path d="M86.4872 85.1536C100.686 85.1536 112.197 73.643 112.197 59.444C112.197 45.245 100.686 33.7344 86.4872 33.7344C72.2882 33.7344 60.7776 45.245 60.7776 59.444C60.7776 73.643 72.2882 85.1536 86.4872 85.1536Z" fill="white" stroke="#263238" stroke-width="2" stroke-miterlimit="10"/>
<path d="M86.4872 85.1536C96.7856 85.1536 105.134 73.643 105.134 59.444C105.134 45.245 96.7856 33.7344 86.4872 33.7344C76.1888 33.7344 67.8403 45.245 67.8403 59.444C67.8403 73.643 76.1888 85.1536 86.4872 85.1536Z" fill="white" stroke="#263238" stroke-miterlimit="10"/>
<path d="M86.4873 85.1536C90.8706 85.1536 94.4239 73.643 94.4239 59.444C94.4239 45.245 90.8706 33.7344 86.4873 33.7344C82.1041 33.7344 78.5508 45.245 78.5508 59.444C78.5508 73.643 82.1041 85.1536 86.4873 85.1536Z" fill="white" stroke="#263238" stroke-miterlimit="10"/>
<path d="M72.8669 37.7266H100.565" stroke="#263238" stroke-miterlimit="10"/>
<path d="M63.5515 47.8037H109.383" stroke="#263238" stroke-miterlimit="10"/>
<path d="M60.906 57.8721H112.149" stroke="#263238" stroke-miterlimit="10"/>
<path d="M62.0364 67.9492H110.642" stroke="#263238" stroke-miterlimit="10"/>
<path d="M68.9626 78.0186H104.469" stroke="#263238" stroke-miterlimit="10"/>
<path d="M52.8332 166.627C67.0322 166.627 78.5428 155.117 78.5428 140.918C78.5428 126.719 67.0322 115.208 52.8332 115.208C38.6341 115.208 27.1235 126.719 27.1235 140.918C27.1235 155.117 38.6341 166.627 52.8332 166.627Z" fill="#263238" stroke="#263238" stroke-width="2" stroke-miterlimit="10"/>
<path d="M69.1232 128.765H35.0281V156.046H69.1232V128.765Z" fill="white" stroke="#263238" stroke-width="2" stroke-miterlimit="10"/>
<path d="M71.2555 128.765H32.8955V139.844H71.2555V128.765Z" fill="white" stroke="#263238" stroke-width="2" stroke-miterlimit="10"/>
<path d="M52.0395 128.491C52.0395 128.491 44.0227 119.104 42.6519 119.553C41.281 120.002 37.7376 126.255 39.7498 126.928C41.762 127.601 52.0395 128.491 52.0395 128.491Z" fill="#92E3A9"/>
<path d="M52.1116 128.491C52.1116 128.491 60.1283 119.104 61.4992 119.553C62.87 120.002 66.4214 126.255 64.4092 126.928C62.397 127.601 52.1116 128.491 52.1116 128.491Z" fill="#92E3A9"/>
<path d="M54.5007 147.94L52.0876 143.747L49.5864 147.94V129.165H54.5007V147.94Z" fill="#92E3A9"/>
<path d="M64.2168 211.745L191.795 139.939L322.499 211.745V315.842H65.7881L64.2168 211.745Z" fill="#263238" stroke="#263238" stroke-linecap="round" stroke-linejoin="round"/>
<path d="M288.853 159.308H97.879V329.15H288.853V159.308Z" fill="white" stroke="#263238" stroke-miterlimit="10"/>
<path d="M119.789 189.05H264.587" stroke="#263238" stroke-miterlimit="10"/>
<path d="M119.789 203.921H264.587" stroke="#263238" stroke-miterlimit="10"/>
<path d="M119.789 218.792H264.587" stroke="#263238" stroke-miterlimit="10"/>
<path d="M119.789 233.663H264.587" stroke="#263238" stroke-miterlimit="10"/>
<path d="M119.789 248.534H264.587" stroke="#263238" stroke-miterlimit="10"/>
<path d="M119.789 263.405H264.587" stroke="#263238" stroke-miterlimit="10"/>
<path d="M322.499 354.98H64.2168V211.745L193.366 299.408L322.499 211.745V354.98Z" fill="#92E3A9" stroke="#263238" stroke-miterlimit="10"/>
<path d="M64.2168 354.98L158.125 275.446" stroke="#263238" stroke-miterlimit="10"/>
<path d="M322.091 354.98L228.88 275.317" stroke="#263238" stroke-miterlimit="10"/>
<path d="M221.296 111.962C221.296 111.962 220.326 116.499 221.625 117.958C222.924 119.417 227.782 124.604 227.782 125.414C227.782 126.223 226.179 149.568 226.179 149.568L218.723 144.221L214.186 158.162C214.186 158.162 225.529 163.028 230.885 163.998C236.24 164.968 237.202 163.509 237.202 159.3C237.202 155.091 232.985 122.824 232.985 122.824C232.985 122.824 234.284 115.369 234.284 114.07C234.284 112.771 234.773 112.122 233.634 111.472C232.496 110.823 223.261 109.869 223.261 109.869C223.261 109.869 221.296 110.663 221.296 111.962Z" fill="white" stroke="#263238" stroke-linecap="round" stroke-linejoin="round"/>
<path d="M218.892 146.185L216.43 158.675L214.17 158.162L218.892 146.185Z" fill="#263238" stroke="#263238" stroke-linecap="round" stroke-linejoin="round"/>
<path d="M237.065 115.601L218.699 113.132V108.555C218.699 108.342 218.784 108.138 218.934 107.988C219.084 107.837 219.288 107.753 219.501 107.753C219.713 107.753 219.917 107.837 220.068 107.988C220.218 108.138 220.302 108.342 220.302 108.555V111.761L235.654 113.83L235.919 110.126C235.902 110.007 235.912 109.887 235.948 109.773C235.984 109.659 236.045 109.554 236.127 109.466C236.208 109.379 236.308 109.311 236.42 109.267C236.531 109.223 236.651 109.205 236.77 109.214C236.889 109.222 237.005 109.257 237.109 109.317C237.213 109.376 237.303 109.458 237.371 109.556C237.439 109.654 237.485 109.766 237.504 109.884C237.523 110.002 237.516 110.123 237.482 110.238L237.065 115.601Z" fill="#263238"/>
<path d="M222.924 114.069L232.969 115.039L233.618 111.472L223.245 109.853L222.924 114.069Z" fill="white" stroke="#263238" stroke-linecap="round" stroke-linejoin="round"/>
<path d="M221.136 114.559C221.136 114.559 221.136 110.503 221.625 110.182C222.114 109.861 229.081 110.342 229.081 111.312C229.081 112.282 229.081 112.771 228.279 112.771C227.477 112.771 225.874 112.932 225.874 112.932C225.874 112.932 229.602 116.339 228.463 119.417" fill="white"/>
<path d="M221.136 114.559C221.136 114.559 221.136 110.503 221.625 110.182C222.114 109.861 229.081 110.342 229.081 111.312C229.081 112.282 229.081 112.771 228.279 112.771C227.477 112.771 225.874 112.932 225.874 112.932C225.874 112.932 229.602 116.339 228.463 119.417" stroke="#263238" stroke-linecap="round" stroke-linejoin="round"/>
<path d="M226.163 149.567L225.513 156.702" stroke="#263238" stroke-linecap="round" stroke-linejoin="round"/>
<path d="M143.839 146.457C143.839 146.457 120.927 164.334 121.52 166.266C122.114 168.198 139.109 184.448 144.729 188.433C150.348 192.417 153.451 194.205 153.451 194.205L156.994 196.417C156.994 196.417 155.519 198.822 156.409 199.231C157.299 199.64 160.546 201.299 160.987 200.41C161.428 199.52 163.801 192.874 163.504 191.246C163.207 189.619 154.629 188.288 154.044 187.695C153.459 187.102 139.406 165.248 139.406 165.248L150.348 156.678L143.839 146.457Z" fill="white" stroke="#263238" stroke-linecap="round" stroke-linejoin="round"/>
<path d="M143.446 147.051L147.607 158.33L150.349 156.655L143.446 147.051Z" fill="#263238" stroke="#263238" stroke-linecap="round" stroke-linejoin="round"/>
<path d="M156.994 196.401C156.994 196.401 158.037 198.622 159.808 198.806" stroke="#263238" stroke-linecap="round" stroke-linejoin="round"/>
<path d="M139.406 165.224L136.448 160.054" stroke="#263238" stroke-linecap="round" stroke-linejoin="round"/>
<path d="M159.071 327.09L158.83 340.229L169.597 340.461L170.551 326.144L159.071 327.09Z" fill="white" stroke="#263238" stroke-linecap="round" stroke-linejoin="round"/>
<path d="M159.111 326.376V329.623L170.278 330.144L170.535 326.769L159.111 326.376Z" fill="#263238" stroke="#263238" stroke-linecap="round" stroke-linejoin="round"/>
<path d="M164.153 336.798C164.153 336.798 162.734 331.235 160.602 331.115C158.469 330.994 157.395 332.654 156.594 334.193C155.792 335.732 150.557 340.935 148.777 342.21C146.997 343.484 143.101 345.168 142.508 348.952C141.915 352.736 144.16 354.283 145.715 354.636C147.27 354.988 154.237 355.109 158.381 354.636C162.526 354.163 173.821 355.285 174.479 354.636C175.136 353.986 176.018 351.91 175.425 350.491C174.96 349.458 174.404 348.468 173.765 347.533C173.765 347.533 174.952 344.102 174.238 342.21C173.525 340.318 172.106 337.945 172.346 336.879C172.587 335.812 175.184 333.568 173.413 333.447C171.641 333.327 168.795 335.46 166.999 336.053C166.076 336.391 165.123 336.64 164.153 336.798Z" fill="#263238" stroke="#263238" stroke-linecap="round" stroke-linejoin="round"/>
<path d="M171.729 348.037C170.07 348.278 163.712 351.348 159.656 352.302C155.599 353.256 152.088 353.36 150.188 352.414C148.288 351.468 146.637 348.63 145.218 346.851C143.799 345.071 142.62 349.576 142.62 349.576L142.42 349.665C142.179 352.959 144.248 354.33 145.691 354.667C147.134 355.004 154.213 355.14 158.357 354.667C162.502 354.194 173.797 355.316 174.455 354.667C175.112 354.018 175.994 351.941 175.401 350.522C174.936 349.489 174.38 348.499 173.741 347.564C173.036 347.444 173.389 347.805 171.729 348.037Z" fill="white" stroke="#263238" stroke-linecap="round" stroke-linejoin="round"/>
<path d="M154.493 337.496C154.493 337.496 157.7 336.79 161.708 340.703L159.584 342.474C159.584 342.474 155.439 339.268 152.834 339.268L154.493 337.496Z" fill="white" stroke="#263238" stroke-linecap="round" stroke-linejoin="round"/>
<path d="M151.495 339.9C151.495 339.9 154.702 339.187 158.71 343.107L156.586 344.887C156.586 344.887 152.441 341.68 149.835 341.68L151.495 339.9Z" fill="white" stroke="#263238" stroke-linecap="round" stroke-linejoin="round"/>
<path d="M160.842 339.516L164.153 336.798" stroke="#263238" stroke-linecap="round" stroke-linejoin="round"/>
<path d="M156.586 344.847C156.586 344.847 157.387 346.618 155.992 347.685C154.597 348.751 145.218 346.971 145.338 345.672C145.458 344.374 149.835 341.664 149.835 341.664C152.282 342.245 154.581 343.329 156.586 344.847Z" fill="white" stroke="#263238" stroke-linecap="round" stroke-linejoin="round"/>
<path d="M226.98 327.09L227.213 340.229L216.446 340.461L215.5 326.144L226.98 327.09Z" fill="white" stroke="#263238" stroke-linecap="round" stroke-linejoin="round"/>
<path d="M215.709 328.581V330.529L227.133 330.401L227.004 327.547L215.452 327.419L215.709 328.581Z" fill="#263238" stroke="#263238" stroke-linecap="round" stroke-linejoin="round"/>
<path d="M221.89 336.798C221.89 336.798 223.309 331.235 225.441 331.115C227.574 330.994 228.648 332.654 229.45 334.193C230.251 335.732 235.486 340.935 237.258 342.21C239.03 343.484 242.942 345.168 243.527 348.952C244.112 352.736 241.875 354.283 240.32 354.636C238.765 354.988 231.798 355.109 227.654 354.636C223.509 354.163 212.214 355.285 211.564 354.636C210.915 353.986 210.025 351.91 210.61 350.491C211.075 349.458 211.631 348.468 212.27 347.533C212.27 347.533 211.083 344.102 211.797 342.21C212.51 340.318 213.929 337.945 213.689 336.879C213.448 335.812 210.851 333.568 212.622 333.447C214.394 333.327 217.24 335.46 219.036 336.053C219.961 336.392 220.917 336.642 221.89 336.798Z" fill="#263238" stroke="#263238" stroke-linecap="round" stroke-linejoin="round"/>
<path d="M214.314 348.037C215.973 348.278 222.331 351.348 226.387 352.302C230.444 353.256 233.963 353.36 235.855 352.414C237.747 351.468 239.406 348.63 240.825 346.851C242.244 345.071 243.431 349.576 243.431 349.576L243.623 349.665C243.864 352.959 241.795 354.33 240.352 354.667C238.909 355.004 231.83 355.14 227.686 354.667C223.541 354.194 212.246 355.316 211.596 354.667C210.947 354.018 210.057 351.941 210.642 350.522C211.107 349.489 211.663 348.499 212.302 347.564C213.015 347.444 212.654 347.805 214.314 348.037Z" fill="white" stroke="#263238" stroke-linecap="round" stroke-linejoin="round"/>
<path d="M231.59 337.496C231.59 337.496 228.383 336.79 224.375 340.703L226.507 342.474C226.507 342.474 230.644 339.268 233.249 339.268L231.59 337.496Z" fill="white" stroke="#263238" stroke-linecap="round" stroke-linejoin="round"/>
<path d="M234.548 339.9C234.548 339.9 231.341 339.187 227.333 343.107L229.465 344.887C229.465 344.887 233.602 341.68 236.208 341.68L234.548 339.9Z" fill="white" stroke="#263238" stroke-linecap="round" stroke-linejoin="round"/>
<path d="M225.201 339.516L221.89 336.798" stroke="#263238" stroke-linecap="round" stroke-linejoin="round"/>
<path d="M229.465 344.847C229.465 344.847 228.664 346.618 230.051 347.685C231.438 348.751 240.825 346.971 240.705 345.672C240.585 344.374 236.208 341.664 236.208 341.664C233.763 342.244 231.467 343.328 229.465 344.847Z" fill="white" stroke="#263238" stroke-linecap="round" stroke-linejoin="round"/>
<path d="M164.017 188.384C164.017 188.384 157.756 213.95 155.407 235.611C153.058 257.272 149.402 328.228 149.402 328.228H178.102C178.102 328.228 186.712 256.214 188.019 243.435C189.326 230.657 189.318 222.592 189.318 222.592L205.495 328.26H239.671C239.671 328.26 226.628 261.208 221.409 230.456C216.19 199.704 208.887 187.671 208.887 187.671L164.017 188.384Z" fill="#B0B0B0" stroke="#263238" stroke-linecap="round" stroke-linejoin="round"/>
<path d="M188.54 190.237C188.292 190.982 181.493 201.195 183.578 201.973C185.662 202.751 189.582 202.775 189.582 200.674V192.321C189.582 192.321 190.103 204.065 192.452 203.544C194.801 203.023 197.928 203.544 197.15 200.931C196.372 198.317 190.368 189.988 190.368 189.988C190.368 189.988 189.318 187.888 188.54 190.237Z" fill="#B0B0B0" stroke="#263238" stroke-linecap="round" stroke-linejoin="round"/>
<path d="M189.614 191.095C189.614 191.095 195.531 199.496 194.962 200.258C194.392 201.019 193.623 201.781 193.054 200.643C192.484 199.504 189.614 191.095 189.614 191.095Z" stroke="#263238" stroke-miterlimit="10"/>
<path d="M189.422 190.141C189.422 190.141 185.029 199.496 185.606 199.873C185.812 200 186.045 200.076 186.287 200.095C186.528 200.115 186.77 200.076 186.993 199.983C187.217 199.889 187.415 199.744 187.571 199.559C187.727 199.374 187.837 199.155 187.891 198.919C188.276 197.588 189.422 190.141 189.422 190.141Z" stroke="#263238" stroke-miterlimit="10"/>
<path d="M207.251 216.804C207.492 218.126 207.7 219.377 207.844 220.499" stroke="#263238" stroke-linecap="round" stroke-linejoin="round"/>
<path d="M201.062 191.022C201.062 191.022 204.317 202.647 206.409 212.515" stroke="#263238" stroke-linecap="round" stroke-linejoin="round"/>
<path d="M198.713 191.022C198.713 191.022 200.798 205.629 201.84 209.541" stroke="#263238" stroke-linecap="round" stroke-linejoin="round"/>
<path d="M170.318 211.248C170.206 212.258 170.11 213.18 170.014 213.974" stroke="#263238" stroke-linecap="round" stroke-linejoin="round"/>
<path d="M172.362 191.022C172.362 191.022 171.497 199.945 170.759 207.32" stroke="#263238" stroke-linecap="round" stroke-linejoin="round"/>
<path d="M170.278 191.543L169.228 204.065" stroke="#263238" stroke-linecap="round" stroke-linejoin="round"/>
<path d="M188.556 84.5684C188.556 84.5684 198.28 85.5384 196.012 90.5649C193.743 95.5913 191.474 96.5614 190.985 96.5614C190.496 96.5614 186.608 90.5649 186.608 90.5649L188.556 84.5684Z" fill="#263238" stroke="#263238" stroke-linecap="round" stroke-linejoin="round"/>
<path d="M187.418 89.2663C187.418 89.2663 191.146 91.3747 192.284 95.2628C193.422 99.151 196.332 100.289 197.15 100.129C197.968 99.9687 199.09 102.398 198.12 104.017L197.15 105.62C197.15 105.62 197.952 116.643 196.982 118.102C196.012 119.562 190.015 118.752 190.015 118.752C190.015 118.752 188.717 123.939 189.855 127.185C190.993 130.432 194.392 132.044 195.691 132.044C196.99 132.044 199.74 130.44 203.467 132.372C207.195 134.304 219.677 143.716 219.677 143.716L213.015 161.93L205.88 158.202L210.907 189.163L162.277 190.301C162.277 190.301 162.766 168.255 161.476 164.199C160.574 161.51 159.434 158.908 158.069 156.422L151.912 161.281L143.318 146.369C143.318 146.369 155.96 133.727 160.955 132.589C165.949 131.45 171.978 132.917 173.926 130.48C175.874 128.043 174.246 116.539 174.246 116.539C174.246 116.539 169.549 114.936 166.791 106.655C164.033 98.3733 173.437 89.8195 173.437 89.8195C173.437 89.8195 177.694 85.3782 187.418 89.2663Z" fill="white" stroke="#263238" stroke-linecap="round" stroke-linejoin="round"/>
<path d="M190.015 118.768L185.63 118.03L189.149 122.079L190.015 118.768Z" fill="#263238" stroke="#263238" stroke-linecap="round" stroke-linejoin="round"/>
<path d="M187.955 98.0442C187.955 98.0442 187.955 94.9658 190.713 94.9658" stroke="#263238" stroke-width="2" stroke-linecap="round" stroke-linejoin="round"/>
<path d="M195.202 109.203L189.526 106.445C189.526 106.445 189.045 112.281 191.13 112.121C193.214 111.961 195.202 109.203 195.202 109.203Z" fill="#263238" stroke="#263238" stroke-linecap="round" stroke-linejoin="round"/>
<path d="M189.646 101.05C189.646 101.05 191.474 99.0699 192.997 100.745" stroke="#263238" stroke-linecap="round" stroke-linejoin="round"/>
<path d="M189.486 108.298L194.585 109.957C194.804 109.718 195.01 109.466 195.202 109.204L189.526 106.454C189.526 106.454 189.462 107.28 189.486 108.298Z" fill="white" stroke="#263238" stroke-linecap="round" stroke-linejoin="round"/>
<path d="M157.756 96.2406C157.756 96.2406 154.189 88.9454 149.162 89.7551C144.136 90.5648 140.247 96.0723 141.867 103.857C141.867 103.857 142.668 105.965 143.326 107.745C143.326 107.745 137.009 105.805 133.602 110.013C130.194 114.222 132.8 118.607 136.68 120.716C140.56 122.824 142.845 122.664 142.845 122.664C142.845 122.664 134.251 125.253 137.329 128.5C140.408 131.747 149.811 129.63 147.863 126.897C145.915 124.163 144.464 124.492 144.464 124.492C144.464 124.492 152.24 121.573 151.431 119.465C150.621 117.357 146.733 115.737 146.733 115.737C146.733 115.737 154.188 118.335 158.245 115.898C162.301 113.461 158.726 103.071 158.726 103.071L157.756 96.2406Z" fill="#263238" stroke="#263238" stroke-linecap="round" stroke-linejoin="round"/>
<path d="M190.336 81.0002C190.336 81.0002 191.635 85.5376 189.366 89.4258C187.097 93.3139 182.231 99.9677 181.582 107.423C180.932 114.879 183.041 124.122 184.339 127.201C185.638 130.279 182.736 130.928 180.612 130.768C178.487 130.608 177.694 129.309 177.694 126.391C177.694 123.473 177.044 118.286 177.044 118.286C177.044 118.286 168.779 117.484 164.891 115.2C161.003 112.915 155.327 105.155 157.756 96.24C160.185 87.3254 166.671 84.728 170.583 83.1086C174.495 81.4892 179.826 81.6495 183.554 80.8399C187.282 80.0302 190.176 79.0521 190.336 81.0002Z" fill="#263238" stroke="#263238" stroke-linecap="round" stroke-linejoin="round"/>
<path d="M178.543 103.696L177.084 109.533C177.084 109.533 174.006 108.073 173.517 105.476C173.028 102.879 176.724 101.588 179.353 103.873" fill="white"/>
<path d="M178.543 103.696L177.084 109.533C177.084 109.533 174.006 108.073 173.517 105.476C173.028 102.879 176.724 101.588 179.353 103.873" stroke="#263238" stroke-linecap="round" stroke-linejoin="round"/>
<path d="M225.842 112.932L223.734 113.1" stroke="#263238" stroke-linecap="round" stroke-linejoin="round"/>
<path d="M210.674 108.249L264.707 115.809L257.364 75.8379L209.007 99.1265L210.674 108.249Z" fill="#92E3A9" stroke="#263238" stroke-linecap="round" stroke-linejoin="round"/>
<path d="M209.003 99.1281L200.975 100.596L202.636 109.68L210.664 108.213L209.003 99.1281Z" fill="#92E3A9" stroke="#263238" stroke-linecap="round" stroke-linejoin="round"/>
<path d="M219.677 143.732C219.677 143.732 207.195 134.328 203.467 132.388C199.739 130.448 197.054 132.019 195.747 132.059C194.009 134.562 191.669 136.587 188.943 137.947C186.216 139.308 183.191 139.96 180.147 139.844C169.484 139.707 166.518 133.775 165.877 132.043C164.245 132.059 162.619 132.228 161.019 132.548C155.992 133.687 143.382 146.329 143.382 146.329L151.976 161.24L158.133 156.382C159.498 158.868 160.638 161.47 161.54 164.158C162.839 168.215 162.341 190.261 162.341 190.261L210.971 189.122L205.944 158.162L213.015 161.93L219.677 143.732Z" fill="#263238" stroke="#263238" stroke-linecap="round" stroke-linejoin="round"/>
<path d="M188.91 174.607C196.947 172.693 201.911 164.627 199.998 156.59C198.085 148.553 190.019 143.588 181.981 145.502C173.944 147.415 168.98 155.481 170.893 163.518C172.806 171.556 180.873 176.52 188.91 174.607Z" stroke="white" stroke-miterlimit="10"/>
<path d="M194.585 153.271H176.844L185.59 161.697L194.585 153.271Z" fill="#92E3A9"/>
<path d="M189.141 159.837L195.314 165.288V154.049L189.141 159.837Z" fill="#92E3A9"/>
<path d="M182.103 159.822L175.85 153.793V165.032L182.103 159.822Z" fill="#92E3A9"/>
<path d="M188.356 160.566L185.582 163.172L182.88 160.566L176.371 165.994H194.497L188.356 160.566Z" fill="#92E3A9"/>
<path d="M16.0525 354.979H369.045" stroke="#263238" stroke-miterlimit="10"/>
</svg>
