<svg width="20" height="20" viewBox="0 0 20 20" fill="none" xmlns="http://www.w3.org/2000/svg">
<g clip-path="url(#clip0)">
<path opacity="0.15" d="M9.80392 20.0004C15.2185 20.0004 19.6078 15.6111 19.6078 10.1965C19.6078 4.78194 15.2185 0.392578 9.80392 0.392578C4.38937 0.392578 0 4.78194 0 10.1965C0 15.6111 4.38937 20.0004 9.80392 20.0004Z" fill="black"/>
<path d="M10.1961 19.6078C15.6106 19.6078 20 15.2185 20 9.80392C20 4.38937 15.6106 0 10.1961 0C4.78152 0 0.392151 4.38937 0.392151 9.80392C0.392151 15.2185 4.78152 19.6078 10.1961 19.6078Z" fill="#3B97D3"/>
<path d="M10.1961 1.96094C14.5277 1.96094 18.0392 5.47251 18.0392 9.80407C18.0392 14.1356 14.5277 17.6472 10.1961 17.6472C5.86453 17.6472 2.35297 14.1356 2.35297 9.80407C2.35297 5.47251 5.86453 1.96094 10.1961 1.96094Z" fill="white"/>
<path fill-rule="evenodd" clip-rule="evenodd" d="M10.1961 3.92188C13.4449 3.92188 16.0784 6.5554 16.0784 9.80423C16.0784 13.0529 13.4449 15.6866 10.1961 15.6866C6.94725 15.6866 4.31372 13.0529 4.31372 9.80423C4.31372 6.5554 6.94725 3.92188 10.1961 3.92188Z" fill="#6BC8F2"/>
<path d="M10.1961 5.88281C12.362 5.88281 14.1177 7.6387 14.1177 9.80438C14.1177 11.9701 12.362 13.726 10.1961 13.726C8.03022 13.726 6.27454 11.9701 6.27454 9.80438C6.27454 7.6387 8.03022 5.88281 10.1961 5.88281Z" fill="white"/>
<path fill-rule="evenodd" clip-rule="evenodd" d="M10.1961 7.84277C11.279 7.84277 12.1569 8.72062 12.1569 9.80356C12.1569 10.8863 11.279 11.7643 10.1961 11.7643C9.11313 11.7643 8.23529 10.8863 8.23529 9.80356C8.23529 8.72062 9.11313 7.84277 10.1961 7.84277Z" fill="#E64C3C"/>
<path fill-rule="evenodd" clip-rule="evenodd" d="M17.451 14.5098H14.902L17.451 17.0588H20L17.451 14.5098Z" fill="#F0C419"/>
<path fill-rule="evenodd" clip-rule="evenodd" d="M17.451 19.6078V17.0588L14.902 14.5098V17.0588L17.451 19.6078Z" fill="#F29C1F"/>
<path fill-rule="evenodd" clip-rule="evenodd" d="M17.451 14.5098H14.902L17.451 17.0588H20L17.451 14.5098Z" fill="#F0C419"/>
<path opacity="0.15" d="M9.88994 9.49799L2.96484 16.4231C3.09771 16.5673 3.23483 16.7076 3.37602 16.8437L10.3058 9.91388C10.3339 9.88675 10.3563 9.85429 10.3717 9.81841C10.3872 9.78252 10.3953 9.74393 10.3956 9.70488C10.3959 9.66582 10.3885 9.62709 10.3737 9.59095C10.3589 9.5548 10.3371 9.52196 10.3095 9.49435C10.2819 9.46673 10.249 9.44489 10.2129 9.4301C10.1767 9.41532 10.138 9.40787 10.0989 9.40821C10.0599 9.40855 10.0213 9.41667 9.98541 9.43208C9.94953 9.4475 9.91707 9.4699 9.88994 9.49799Z" fill="black"/>
<path d="M17.7183 17.6271C17.643 17.6271 17.5675 17.5985 17.51 17.541L9.98805 10.0124C9.93528 9.95672 9.90633 9.88264 9.90738 9.80593C9.90842 9.72922 9.93938 9.65595 9.99365 9.60173C10.0479 9.54751 10.1212 9.51662 10.1979 9.51565C10.2746 9.51468 10.3487 9.54369 10.4043 9.59652L17.9265 17.125C17.9676 17.1661 17.9955 17.2186 18.0068 17.2756C18.0181 17.3327 18.0123 17.3918 17.99 17.4455C17.9677 17.4993 17.93 17.5452 17.8816 17.5775C17.8333 17.6098 17.7764 17.6271 17.7183 17.6271Z" fill="#E57E25"/>
</g>
<defs>
<clipPath id="clip0">
<rect width="20" height="20" fill="white"/>
</clipPath>
</defs>
</svg>
