<svg width="65" height="64" viewBox="0 0 65 64" fill="none" xmlns="http://www.w3.org/2000/svg">
<path d="M17.9114 36L8.01562 44V12C8.01562 11.4696 8.22634 10.9609 8.60141 10.5858C8.97648 10.2107 9.48519 10 10.0156 10H42.0156C42.5461 10 43.0548 10.2107 43.4298 10.5858C43.8049 10.9609 44.0156 11.4696 44.0156 12V34C44.0156 34.5304 43.8049 35.0391 43.4298 35.4142C43.0548 35.7893 42.5461 36 42.0156 36H17.9114Z" stroke="#2A8014" stroke-width="1.5" stroke-linecap="round" stroke-linejoin="round"/>
<path d="M20.0156 36V46C20.0156 46.5304 20.2263 47.0391 20.6014 47.4142C20.9765 47.7893 21.4852 48 22.0156 48H46.1199L56.0156 56V24C56.0156 23.4696 55.8049 22.9609 55.4298 22.5858C55.0548 22.2107 54.5461 22 54.0156 22H44.0156" stroke="#2A8014" stroke-width="1.5" stroke-linecap="round" stroke-linejoin="round"/>
</svg>
