<svg width="32" height="32" viewBox="0 0 32 32" fill="none" xmlns="http://www.w3.org/2000/svg">
<path d="M11.7568 20.2415L20.2421 11.7562" stroke="#4E4B66" stroke-width="1.5" stroke-linecap="round" stroke-linejoin="round"/>
<path d="M18.1202 22.3638L14.5847 25.8993C13.4594 27.0242 11.9334 27.6561 10.3423 27.6559C8.75114 27.6558 7.22522 27.0237 6.10013 25.8986C4.97504 24.7735 4.34291 23.2476 4.34277 21.6565C4.34264 20.0653 4.97451 18.5393 6.09941 17.414L9.63494 13.8785" stroke="#4E4B66" stroke-width="1.5" stroke-linecap="round" stroke-linejoin="round"/>
<path d="M22.3642 18.1205L25.8997 14.585C27.0246 13.4597 27.6565 11.9337 27.6564 10.3426C27.6562 8.75144 27.0241 7.22553 25.899 6.10044C24.7739 4.97535 23.248 4.34321 21.6569 4.34308C20.0657 4.34294 18.5397 4.97481 17.4144 6.09971L13.8789 9.63524" stroke="#4E4B66" stroke-width="1.5" stroke-linecap="round" stroke-linejoin="round"/>
</svg>
