<svg width="32" height="32" viewBox="0 0 32 32" fill="none" xmlns="http://www.w3.org/2000/svg">
<rect x="0.5" y="0.5" width="31" height="31" rx="15.5" fill="#15421B" stroke="white"/>
<path d="M22.3331 22.4934C18.1235 22.9544 13.8761 22.9544 9.66642 22.4934C8.93542 22.4097 8.21847 21.7315 8.10205 20.9992C7.59229 17.6853 7.59229 14.313 8.10205 10.9992C8.21851 10.2669 8.93538 9.58869 9.66642 9.50493C13.8761 9.04393 18.1235 9.04393 22.3331 9.50493C23.0639 9.58871 23.7812 10.2668 23.8975 10.9992C24.4072 14.313 24.4072 17.6853 23.8975 20.9992C23.7811 21.7314 23.0643 22.4098 22.3331 22.4934Z" stroke="white" stroke-width="1.5" stroke-linecap="round" stroke-linejoin="round"/>
<path d="M18.6665 15.9997L14.6665 13.333V18.6663L18.6665 15.9997Z" stroke="white" stroke-width="1.5" stroke-linecap="round" stroke-linejoin="round"/>
</svg>
