<svg width="32" height="32" viewBox="0 0 32 32" fill="none" xmlns="http://www.w3.org/2000/svg">
<rect x="0.5" y="0.5" width="31" height="31" rx="15.5" fill="#15421B" stroke="white"/>
<path d="M25.3338 10.3878C24.6081 11.4268 23.7026 12.3279 22.66 13.0486L22.66 13.0486C22.594 14.8712 22.062 16.6464 21.1147 18.2049C20.1675 19.7633 18.8365 21.0529 17.249 21.9506C15.6615 22.8484 13.8703 23.3242 12.0466 23.3327C10.2228 23.3411 8.42736 22.882 6.83154 21.9992L6.83208 21.9982C8.91596 21.9693 10.9452 21.3276 12.6668 20.1531L12.6668 20.1532C10.8238 18.8972 9.42023 17.0958 8.65268 15.0018C7.88514 12.9078 7.79215 10.6261 8.38676 8.47656L8.38673 8.47658C9.23837 9.78813 10.368 10.8964 11.6956 11.7227C13.0232 12.5491 14.5163 13.0735 16.0691 13.2586L16.0688 13.2587C15.9053 12.4792 16.0263 11.6669 16.4097 10.9688C16.7932 10.2708 17.4139 9.73305 18.1595 9.45299C18.9051 9.17293 19.7263 9.16903 20.4746 9.44199C21.2228 9.71496 21.8486 10.2468 22.2387 10.9411L22.2387 10.9415C23.292 10.9101 24.3349 10.7235 25.3338 10.3878" stroke="white" stroke-width="1.5" stroke-linecap="round" stroke-linejoin="round"/>
</svg>
