<svg width="14" height="22" viewBox="0 0 14 22" fill="none" xmlns="http://www.w3.org/2000/svg">
<path d="M7 1.25V3.5" stroke="#4E4B66" stroke-width="1.5" stroke-linecap="round" stroke-linejoin="round"/>
<path d="M7 18.5V20.75" stroke="#4E4B66" stroke-width="1.5" stroke-linecap="round" stroke-linejoin="round"/>
<path d="M12.25 7.25C12.25 6.75754 12.153 6.26991 11.9645 5.81494C11.7761 5.35997 11.4999 4.94657 11.1517 4.59835C10.8034 4.25013 10.39 3.97391 9.93506 3.78545C9.48009 3.597 8.99246 3.5 8.5 3.5H5.125C4.13044 3.5 3.17661 3.89509 2.47335 4.59835C1.77009 5.30161 1.375 6.25544 1.375 7.25C1.375 8.24456 1.77009 9.19839 2.47335 9.90165C3.17661 10.6049 4.13044 11 5.125 11H9.25C10.2446 11 11.1984 11.3951 11.9017 12.0983C12.6049 12.8016 13 13.7554 13 14.75C13 15.7446 12.6049 16.6984 11.9017 17.4017C11.1984 18.1049 10.2446 18.5 9.25 18.5H4.75C3.75544 18.5 2.80161 18.1049 2.09835 17.4017C1.39509 16.6984 1 15.7446 1 14.75" stroke="black" stroke-width="1.5" stroke-linecap="round" stroke-linejoin="round"/>
</svg>
