<svg width="120" height="82" viewBox="0 0 120 82" fill="none" xmlns="http://www.w3.org/2000/svg">
<path d="M98.2088 38.209C86.2685 38.209 76.7163 48.0597 76.7163 60C76.7163 71.9403 86.2685 81.4926 98.2088 81.4926C110.149 81.4926 120 71.9403 120 60C120 48.0597 110.149 38.209 98.2088 38.209ZM87.4626 61.4926C86.5671 60.2985 86.5671 58.806 87.4626 57.612C88.6566 56.7164 90.1491 56.7164 91.3432 57.612L95.5223 62.0896L105.075 52.2388C106.269 51.3433 107.761 51.3433 108.955 52.2388C109.851 53.1344 109.851 54.9254 108.955 56.1194L97.3133 67.4627C96.4178 68.6567 94.6268 68.6567 93.7312 67.4627L87.4626 61.4926Z" fill="#15421B"/>
<path d="M9.85075 16.4179C8.65672 15.8209 8.35821 14.0299 8.95522 12.8358C9.85075 11.6418 11.6418 11.3433 12.8358 12.2388C23.8806 19.7015 35.2239 27.1642 46.5672 34.6269C49.2537 36.4179 52.5373 36.4179 55.2239 34.6269C66.5672 27.1642 77.9104 19.7015 88.9552 12.2388C90.1493 11.3433 91.9403 11.6418 92.5373 12.8358C93.4328 14.0299 93.1343 15.8209 91.9403 16.4179L69.5522 31.3433L79.403 40.597C84.4776 35.8209 91.0448 32.8358 98.209 32.8358C99.403 32.8358 100.597 33.1343 101.791 33.1343V9.55224C101.791 4.1791 97.3134 0 92.2388 0H9.55224C4.1791 0 0 4.1791 0 9.55224V58.5075C0 63.8806 4.1791 68.3582 9.55224 68.3582H72.5373C71.6418 65.6716 71.3433 62.6866 71.3433 60C71.3433 54.3284 73.1343 48.9552 76.1194 44.4776L65.0746 34.6269L58.209 39.1045C53.7313 42.0896 48.0597 42.0896 43.5821 39.1045L36.7164 34.3284L13.1343 55.8209C11.9403 56.7164 10.1493 56.7164 9.25373 55.8209C8.35821 54.6269 8.35821 52.8358 9.55224 51.9403L32.2388 31.3433L9.85075 16.4179Z" fill="#15421B"/>
</svg>
