<svg width="24" height="24" viewBox="0 0 24 24" fill="none" xmlns="http://www.w3.org/2000/svg">
<path d="M4.5 3.75L19.5 20.25" stroke="#4E4B66" stroke-width="1.5" stroke-linecap="round" stroke-linejoin="round"/>
<path d="M14.5225 14.7747C13.7866 15.4436 12.8151 15.7928 11.8217 15.7454C10.8283 15.6981 9.8944 15.2581 9.22542 14.5222C8.55644 13.7863 8.20716 12.8149 8.25442 11.8215C8.30168 10.8281 8.74161 9.89414 9.47742 9.2251" stroke="#4E4B66" stroke-width="1.5" stroke-linecap="round" stroke-linejoin="round"/>
<path d="M6.93698 6.43066C3.11486 8.36618 1.5 12 1.5 12C1.5 12 4.5 18.7493 12 18.7493C13.7572 18.7633 15.4926 18.3585 17.0623 17.5685" stroke="#4E4B66" stroke-width="1.5" stroke-linecap="round" stroke-linejoin="round"/>
<path d="M19.5572 15.8528C21.6011 14.0222 22.5001 11.9998 22.5001 11.9998C22.5001 11.9998 19.5001 5.24904 12.0001 5.24904C11.3505 5.24798 10.7019 5.30079 10.0611 5.40693" stroke="#4E4B66" stroke-width="1.5" stroke-linecap="round" stroke-linejoin="round"/>
<path d="M12.7057 8.31641C13.5027 8.46946 14.2287 8.8768 14.7746 9.47735C15.3205 10.0779 15.657 10.8393 15.7336 11.6472" stroke="#4E4B66" stroke-width="1.5" stroke-linecap="round" stroke-linejoin="round"/>
</svg>
