<svg width="16" height="17" viewBox="0 0 16 17" fill="none" xmlns="http://www.w3.org/2000/svg">
<path d="M2.63013 3.5H13.3696C13.4664 3.5 13.5612 3.52814 13.6424 3.58099C13.7236 3.63384 13.7876 3.70914 13.8268 3.79772C13.866 3.88631 13.8786 3.98437 13.8631 4.07999C13.8476 4.1756 13.8047 4.26466 13.7395 4.33634L9.62988 8.85697C9.54621 8.949 9.49985 9.06892 9.49985 9.1933V12.7324C9.49985 12.8147 9.47953 12.8958 9.44069 12.9683C9.40185 13.0409 9.34569 13.1028 9.2772 13.1484L7.2772 14.4818C7.2019 14.532 7.11439 14.5608 7.02399 14.5652C6.9336 14.5695 6.84371 14.5493 6.76392 14.5066C6.68413 14.4639 6.61743 14.4003 6.57092 14.3227C6.52441 14.245 6.49985 14.1562 6.49985 14.0657V9.1933C6.49985 9.06892 6.45349 8.949 6.36982 8.85697L2.26016 4.33634C2.195 4.26466 2.15206 4.1756 2.13657 4.07999C2.12107 3.98437 2.13368 3.88631 2.17287 3.79772C2.21206 3.70914 2.27613 3.63384 2.35731 3.58099C2.43848 3.52814 2.53326 3.5 2.63013 3.5V3.5Z" stroke="#4E4B66" stroke-width="1.5" stroke-linecap="round" stroke-linejoin="round"/>
</svg>
