<svg width="24" height="24" viewBox="0 0 24 24" fill="none" xmlns="http://www.w3.org/2000/svg">
<path d="M12 21C16.9706 21 21 16.9706 21 12C21 7.02944 16.9706 3 12 3C7.02944 3 3 7.02944 3 12C3 16.9706 7.02944 21 12 21Z" stroke="white" stroke-width="1.5" stroke-linecap="round" stroke-linejoin="round"/>
<path d="M20.078 15.9721L14.9887 12.8419C14.8995 12.787 14.7997 12.7515 14.6959 12.7375L12.5567 12.4491C12.3961 12.4275 12.2327 12.4584 12.0912 12.5374C11.9496 12.6163 11.8374 12.739 11.7715 12.8871L10.4872 15.7688C10.4275 15.9028 10.4084 16.0514 10.4322 16.1962C10.4561 16.3409 10.5219 16.4755 10.6215 16.5832L12.384 18.4896C12.4639 18.576 12.5224 18.6801 12.5546 18.7932C12.5869 18.9064 12.592 19.0256 12.5697 19.1412L12.2107 20.9971" stroke="white" stroke-width="1.5" stroke-linecap="round" stroke-linejoin="round"/>
<path d="M6.08928 5.21289L5.25076 7.19568C5.17599 7.37247 5.17186 7.5712 5.23921 7.75095L6.31648 10.6261C6.36059 10.7438 6.4336 10.8486 6.52878 10.9307C6.62397 11.0129 6.73827 11.0698 6.8612 11.0962L8.87025 11.528C8.98173 11.552 9.08628 11.601 9.17595 11.6715C9.26562 11.7419 9.33805 11.8319 9.38773 11.9345L9.74451 12.6716C9.8059 12.7984 9.9018 12.9054 10.0212 12.9802C10.1406 13.0551 10.2787 13.0948 10.4196 13.0948H11.6789" stroke="white" stroke-width="1.5" stroke-linecap="round" stroke-linejoin="round"/>
<path d="M14.293 3.29492L15.168 4.86227C15.2508 5.01044 15.2808 5.18228 15.2532 5.34972C15.2256 5.51716 15.1421 5.6703 15.0162 5.78413L12.4933 8.06577C12.4505 8.1045 12.4034 8.13815 12.3528 8.16606L11.2052 8.79984C11.0942 8.86114 10.9694 8.8933 10.8426 8.8933H8.84149C8.69391 8.8933 8.54962 8.93683 8.42667 9.01845C8.30373 9.10007 8.20759 9.21615 8.1503 9.35214L7.36963 11.2054" stroke="white" stroke-width="1.5" stroke-linecap="round" stroke-linejoin="round"/>
</svg>
