<svg width="14" height="14" viewBox="0 0 14 14" fill="none" xmlns="http://www.w3.org/2000/svg">
<path d="M13.8885 5.60804L13.8882 5.60735C13.8296 5.42333 13.7169 5.26125 13.5648 5.14226C13.4127 5.02327 13.2282 4.95289 13.0355 4.9403L13.0352 4.94028L9.32333 4.68051L9.28411 4.67777L9.2696 4.64123L7.89265 1.17395L7.89248 1.17352C7.82253 0.993574 7.69985 0.838952 7.54051 0.72992C7.38118 0.620891 7.19263 0.562535 6.99956 0.5625C6.99956 0.5625 6.99956 0.5625 6.99955 0.5625L6.9987 0.5625C6.80593 0.562844 6.61776 0.621347 6.45878 0.730359C6.2998 0.839371 6.17742 0.993819 6.10763 1.17351L6.10739 1.17413L6.10738 1.17413L4.70992 4.66143L4.69527 4.698L4.65596 4.70055L0.964574 4.9403C0.771858 4.95289 0.58741 5.02327 0.435295 5.14226C0.283181 5.26125 0.170464 5.42333 0.11185 5.60735L0.11163 5.60804L0.111626 5.60804C0.0497173 5.79489 0.0455057 5.99606 0.09954 6.18534C0.153574 6.37463 0.263351 6.54326 0.414574 6.66927L0.414911 6.66955L3.25475 9.06994L3.28461 9.09518L3.27498 9.13307L2.43025 12.4558L2.43017 12.4562C2.37511 12.6678 2.38524 12.8911 2.45921 13.0969C2.53319 13.3027 2.66758 13.4814 2.84478 13.6095L2.84493 13.6096C3.01571 13.7339 3.21994 13.8038 3.43104 13.8104C3.64213 13.817 3.85032 13.7599 4.02851 13.6465L4.02861 13.6464L6.95656 11.7916C6.96231 11.7875 6.97477 11.7798 6.99229 11.7781C7.01232 11.7762 7.0285 11.783 7.0387 11.7886L7.04185 11.7904L7.0418 11.7905L10.1941 13.7875L10.1943 13.7877C10.3549 13.8902 10.5426 13.942 10.733 13.9361C10.9235 13.9302 11.1077 13.867 11.2616 13.7547L11.2618 13.7545C11.4214 13.6392 11.5424 13.4783 11.6091 13.293C11.6758 13.1076 11.6849 12.9065 11.6354 12.7159L11.6352 12.7152L10.7377 9.08531L10.7283 9.04731L10.7584 9.02227L13.5855 6.66927L13.8885 5.60804ZM13.8885 5.60804C13.9504 5.79489 13.9546 5.99606 13.9006 6.18534C13.8465 6.37462 13.7368 6.54324 13.5856 6.66925L13.8885 5.60804Z" fill="#39B54A" stroke="#39B54A" stroke-width="0.125"/>
</svg>
