<svg width="24" height="24" viewBox="0 0 24 24" fill="none" xmlns="http://www.w3.org/2000/svg">
<path d="M12 15.7501C14.0711 15.7501 15.75 14.0711 15.75 12.0001C15.75 9.92899 14.0711 8.25006 12 8.25006C9.92893 8.25006 8.25 9.92899 8.25 12.0001C8.25 14.0711 9.92893 15.7501 12 15.7501Z" stroke="#15421B" stroke-width="1.5" stroke-linecap="round" stroke-linejoin="round"/>
<path d="M16.125 3.37506H7.875C5.38972 3.37506 3.375 5.38978 3.375 7.87506V16.1251C3.375 18.6103 5.38972 20.6251 7.875 20.6251H16.125C18.6103 20.6251 20.625 18.6103 20.625 16.1251V7.87506C20.625 5.38978 18.6103 3.37506 16.125 3.37506Z" stroke="#15421B" stroke-width="1.5" stroke-linecap="round" stroke-linejoin="round"/>
<path d="M16.875 8.06256C17.3928 8.06256 17.8125 7.64283 17.8125 7.12506C17.8125 6.60729 17.3928 6.18756 16.875 6.18756C16.3572 6.18756 15.9375 6.60729 15.9375 7.12506C15.9375 7.64283 16.3572 8.06256 16.875 8.06256Z" fill="black" stroke="#4E4B66" stroke-width="1.5" stroke-linecap="round" stroke-linejoin="round"/>
</svg>
