<svg width="24" height="24" viewBox="0 0 24 24" fill="none" xmlns="http://www.w3.org/2000/svg">
<path d="M19.5 3.75006H4.5C4.08579 3.75006 3.75 4.08585 3.75 4.50006V19.5001C3.75 19.9143 4.08579 20.2501 4.5 20.2501H19.5C19.9142 20.2501 20.25 19.9143 20.25 19.5001V4.50006C20.25 4.08585 19.9142 3.75006 19.5 3.75006Z" stroke="#15421B" stroke-width="1.5" stroke-linecap="round" stroke-linejoin="round"/>
<path d="M11.25 10.5002V16.5002" stroke="#15421B" stroke-width="1.5" stroke-linecap="round" stroke-linejoin="round"/>
<path d="M8.25 10.5002V16.5002" stroke="black" stroke-width="1.5" stroke-linecap="round" stroke-linejoin="round"/>
<path d="M11.25 13.1252C11.25 12.429 11.5266 11.7613 12.0188 11.269C12.5111 10.7767 13.1788 10.5002 13.875 10.5002C14.5712 10.5002 15.2389 10.7767 15.7312 11.269C16.2234 11.7613 16.5 12.429 16.5 13.1252V16.5002" stroke="black" stroke-width="1.5" stroke-linecap="round" stroke-linejoin="round"/>
<path d="M8.25 8.43756C8.76777 8.43756 9.1875 8.01783 9.1875 7.50006C9.1875 6.98229 8.76777 6.56256 8.25 6.56256C7.73223 6.56256 7.3125 6.98229 7.3125 7.50006C7.3125 8.01783 7.73223 8.43756 8.25 8.43756Z" fill="black"/>
</svg>
