<svg width="24" height="24" viewBox="0 0 24 24" fill="none" xmlns="http://www.w3.org/2000/svg">
<path d="M11.4696 6.69656L13.3257 4.8404C13.7087 4.45707 14.1635 4.15295 14.664 3.94541C15.1645 3.73787 15.7011 3.63099 16.2429 3.63086C16.7848 3.63073 17.3214 3.73737 17.822 3.94467C18.3227 4.15198 18.7776 4.45589 19.1607 4.83904C19.5439 5.2222 19.8478 5.67709 20.0551 6.17773C20.2624 6.67838 20.369 7.21496 20.3689 7.75682C20.3688 8.29868 20.2619 8.83521 20.0543 9.33576C19.8468 9.8363 19.5427 10.2911 19.1594 10.674L16.5077 13.3257C16.1247 13.7087 15.6699 14.0126 15.1695 14.2199C14.669 14.4272 14.1326 14.5339 13.5909 14.5339C13.0492 14.5339 12.5128 14.4272 12.0123 14.2199C11.5118 14.0126 11.0571 13.7087 10.6741 13.3257" stroke="#15421B" stroke-width="1.5" stroke-linecap="round" stroke-linejoin="round"/>
<path d="M12.5304 17.3031L10.6743 19.1593C10.2913 19.5426 9.83655 19.8467 9.336 20.0543C8.83546 20.2618 8.29893 20.3687 7.75706 20.3688C7.2152 20.369 6.67862 20.2623 6.17798 20.055C5.67734 19.8477 5.22244 19.5438 4.83929 19.1606C4.45613 18.7775 4.15222 18.3226 3.94492 17.822C3.73761 17.3213 3.63098 16.7847 3.6311 16.2429C3.63123 15.701 3.73811 15.1645 3.94565 14.6639C4.15319 14.1634 4.45731 13.7086 4.84065 13.3257L7.4923 10.674C7.87534 10.291 8.33008 9.98712 8.83054 9.77982C9.33101 9.57252 9.86741 9.46582 10.4091 9.46582C10.9508 9.46582 11.4872 9.57252 11.9877 9.77982C12.4882 9.98712 12.9429 10.291 13.3259 10.674" stroke="black" stroke-width="1.5" stroke-linecap="round" stroke-linejoin="round"/>
</svg>
