<svg width="24" height="24" viewBox="0 0 24 24" fill="none" xmlns="http://www.w3.org/2000/svg">
<path d="M19.5 3.75H4.5C4.08579 3.75 3.75 4.08579 3.75 4.5V19.5C3.75 19.9142 4.08579 20.25 4.5 20.25H19.5C19.9142 20.25 20.25 19.9142 20.25 19.5V4.5C20.25 4.08579 19.9142 3.75 19.5 3.75Z" stroke="#15421B" stroke-width="1.5" stroke-linecap="round" stroke-linejoin="round"/>
<path d="M11.25 10.5V16.5" stroke="black" stroke-width="1.5" stroke-linecap="round" stroke-linejoin="round"/>
<path d="M8.25 10.5V16.5" stroke="black" stroke-width="1.5" stroke-linecap="round" stroke-linejoin="round"/>
<path d="M11.25 13.125C11.25 12.4288 11.5266 11.7611 12.0188 11.2688C12.5111 10.7766 13.1788 10.5 13.875 10.5C14.5712 10.5 15.2389 10.7766 15.7312 11.2688C16.2234 11.7611 16.5 12.4288 16.5 13.125V16.5" stroke="black" stroke-width="1.5" stroke-linecap="round" stroke-linejoin="round"/>
<path d="M8.25 8.4375C8.76777 8.4375 9.1875 8.01777 9.1875 7.5C9.1875 6.98223 8.76777 6.5625 8.25 6.5625C7.73223 6.5625 7.3125 6.98223 7.3125 7.5C7.3125 8.01777 7.73223 8.4375 8.25 8.4375Z" fill="black"/>
</svg>
