<svg width="146" height="48" viewBox="0 0 146 48" fill="none" xmlns="http://www.w3.org/2000/svg">
<path d="M36.671 23.9948C36.6688 27.0753 35.6011 30.0603 33.649 32.4433C31.6969 34.8264 28.9805 36.4608 25.9607 37.0695C25.2699 37.2113 24.5685 37.2955 23.8637 37.3211H23.3395C22.8455 37.3199 22.352 37.2919 21.8611 37.2372V10.7418C22.352 10.6871 22.8455 10.6591 23.3395 10.6579C26.8748 10.6621 30.2642 12.0687 32.7636 14.5691C35.263 17.0695 36.6683 20.4594 36.671 23.9948ZM13.3997 28.7654C13.401 30.5603 13.9141 32.3176 14.8788 33.8312C15.8436 35.3447 17.2201 36.5518 18.8467 37.3106V20.2202C17.2181 20.9775 15.8395 22.1839 14.8728 23.6976C13.9061 25.2112 13.3914 26.9694 13.3893 28.7654H13.3997ZM48 23.9948C48.001 28.7417 46.5943 33.3824 43.9578 37.3299C41.3213 41.2773 37.5734 44.3543 33.188 46.1716C28.8027 47.9889 23.9769 48.4649 19.3211 47.5395C14.6652 46.614 10.3883 44.3287 7.0313 40.9724C3.67432 37.6162 1.38802 33.3398 0.461548 28.6841C-0.464922 24.0284 0.0100507 19.2025 1.8264 14.8168C3.64275 10.4311 6.71889 6.68248 10.6658 4.04509C14.6127 1.40771 19.253 1.13249e-07 24 0C30.3616 0.00416863 36.4612 2.53386 40.9585 7.03314C45.4559 11.5324 47.9829 17.6332 47.9843 23.9948H48ZM39.481 23.9948C39.4818 21.5437 38.9243 19.1247 37.8506 16.9213C36.777 14.7179 35.2156 12.788 33.2848 11.2782C31.354 9.76833 29.1046 8.71815 26.7074 8.20737C24.3102 7.69659 21.8281 7.73862 19.4495 8.33027L18.8729 8.48231V18.0813C16.6876 18.8866 14.8019 20.3427 13.4699 22.2531C12.138 24.1636 11.4238 26.4365 11.4238 28.7654C11.4238 31.0943 12.138 33.3672 13.4699 35.2777C14.8019 37.1881 16.6876 38.6442 18.8729 39.4495C19.1507 39.5544 19.4286 39.6435 19.7117 39.7221L19.9843 39.7798C21.0855 40.0142 22.2083 40.1319 23.3342 40.1311H23.4495C27.7065 40.0938 31.7768 38.3779 34.7757 35.3564C37.7746 32.3349 39.4599 28.2519 39.4653 23.9948H39.481Z" fill="#39B54A"/>
<path d="M64.184 16.16C66.664 16.16 68.584 16.848 69.944 18.224C71.304 19.6 71.984 21.552 71.984 24.08C71.984 26.608 71.304 28.56 69.944 29.936C68.584 31.312 66.664 32 64.184 32H58.064V16.16H64.184ZM64.016 29.36C65.52 29.36 66.648 28.912 67.4 28.016C68.168 27.104 68.552 25.792 68.552 24.08C68.552 22.368 68.168 21.064 67.4 20.168C66.648 19.256 65.52 18.8 64.016 18.8H61.376V29.36H64.016ZM76.5637 18.272C75.2037 18.272 74.5237 17.688 74.5237 16.52C74.5237 15.336 75.2037 14.744 76.5637 14.744C77.9237 14.744 78.6037 15.336 78.6037 16.52C78.6037 17.688 77.9237 18.272 76.5637 18.272ZM78.1957 20V32H74.9077V20H78.1957ZM86.2171 32.24C85.2251 32.24 84.3371 31.992 83.5531 31.496C82.7851 31 82.1771 30.296 81.7291 29.384C81.2971 28.456 81.0811 27.336 81.0811 26.024C81.0811 24.696 81.3131 23.568 81.7771 22.64C82.2411 21.696 82.8651 20.984 83.6491 20.504C84.4491 20.008 85.3451 19.76 86.3371 19.76C87.2011 19.76 87.9451 19.968 88.5691 20.384C89.1931 20.8 89.6651 21.352 89.9851 22.04V14.744H93.2731V32H90.3211L90.1771 29.672C89.8411 30.472 89.3211 31.104 88.6171 31.568C87.9131 32.016 87.1131 32.24 86.2171 32.24ZM87.1771 29.72C88.0251 29.72 88.7051 29.392 89.2171 28.736C89.7291 28.064 89.9851 27.12 89.9851 25.904C89.9851 24.752 89.7291 23.864 89.2171 23.24C88.7211 22.6 88.0571 22.28 87.2251 22.28C86.3291 22.28 85.6251 22.6 85.1131 23.24C84.6171 23.864 84.3691 24.784 84.3691 26C84.3691 27.216 84.6171 28.144 85.1131 28.784C85.6091 29.408 86.2971 29.72 87.1771 29.72ZM103.568 24.344C103.568 23.656 103.368 23.12 102.968 22.736C102.584 22.352 102.072 22.16 101.432 22.16C100.84 22.16 100.32 22.312 99.872 22.616C99.424 22.92 99.096 23.424 98.888 24.128L96.08 23.264C96.352 22.208 96.944 21.36 97.856 20.72C98.784 20.08 100.024 19.76 101.576 19.76C103.144 19.76 104.408 20.136 105.368 20.888C106.344 21.624 106.832 22.728 106.832 24.2V29.072C106.832 29.68 107.12 29.984 107.696 29.984C107.968 29.984 108.224 29.944 108.464 29.864L108.272 31.904C107.856 32.112 107.336 32.216 106.712 32.216C106.024 32.216 105.424 32.072 104.912 31.784C104.416 31.496 104.08 31.064 103.904 30.488C103.52 31.064 102.968 31.504 102.248 31.808C101.544 32.096 100.816 32.24 100.064 32.24C98.848 32.24 97.88 31.968 97.16 31.424C96.456 30.864 96.104 30.056 96.104 29C96.104 28.104 96.392 27.376 96.968 26.816C97.544 26.24 98.368 25.848 99.44 25.64L103.568 24.8V24.344ZM99.392 28.688C99.392 29.088 99.536 29.392 99.824 29.6C100.128 29.808 100.488 29.912 100.904 29.912C101.368 29.912 101.8 29.84 102.2 29.696C102.6 29.552 102.928 29.312 103.184 28.976C103.44 28.624 103.568 28.16 103.568 27.584V26.84L101.048 27.344C100.504 27.456 100.088 27.608 99.8 27.8C99.528 27.976 99.392 28.272 99.392 28.688ZM113.749 14.744V28.304C113.749 28.864 113.845 29.256 114.037 29.48C114.229 29.704 114.549 29.816 114.997 29.816C115.269 29.816 115.493 29.8 115.669 29.768C115.845 29.736 116.069 29.672 116.341 29.576L116.053 31.736C115.781 31.896 115.437 32.016 115.021 32.096C114.621 32.192 114.221 32.24 113.821 32.24C112.653 32.24 111.797 31.96 111.253 31.4C110.725 30.824 110.461 29.912 110.461 28.664V14.744H113.749ZM121.413 14.744V28.304C121.413 28.864 121.509 29.256 121.701 29.48C121.893 29.704 122.213 29.816 122.661 29.816C122.933 29.816 123.157 29.8 123.333 29.768C123.509 29.736 123.733 29.672 124.005 29.576L123.717 31.736C123.445 31.896 123.101 32.016 122.685 32.096C122.285 32.192 121.885 32.24 121.485 32.24C120.317 32.24 119.461 31.96 118.917 31.4C118.389 30.824 118.125 29.912 118.125 28.664V14.744H121.413ZM132.795 24.344C132.795 23.656 132.595 23.12 132.195 22.736C131.811 22.352 131.299 22.16 130.659 22.16C130.067 22.16 129.547 22.312 129.099 22.616C128.651 22.92 128.323 23.424 128.115 24.128L125.307 23.264C125.579 22.208 126.171 21.36 127.083 20.72C128.011 20.08 129.251 19.76 130.803 19.76C132.371 19.76 133.635 20.136 134.595 20.888C135.571 21.624 136.059 22.728 136.059 24.2V29.072C136.059 29.68 136.347 29.984 136.923 29.984C137.195 29.984 137.451 29.944 137.691 29.864L137.499 31.904C137.083 32.112 136.563 32.216 135.939 32.216C135.251 32.216 134.651 32.072 134.139 31.784C133.643 31.496 133.307 31.064 133.131 30.488C132.747 31.064 132.195 31.504 131.475 31.808C130.771 32.096 130.043 32.24 129.291 32.24C128.075 32.24 127.107 31.968 126.387 31.424C125.683 30.864 125.331 30.056 125.331 29C125.331 28.104 125.619 27.376 126.195 26.816C126.771 26.24 127.595 25.848 128.667 25.64L132.795 24.8V24.344ZM128.619 28.688C128.619 29.088 128.763 29.392 129.051 29.6C129.355 29.808 129.715 29.912 130.131 29.912C130.595 29.912 131.027 29.84 131.427 29.696C131.827 29.552 132.155 29.312 132.411 28.976C132.667 28.624 132.795 28.16 132.795 27.584V26.84L130.275 27.344C129.731 27.456 129.315 27.608 129.027 27.8C128.755 27.976 128.619 28.272 128.619 28.688ZM141.65 28.328C142.29 28.328 142.794 28.504 143.162 28.856C143.546 29.208 143.738 29.68 143.738 30.272C143.738 30.88 143.546 31.36 143.162 31.712C142.794 32.048 142.29 32.216 141.65 32.216C140.994 32.216 140.482 32.048 140.114 31.712C139.746 31.36 139.562 30.88 139.562 30.272C139.562 29.68 139.746 29.208 140.114 28.856C140.482 28.504 140.994 28.328 141.65 28.328Z" fill="#04023B"/>
</svg>
