<svg width="131" height="32" viewBox="0 0 131 32" fill="none" xmlns="http://www.w3.org/2000/svg">
<path d="M24.4474 15.9965C24.4459 18.0502 23.7341 20.0402 22.4327 21.6289C21.1312 23.2176 19.3204 24.3072 17.3071 24.713C16.8466 24.8076 16.379 24.8637 15.9091 24.8807H15.5596C15.2303 24.8799 14.9013 24.8613 14.5741 24.8248V7.16121C14.9013 7.12476 15.2303 7.10609 15.5596 7.10529C17.9166 7.10806 20.1761 8.04582 21.8424 9.71274C23.5086 11.3797 24.4455 13.6396 24.4474 15.9965ZM8.93316 19.1769C8.93398 20.3735 9.27604 21.5451 9.91923 22.5541C10.5624 23.5632 11.48 24.3678 12.5644 24.8737V13.4801C11.4787 13.985 10.5597 14.7893 9.91519 15.7984C9.27071 16.8075 8.9276 17.9796 8.92617 19.1769H8.93316ZM32 15.9965C32.0007 19.1612 31.0629 22.2549 29.3052 24.8866C27.5475 27.5182 25.0489 29.5695 22.1254 30.7811C19.2018 31.9926 15.9846 32.31 12.8807 31.693C9.77678 31.076 6.92552 29.5524 4.68753 27.3149C2.44954 25.0774 0.925345 22.2265 0.307699 19.1227C-0.309948 16.0189 0.00670047 12.8017 1.2176 9.87787C2.4285 6.95405 4.47926 4.45499 7.11052 2.69673C9.74178 0.938473 12.8354 7.54995e-08 16 0C20.241 0.00277909 24.3075 1.68924 27.3057 4.68876C30.3039 7.68829 31.9886 11.7555 31.9895 15.9965H32ZM26.3207 15.9965C26.3212 14.3625 25.9495 12.7498 25.2338 11.2809C24.518 9.81194 23.477 8.52537 22.1899 7.51879C20.9027 6.51222 19.4031 5.8121 17.8049 5.47158C16.2068 5.13106 14.5521 5.15908 12.9664 5.55352L12.5819 5.65487V12.0542C11.1251 12.5911 9.86793 13.5618 8.97995 14.8354C8.09197 16.109 7.61588 17.6243 7.61588 19.1769C7.61588 20.7295 8.09197 22.2448 8.97995 23.5185C9.86793 24.7921 11.1251 25.7628 12.5819 26.2997C12.7672 26.3696 12.9524 26.429 13.1411 26.4814L13.3229 26.5199C14.057 26.6761 14.8056 26.7546 15.5561 26.754H15.633C18.471 26.7292 21.1845 25.5853 23.1838 23.5709C25.1831 21.5566 26.3066 18.8346 26.3102 15.9965H26.3207Z" fill="#39B54A"/>
<path d="M48.472 8.66C50.952 8.66 52.848 9.348 54.16 10.724C55.488 12.1 56.152 14.052 56.152 16.58C56.152 19.108 55.488 21.06 54.16 22.436C52.848 23.812 50.952 24.5 48.472 24.5H41.752V8.66H48.472ZM48.064 21.38C49.408 21.38 50.384 20.98 50.992 20.18C51.616 19.364 51.928 18.164 51.928 16.58C51.928 14.996 51.616 13.804 50.992 13.004C50.384 12.188 49.408 11.78 48.064 11.78H45.88V21.38H48.064ZM60.6837 11.108C59.8517 11.108 59.2437 10.956 58.8597 10.652C58.4917 10.332 58.3077 9.836 58.3077 9.164C58.3077 8.476 58.4917 7.98 58.8597 7.676C59.2437 7.356 59.8517 7.196 60.6837 7.196C61.4997 7.196 62.0997 7.356 62.4837 7.676C62.8677 7.98 63.0597 8.476 63.0597 9.164C63.0597 9.836 62.8677 10.332 62.4837 10.652C62.0997 10.956 61.4997 11.108 60.6837 11.108ZM62.7237 12.5V24.5H58.6437V12.5H62.7237ZM70.0441 24.74C68.5561 24.74 67.3561 24.196 66.4441 23.108C65.5481 22.02 65.1001 20.5 65.1001 18.548C65.1001 17.204 65.3081 16.068 65.7241 15.14C66.1561 14.196 66.7481 13.484 67.5001 13.004C68.2681 12.508 69.1481 12.26 70.1401 12.26C70.9881 12.26 71.7081 12.468 72.3001 12.884C72.9081 13.3 73.3641 13.852 73.6681 14.54V7.412H77.7481V24.5H74.1001L73.9561 22.148C73.6201 22.948 73.1081 23.58 72.4201 24.044C71.7481 24.508 70.9561 24.74 70.0441 24.74ZM71.4601 21.74C72.1321 21.74 72.6681 21.46 73.0681 20.9C73.4681 20.34 73.6681 19.516 73.6681 18.428C73.6681 17.42 73.4761 16.644 73.0921 16.1C72.7081 15.54 72.1721 15.26 71.4841 15.26C70.7801 15.26 70.2201 15.524 69.8041 16.052C69.4041 16.564 69.2041 17.38 69.2041 18.5C69.2041 19.62 69.4041 20.444 69.8041 20.972C70.2041 21.484 70.7561 21.74 71.4601 21.74ZM87.3709 16.892C87.3709 16.332 87.2109 15.892 86.8909 15.572C86.5869 15.236 86.1709 15.068 85.6429 15.068C85.1149 15.068 84.6589 15.204 84.2749 15.476C83.9069 15.732 83.6509 16.196 83.5069 16.868L80.0509 16.052C80.2749 14.9 80.8669 13.98 81.8269 13.292C82.7869 12.604 84.1389 12.26 85.8829 12.26C87.6429 12.26 89.0029 12.652 89.9629 13.436C90.9389 14.204 91.4269 15.332 91.4269 16.82V21.212C91.4269 21.836 91.7069 22.148 92.2669 22.148C92.5549 22.148 92.7869 22.116 92.9629 22.052L92.7229 24.38C92.2429 24.604 91.6589 24.716 90.9709 24.716C90.2189 24.716 89.5709 24.572 89.0269 24.284C88.4829 23.98 88.1149 23.524 87.9229 22.916C87.5869 23.54 87.0509 24.004 86.3149 24.308C85.5949 24.596 84.8269 24.74 84.0109 24.74C82.7789 24.74 81.7949 24.46 81.0589 23.9C80.3389 23.324 79.9789 22.5 79.9789 21.428C79.9789 20.564 80.2349 19.852 80.7469 19.292C81.2749 18.716 82.0989 18.316 83.2189 18.092L87.3709 17.228V16.892ZM84.0109 21.044C84.0109 21.396 84.1389 21.66 84.3949 21.836C84.6509 22.012 84.9549 22.1 85.3069 22.1C85.8509 22.1 86.3309 21.94 86.7469 21.62C87.1629 21.284 87.3709 20.764 87.3709 20.06V19.388L85.4269 19.796C84.9469 19.892 84.5869 20.036 84.3469 20.228C84.1229 20.404 84.0109 20.676 84.0109 21.044ZM98.6054 7.412V20.42C98.6054 20.948 98.6934 21.324 98.8694 21.548C99.0454 21.772 99.3414 21.884 99.7574 21.884C99.9974 21.884 100.197 21.868 100.357 21.836C100.517 21.804 100.709 21.756 100.933 21.692L100.669 24.14C100.381 24.316 100.005 24.46 99.5414 24.572C99.0774 24.684 98.6214 24.74 98.1734 24.74C96.8934 24.74 95.9654 24.444 95.3894 23.852C94.8134 23.26 94.5254 22.292 94.5254 20.948V7.412H98.6054ZM106.457 7.412V20.42C106.457 20.948 106.545 21.324 106.721 21.548C106.897 21.772 107.193 21.884 107.609 21.884C107.849 21.884 108.049 21.868 108.209 21.836C108.369 21.804 108.561 21.756 108.785 21.692L108.521 24.14C108.233 24.316 107.857 24.46 107.393 24.572C106.929 24.684 106.473 24.74 106.025 24.74C104.745 24.74 103.817 24.444 103.241 23.852C102.665 23.26 102.377 22.292 102.377 20.948V7.412H106.457ZM117.16 16.892C117.16 16.332 117 15.892 116.68 15.572C116.376 15.236 115.96 15.068 115.432 15.068C114.904 15.068 114.448 15.204 114.064 15.476C113.696 15.732 113.44 16.196 113.296 16.868L109.84 16.052C110.064 14.9 110.656 13.98 111.616 13.292C112.576 12.604 113.928 12.26 115.672 12.26C117.432 12.26 118.792 12.652 119.752 13.436C120.728 14.204 121.216 15.332 121.216 16.82V21.212C121.216 21.836 121.496 22.148 122.056 22.148C122.344 22.148 122.576 22.116 122.752 22.052L122.512 24.38C122.032 24.604 121.448 24.716 120.76 24.716C120.008 24.716 119.36 24.572 118.816 24.284C118.272 23.98 117.904 23.524 117.712 22.916C117.376 23.54 116.84 24.004 116.104 24.308C115.384 24.596 114.616 24.74 113.8 24.74C112.568 24.74 111.584 24.46 110.848 23.9C110.128 23.324 109.768 22.5 109.768 21.428C109.768 20.564 110.024 19.852 110.536 19.292C111.064 18.716 111.888 18.316 113.008 18.092L117.16 17.228V16.892ZM113.8 21.044C113.8 21.396 113.928 21.66 114.184 21.836C114.44 22.012 114.744 22.1 115.096 22.1C115.64 22.1 116.12 21.94 116.536 21.62C116.952 21.284 117.16 20.764 117.16 20.06V19.388L115.216 19.796C114.736 19.892 114.376 20.036 114.136 20.228C113.912 20.404 113.8 20.676 113.8 21.044ZM126.8 20.372C127.552 20.372 128.136 20.564 128.552 20.948C128.984 21.332 129.2 21.868 129.2 22.556C129.2 23.228 128.984 23.756 128.552 24.14C128.136 24.524 127.552 24.716 126.8 24.716C126.048 24.716 125.456 24.524 125.024 24.14C124.608 23.756 124.4 23.228 124.4 22.556C124.4 21.868 124.608 21.332 125.024 20.948C125.456 20.564 126.048 20.372 126.8 20.372Z" fill="white"/>
</svg>
