<svg width="231" height="207" viewBox="0 0 231 207" fill="none" xmlns="http://www.w3.org/2000/svg">
<path d="M198.942 23.2413C195.07 21.1253 193.314 22.8876 191.905 21.1253C190.497 19.3631 195.777 14.7898 185.198 10.2165C185.198 10.2165 184.496 0.362638 170.063 0.00897038C155.63 -0.344697 159.52 9.86287 155.648 12.3263C151.776 14.7898 150.721 10.9422 146.849 13.3813C142.977 15.8203 144.739 20.7717 141.575 21.4729C138.41 22.1742 134.178 18.3082 130.306 20.7717C126.434 23.2352 126.434 25.345 124.678 25.345C122.922 25.345 119.397 23.9364 117.287 25.345C115.178 26.7535 112.708 28.5158 112.708 28.5158H201.735C201.735 28.5158 202.814 25.3511 198.942 23.2413Z" fill="#39B54A"/>
<path opacity="0.5" d="M198.942 23.2413C195.07 21.1253 193.314 22.8876 191.905 21.1253C190.497 19.3631 195.777 14.7898 185.198 10.2165C185.198 10.2165 184.496 0.362638 170.063 0.00897038C155.63 -0.344697 159.52 9.86287 155.648 12.3263C151.776 14.7898 150.721 10.9422 146.849 13.3813C142.977 15.8203 144.739 20.7717 141.575 21.4729C138.41 22.1742 134.178 18.3082 130.306 20.7717C126.434 23.2352 126.434 25.345 124.678 25.345C122.922 25.345 119.397 23.9364 117.287 25.345C115.178 26.7535 112.708 28.5158 112.708 28.5158H201.735C201.735 28.5158 202.814 25.3511 198.942 23.2413Z" fill="white"/>
<path d="M97.9822 102.347C95.2626 100.866 94.0247 102.097 93.0369 100.866C92.0491 99.6338 95.7565 96.4142 88.3417 93.2007C88.3417 93.2007 87.8478 86.2798 77.7073 86.0298C67.5668 85.7798 70.2924 92.9507 67.5729 94.6825C64.8533 96.4142 64.1154 93.6946 61.3959 95.4264C58.6763 97.1581 59.908 100.616 57.6885 101.109C55.4689 101.603 52.4932 98.8838 49.7614 100.616C47.0297 102.347 47.0419 103.829 45.8101 103.829C44.5784 103.829 42.0966 102.841 40.6149 103.829C39.1331 104.817 37.4014 106.055 37.4014 106.055H99.9578C99.9578 106.055 100.702 103.829 97.9822 102.347Z" fill="white"/>
<path opacity="0.5" d="M97.9822 102.347C95.2626 100.866 94.0247 102.097 93.0369 100.866C92.0491 99.6338 95.7565 96.4142 88.3417 93.2007C88.3417 93.2007 87.8478 86.2798 77.7073 86.0298C67.5668 85.7798 70.2924 92.9507 67.5729 94.6825C64.8533 96.4142 64.1154 93.6946 61.3959 95.4264C58.6763 97.1581 59.908 100.616 57.6885 101.109C55.4689 101.603 52.4932 98.8838 49.7614 100.616C47.0297 102.347 47.0419 103.829 45.8101 103.829C44.5784 103.829 42.0966 102.841 40.6149 103.829C39.1331 104.817 37.4014 106.055 37.4014 106.055H99.9578C99.9578 106.055 100.702 103.829 97.9822 102.347Z" fill="white"/>
<path d="M175.295 205.38H213.832C213.094 200.666 210.064 201.496 209.661 194.191C209.46 190.532 212.869 185.959 212.57 181.129C212.326 177.147 208.405 173.068 208.1 168.513C207.826 164.403 211.149 159.842 210.85 155.415C210.539 151.232 206.582 147.214 206.21 142.86C205.869 138.592 209.149 134.012 208.759 129.719C208.369 125.427 204.326 121.481 203.881 117.25C203.436 112.902 206.613 108.219 206.125 104.06C205.613 99.6395 201.442 95.8223 200.875 91.749C200.265 87.2184 203.198 82.3768 202.509 78.4621C201.661 73.6693 197.198 70.1997 196.259 66.663C194.509 60.0714 194.728 53.7237 192.661 53.309C190.46 52.87 189.954 59.0958 188.283 66.0532C187.441 69.5472 183.081 73.09 182.362 77.8889C181.783 81.7731 184.868 86.4989 184.362 91.0112C183.911 95.054 179.844 98.9382 179.447 103.335C179.075 107.469 182.374 112.024 182.051 116.347C181.734 120.549 177.783 124.555 177.52 128.823C177.258 133.092 180.648 137.555 180.417 141.769C180.179 146.086 176.307 150.165 176.106 154.318C175.898 158.714 179.368 163.147 179.197 167.22C179.008 171.739 175.191 175.873 175.051 179.824C174.88 184.617 178.398 189.038 178.289 192.691C178.057 200.618 174.429 198.965 174.301 205.343L175.295 205.38Z" fill="#39B54A"/>
<path d="M191.838 65.9746V203.6" stroke="black" stroke-miterlimit="10"/>
<path d="M197.856 80.4015L191.582 85.8223L186.447 78.9746" stroke="black" stroke-miterlimit="10"/>
<path d="M197.856 104.359L191.582 109.773L186.447 102.932" stroke="black" stroke-miterlimit="10"/>
<path d="M197.856 126.884L191.582 132.305L186.447 125.457" stroke="black" stroke-miterlimit="10"/>
<path d="M197.856 153.696L191.582 159.111L186.447 152.27" stroke="black" stroke-miterlimit="10"/>
<path d="M197.856 180.788L191.582 186.203L186.447 179.361" stroke="black" stroke-miterlimit="10"/>
<path d="M149.044 205.38H178.795C178.222 201.721 175.886 202.379 175.575 196.745C175.417 193.904 178.045 190.391 177.819 186.66C177.63 183.611 174.606 180.434 174.368 176.903C174.154 173.732 176.74 170.196 176.49 166.793C176.252 163.561 173.185 160.464 172.91 157.104C172.636 153.744 175.179 150.268 174.88 146.957C174.581 143.646 171.453 140.597 171.124 137.335C170.782 133.975 173.234 130.366 172.856 127.146C172.459 123.737 169.24 120.792 168.807 117.652C168.319 114.152 170.599 110.414 170.063 107.395C169.41 103.694 165.965 101.011 165.246 98.2854C163.892 93.1999 164.063 88.2913 162.465 87.9742C160.764 87.6327 160.374 92.4377 159.087 97.8159C158.441 100.511 155.069 103.249 154.514 106.962C154.068 109.963 156.447 113.609 156.056 117.091C155.709 120.213 152.575 123.188 152.264 126.603C151.977 129.792 154.526 133.311 154.276 136.646C154.032 139.89 150.989 142.982 150.776 146.274C150.562 149.567 153.215 153.018 153.014 156.269C152.812 159.519 149.843 162.75 149.69 165.958C149.526 169.348 152.203 172.769 152.075 175.915C151.928 179.403 148.983 182.623 148.873 185.672C148.739 189.367 151.459 192.788 151.373 195.599C151.19 201.697 148.392 200.447 148.294 205.355L149.044 205.38Z" fill="#39B54A"/>
<path d="M161.818 97.7734V204.008" stroke="black" stroke-miterlimit="10"/>
<path d="M166.459 108.908L161.618 113.091L157.654 107.805" stroke="black" stroke-miterlimit="10"/>
<path d="M166.459 127.396L161.618 131.579L157.654 126.299" stroke="black" stroke-miterlimit="10"/>
<path d="M166.459 144.787L161.618 148.97L157.654 143.689" stroke="black" stroke-miterlimit="10"/>
<path d="M166.459 165.483L161.618 169.666L157.654 164.379" stroke="black" stroke-miterlimit="10"/>
<path d="M166.459 186.399L161.618 190.576L157.654 185.295" stroke="black" stroke-miterlimit="10"/>
<path d="M122.525 205.094V81.8105H129.032V205.094" fill="#2E353A"/>
<path d="M122.525 205.094V81.8105H129.032V205.094" stroke="#2E353A" stroke-linecap="round" stroke-linejoin="round"/>
<path d="M119.275 205.094V81.8105H125.782V205.094" fill="#39B54A"/>
<path d="M119.275 205.094V81.8105H125.782V205.094" stroke="#2E353A" stroke-linecap="round" stroke-linejoin="round"/>
<g style="mix-blend-mode:multiply" opacity="0.3">
<path d="M125.782 81.8105H119.275V96.4451H125.782V81.8105Z" fill="#2E353A"/>
</g>
<path d="M147.038 33.6816H98.8291L119.842 85.2927H168.056V54.6944C168.056 51.9344 167.513 49.2015 166.456 46.6517C165.4 44.102 163.852 41.7853 161.9 39.834C159.948 37.8827 157.631 36.335 155.081 35.2794C152.531 34.2238 149.798 33.6808 147.038 33.6816Z" fill="#39B54A" stroke="#2E353A" stroke-linecap="round" stroke-linejoin="round"/>
<g style="mix-blend-mode:multiply" opacity="0.3">
<path d="M116.165 76.2562L119.824 85.2931H168.057V54.6947C168.057 54.2313 168.057 53.7679 168.008 53.3105H116.177L116.165 76.2562Z" fill="black"/>
</g>
<path d="M146.685 53.3105H141.611" stroke="#2E353A" stroke-linecap="round" stroke-linejoin="round"/>
<path d="M168.008 53.3105H152.654" stroke="#2E353A" stroke-linecap="round" stroke-linejoin="round"/>
<path d="M98.8294 33.6816C104.404 33.6816 109.75 35.8961 113.692 39.8379C117.634 43.7797 119.848 49.1259 119.848 54.7005V85.2988H77.8105V54.6944C77.8122 49.1209 80.0274 43.7762 83.969 39.8358C87.9106 35.8953 93.2559 33.6816 98.8294 33.6816Z" fill="#2E353A" stroke="#2E353A" stroke-linecap="round" stroke-linejoin="round"/>
<path d="M119.842 81.8105H83.6221V85.2923H119.842V81.8105Z" fill="#39B54A" stroke="#2E353A" stroke-linecap="round" stroke-linejoin="round"/>
<path d="M119.842 81.8105H44.8828V85.2923H119.842V81.8105Z" fill="#39B54A" stroke="#2E353A" stroke-linecap="round" stroke-linejoin="round"/>
<path opacity="0.3" d="M119.842 81.8105H83.6221V85.2923H119.842V81.8105Z" fill="black"/>
<path d="M150.172 21.2422H135.129V31.8095H150.172V21.2422Z" fill="#2E353A" stroke="#2E353A" stroke-linecap="round" stroke-linejoin="round"/>
<path d="M136.349 21.2422H133.099V54.1698H136.349V21.2422Z" fill="white" stroke="#2E353A" stroke-linecap="round" stroke-linejoin="round"/>
<path d="M134.72 58.6395C136.741 58.6395 138.379 57.0015 138.379 54.9809C138.379 52.9603 136.741 51.3223 134.72 51.3223C132.7 51.3223 131.062 52.9603 131.062 54.9809C131.062 57.0015 132.7 58.6395 134.72 58.6395Z" fill="#2E353A" stroke="#2E353A" stroke-linecap="round" stroke-linejoin="round"/>
<path d="M81.0674 42.1328C89.5554 46.4439 104.312 53.3526 117.922 56.8283" stroke="white" stroke-linecap="round" stroke-linejoin="round" stroke-dasharray="2 4"/>
<path d="M73.9453 38.3828C73.9453 38.3828 76.6649 39.9194 81.0674 42.1573" stroke="#2E353A" stroke-linecap="round" stroke-linejoin="round" stroke-dasharray="2 4"/>
<path d="M70.89 38.1568L76.9938 23.6565L32.7305 12.8574L70.89 38.1568Z" fill="white" stroke="#2E353A" stroke-width="1.2629" stroke-linecap="round" stroke-linejoin="round"/>
<path d="M73.8656 25.4126L70.89 38.1568L32.7305 12.8574L73.8656 25.4126Z" fill="#39B54A" stroke="#2E353A" stroke-width="1.2629" stroke-linecap="round" stroke-linejoin="round"/>
<path d="M73.8656 25.4126L66.9203 31.364L32.7305 12.8574L73.8656 25.4126Z" fill="white" stroke="#2E353A" stroke-width="1.2629" stroke-linecap="round" stroke-linejoin="round"/>
<path d="M76.9938 23.6565L83.1769 21.1442L32.7305 12.8574L76.9938 23.6565Z" fill="white" stroke="#2E353A" stroke-width="1.2629" stroke-linecap="round" stroke-linejoin="round"/>
<path d="M62.292 35.9004L63.7249 36.7785" stroke="#2E353A" stroke-linecap="round" stroke-linejoin="round"/>
<path d="M54.4746 31.1074L59.2735 34.0465" stroke="#2E353A" stroke-linecap="round" stroke-linejoin="round"/>
<path d="M49.085 65.9135V50.1875L94.0739 57.4194L49.085 65.9135Z" fill="white" stroke="#2E353A" stroke-width="1.2629" stroke-linecap="round" stroke-linejoin="round"/>
<path d="M51.2862 53.0176L49.085 65.9142L94.0739 57.4201L51.2862 53.0176Z" fill="#39B54A" stroke="#2E353A" stroke-width="1.2629" stroke-linecap="round" stroke-linejoin="round"/>
<path d="M51.2861 53.0176L55.3777 61.1946L94.0738 57.4201L51.2861 53.0176Z" fill="white" stroke="#2E353A" stroke-width="1.2629" stroke-linecap="round" stroke-linejoin="round"/>
<path d="M49.0849 50.1884L44.3652 45.4688L94.0738 57.4203L49.0849 50.1884Z" fill="white" stroke="#2E353A" stroke-width="1.2629" stroke-linecap="round" stroke-linejoin="round"/>
<path d="M65.1943 65.6208L69.0969 64.8281" stroke="#2E353A" stroke-linecap="round" stroke-linejoin="round"/>
<path d="M51.4873 68.408L61.2985 66.4141" stroke="#2E353A" stroke-linecap="round" stroke-linejoin="round"/>
<path d="M43.6637 64.9434C43.6637 64.9434 8.29692 71.0411 1.58944 102.749C-5.11805 134.457 30.2487 136.287 36.3464 121.042C42.4441 105.798 15.6142 99.7003 9.51646 114.335C3.41875 128.969 21.7119 153.97 46.7125 155.19C67.4874 156.202 125.733 131.951 161.959 125.823C161.959 125.823 188.789 118.396 230.254 120.024" stroke="#2E353A" stroke-linecap="round" stroke-linejoin="round" stroke-dasharray="2 4"/>
<path d="M218.259 164.336H228.424" stroke="#2E353A" stroke-linecap="round" stroke-linejoin="round"/>
<path d="M218.259 179.373H228.424" stroke="#2E353A" stroke-linecap="round" stroke-linejoin="round"/>
<path d="M4.22949 178.97H217.04V164.738H4.22949" fill="white"/>
<path d="M4.22949 178.97H217.04V164.738H4.22949" stroke="#2E353A" stroke-linecap="round" stroke-linejoin="round"/>
<path d="M19.0225 205.191V133.592C19.0226 133.416 19.0583 133.242 19.1275 133.081C19.1967 132.919 19.2978 132.774 19.4249 132.652L24.986 127.415C25.2365 127.18 25.5693 127.055 25.912 127.065C26.2547 127.075 26.5794 127.221 26.8153 127.469L31.6935 132.659C31.9148 132.9 32.0387 133.215 32.0411 133.543V205.191" fill="#2E353A"/>
<path d="M19.0225 205.191V133.592C19.0226 133.416 19.0583 133.242 19.1275 133.081C19.1967 132.919 19.2978 132.774 19.4249 132.652L24.986 127.415C25.2365 127.18 25.5693 127.055 25.912 127.065C26.2547 127.075 26.5794 127.221 26.8153 127.469L31.6935 132.659C31.9148 132.9 32.0387 133.215 32.0411 133.543V205.191" stroke="#2E353A" stroke-linecap="round" stroke-linejoin="round"/>
<path d="M17.4434 205.801V133.592C17.4432 133.416 17.4794 133.242 17.5497 133.08C17.62 132.918 17.7229 132.773 17.8519 132.653L23.413 127.415C23.5367 127.298 23.6821 127.207 23.841 127.147C23.9999 127.086 24.1691 127.058 24.3391 127.063C24.509 127.068 24.6762 127.107 24.8312 127.177C24.9862 127.246 25.1259 127.346 25.2423 127.47L30.1205 132.659C30.3444 132.899 30.4686 133.215 30.4681 133.543V205.801" fill="white"/>
<path d="M17.4434 205.801V133.592C17.4432 133.416 17.4794 133.242 17.5497 133.08C17.62 132.918 17.7229 132.773 17.8519 132.653L23.413 127.415C23.5367 127.298 23.6821 127.207 23.841 127.147C23.9999 127.086 24.1691 127.058 24.3391 127.063C24.509 127.068 24.6762 127.107 24.8312 127.177C24.9862 127.246 25.1259 127.346 25.2423 127.47L30.1205 132.659C30.3444 132.899 30.4686 133.215 30.4681 133.543V205.801" stroke="#2E353A" stroke-linecap="round" stroke-linejoin="round"/>
<path d="M65.9141 205.191V133.592C65.9142 133.416 65.9499 133.243 66.0191 133.081C66.0882 132.92 66.1894 132.774 66.3165 132.653L71.8837 127.415C72.0073 127.298 72.1528 127.207 72.3117 127.147C72.4706 127.086 72.6398 127.058 72.8098 127.063C72.9797 127.068 73.1469 127.107 73.3019 127.177C73.4569 127.246 73.5966 127.346 73.713 127.47L78.5912 132.659C78.8151 132.899 78.9393 133.215 78.9388 133.543V205.191" fill="#2E353A"/>
<path d="M65.9141 205.191V133.592C65.9142 133.416 65.9499 133.243 66.0191 133.081C66.0882 132.92 66.1894 132.774 66.3165 132.653L71.8837 127.415C72.0073 127.298 72.1528 127.207 72.3117 127.147C72.4706 127.086 72.6398 127.058 72.8098 127.063C72.9797 127.068 73.1469 127.107 73.3019 127.177C73.4569 127.246 73.5966 127.346 73.713 127.47L78.5912 132.659C78.8151 132.899 78.9393 133.215 78.9388 133.543V205.191" stroke="#2E353A" stroke-linecap="round" stroke-linejoin="round"/>
<path d="M64.5967 205.801V133.592C64.5965 133.415 64.6327 133.241 64.703 133.079C64.7733 132.918 64.8762 132.772 65.0052 132.652L70.5663 127.415C70.8168 127.18 71.1496 127.055 71.4923 127.065C71.835 127.075 72.1597 127.221 72.3957 127.469L77.2738 132.659C77.4994 132.898 77.6258 133.214 77.6275 133.543V205.801" fill="white"/>
<path d="M64.5967 205.801V133.592C64.5965 133.415 64.6327 133.241 64.703 133.079C64.7733 132.918 64.8762 132.772 65.0052 132.652L70.5663 127.415C70.8168 127.18 71.1496 127.055 71.4923 127.065C71.835 127.075 72.1597 127.221 72.3957 127.469L77.2738 132.659C77.4994 132.898 77.6258 133.214 77.6275 133.543V205.801" stroke="#2E353A" stroke-linecap="round" stroke-linejoin="round"/>
<path d="M113.067 205.191V133.592C113.067 133.415 113.103 133.241 113.174 133.079C113.244 132.918 113.347 132.772 113.476 132.652L119.037 127.415C119.287 127.18 119.62 127.055 119.963 127.065C120.306 127.075 120.63 127.221 120.866 127.469L125.745 132.659C125.97 132.898 126.096 133.214 126.098 133.543V205.801" fill="#2E353A"/>
<path d="M113.067 205.191V133.592C113.067 133.415 113.103 133.241 113.174 133.079C113.244 132.918 113.347 132.772 113.476 132.652L119.037 127.415C119.287 127.18 119.62 127.055 119.963 127.065C120.306 127.075 120.63 127.221 120.866 127.469L125.745 132.659C125.97 132.898 126.096 133.214 126.098 133.543V205.801" stroke="#2E353A" stroke-linecap="round" stroke-linejoin="round"/>
<path d="M111.757 205.801V133.592C111.757 133.416 111.793 133.243 111.862 133.081C111.931 132.92 112.032 132.774 112.159 132.653L117.726 127.415C117.85 127.298 117.996 127.207 118.154 127.147C118.313 127.086 118.483 127.058 118.653 127.063C118.822 127.068 118.99 127.107 119.145 127.177C119.3 127.246 119.439 127.346 119.556 127.47L124.434 132.659C124.658 132.899 124.782 133.215 124.782 133.543V205.801" fill="white"/>
<path d="M111.757 205.801V133.592C111.757 133.416 111.793 133.243 111.862 133.081C111.931 132.92 112.032 132.774 112.159 132.653L117.726 127.415C117.85 127.298 117.996 127.207 118.154 127.147C118.313 127.086 118.483 127.058 118.653 127.063C118.822 127.068 118.99 127.107 119.145 127.177C119.3 127.246 119.439 127.346 119.556 127.47L124.434 132.659C124.658 132.899 124.782 133.215 124.782 133.543V205.801" stroke="#2E353A" stroke-linecap="round" stroke-linejoin="round"/>
<path d="M160.228 205.191V133.592C160.228 133.416 160.263 133.242 160.333 133.081C160.402 132.919 160.503 132.774 160.63 132.652L166.191 127.415C166.442 127.18 166.774 127.055 167.117 127.065C167.46 127.075 167.784 127.221 168.02 127.469L172.899 132.659C173.12 132.9 173.244 133.215 173.246 133.543V205.191" fill="#2E353A"/>
<path d="M160.228 205.191V133.592C160.228 133.416 160.263 133.242 160.333 133.081C160.402 132.919 160.503 132.774 160.63 132.652L166.191 127.415C166.442 127.18 166.774 127.055 167.117 127.065C167.46 127.075 167.784 127.221 168.02 127.469L172.899 132.659C173.12 132.9 173.244 133.215 173.246 133.543V205.191" stroke="#2E353A" stroke-linecap="round" stroke-linejoin="round"/>
<path d="M158.91 205.801V133.592C158.91 133.416 158.946 133.242 159.016 133.08C159.087 132.918 159.19 132.773 159.319 132.653L164.88 127.415C165.003 127.298 165.149 127.207 165.308 127.147C165.467 127.086 165.636 127.058 165.806 127.063C165.976 127.068 166.143 127.107 166.298 127.177C166.453 127.246 166.593 127.346 166.709 127.47L171.587 132.659C171.811 132.899 171.935 133.215 171.935 133.543V205.801" fill="white"/>
<path d="M158.91 205.801V133.592C158.91 133.416 158.946 133.242 159.016 133.08C159.087 132.918 159.19 132.773 159.319 132.653L164.88 127.415C165.003 127.298 165.149 127.207 165.308 127.147C165.467 127.086 165.636 127.058 165.806 127.063C165.976 127.068 166.143 127.107 166.298 127.177C166.453 127.246 166.593 127.346 166.709 127.47L171.587 132.659C171.811 132.899 171.935 133.215 171.935 133.543V205.801" stroke="#2E353A" stroke-linecap="round" stroke-linejoin="round"/>
<path d="M207.381 205.191V133.592C207.381 133.416 207.417 133.243 207.486 133.081C207.555 132.92 207.656 132.774 207.783 132.653L213.351 127.415C213.474 127.298 213.62 127.207 213.778 127.147C213.937 127.086 214.107 127.058 214.277 127.063C214.446 127.068 214.614 127.107 214.769 127.177C214.924 127.246 215.063 127.346 215.18 127.47L220.058 132.659C220.282 132.899 220.406 133.215 220.406 133.543V205.191" fill="#2E353A"/>
<path d="M207.381 205.191V133.592C207.381 133.416 207.417 133.243 207.486 133.081C207.555 132.92 207.656 132.774 207.783 132.653L213.351 127.415C213.474 127.298 213.62 127.207 213.778 127.147C213.937 127.086 214.107 127.058 214.277 127.063C214.446 127.068 214.614 127.107 214.769 127.177C214.924 127.246 215.063 127.346 215.18 127.47L220.058 132.659C220.282 132.899 220.406 133.215 220.406 133.543V205.191" stroke="#2E353A" stroke-linecap="round" stroke-linejoin="round"/>
<path d="M206.063 205.801V133.592C206.063 133.415 206.1 133.241 206.17 133.079C206.24 132.918 206.343 132.772 206.472 132.652L212.033 127.415C212.284 127.18 212.616 127.055 212.959 127.065C213.302 127.075 213.627 127.221 213.862 127.469L218.741 132.659C218.966 132.898 219.093 133.214 219.094 133.543V205.801" fill="white"/>
<path d="M206.063 205.801V133.592C206.063 133.415 206.1 133.241 206.17 133.079C206.24 132.918 206.343 132.772 206.472 132.652L212.033 127.415C212.284 127.18 212.616 127.055 212.959 127.065C213.302 127.075 213.627 127.221 213.862 127.469L218.741 132.659C218.966 132.898 219.093 133.214 219.094 133.543V205.801" stroke="#2E353A" stroke-linecap="round" stroke-linejoin="round"/>
<path d="M25.2363 127.471V132.69" stroke="#2E353A" stroke-linecap="round" stroke-linejoin="round"/>
<path d="M27.3281 130.166V142.52" stroke="#2E353A" stroke-linecap="round" stroke-linejoin="round"/>
<path d="M67.1641 131.178V146.806" stroke="#2E353A" stroke-linecap="round" stroke-linejoin="round"/>
<path d="M69.1826 129.158V135.963" stroke="#2E353A" stroke-linecap="round" stroke-linejoin="round"/>
<path d="M117.727 127.416V142.776" stroke="#2E353A" stroke-linecap="round" stroke-linejoin="round"/>
<path d="M120.623 128.652V151.348" stroke="#2E353A" stroke-linecap="round" stroke-linejoin="round"/>
<path d="M161.215 131.178V148.318" stroke="#2E353A" stroke-linecap="round" stroke-linejoin="round"/>
<path d="M167.771 129.158V133.445" stroke="#2E353A" stroke-linecap="round" stroke-linejoin="round"/>
<path d="M210.381 128.902V137.982" stroke="#2E353A" stroke-linecap="round" stroke-linejoin="round"/>
<path d="M215.93 129.916V156.136" stroke="#2E353A" stroke-linecap="round" stroke-linejoin="round"/>
<path d="M205.844 168.24H200.295" stroke="#2E353A" stroke-linecap="round" stroke-linejoin="round"/>
<path d="M205.844 172.525H186.429" stroke="#2E353A" stroke-linecap="round" stroke-linejoin="round"/>
<path d="M133.477 172.525H124.653" stroke="#2E353A" stroke-linecap="round" stroke-linejoin="round"/>
<path d="M87.0851 172.525H78.2617" stroke="#2E353A" stroke-linecap="round" stroke-linejoin="round"/>
<path d="M17.2423 170.258H8.41895" stroke="#2E353A" stroke-linecap="round" stroke-linejoin="round"/>
<path d="M17.2425 174.289H13.7119" stroke="#2E353A" stroke-linecap="round" stroke-linejoin="round"/>
<path d="M128.94 170.258H124.653" stroke="#2E353A" stroke-linecap="round" stroke-linejoin="round"/>
<path d="M82.0426 175.045H77.7559" stroke="#2E353A" stroke-linecap="round" stroke-linejoin="round"/>
<path d="M64.1392 175.045H59.8525" stroke="#2E353A" stroke-linecap="round" stroke-linejoin="round"/>
<path d="M222.985 172.525H219.204" stroke="#2E353A" stroke-linecap="round" stroke-linejoin="round"/>
<path d="M228.028 172.525H225.76" stroke="#2E353A" stroke-linecap="round" stroke-linejoin="round"/>
<path d="M30.2485 146.312C30.2485 146.312 28.7241 159.416 26.8948 172.825C25.0655 186.234 28.4192 199.954 29.3339 201.174" stroke="#2E353A" stroke-linecap="round" stroke-linejoin="round"/>
<path d="M24.2178 172.837C24.5105 170.221 24.7544 168.568 24.7544 168.568" stroke="#2E353A" stroke-linecap="round" stroke-linejoin="round"/>
<path d="M28.7174 199.649C28.7174 199.649 23.2295 198.43 23.2295 188.674C23.2295 184.667 23.4856 180.564 23.7905 177.088" stroke="#2E353A" stroke-linecap="round" stroke-linejoin="round"/>
<path d="M74.7615 130.764C74.7615 130.764 75.9811 131.678 73.8469 142.044C71.7127 152.411 72.0175 167.655 74.7615 176.192" stroke="#2E353A" stroke-linecap="round" stroke-linejoin="round"/>
<path d="M77.8106 149.971C77.8106 149.971 74.7617 159.117 76.8959 171.922" stroke="#2E353A" stroke-linecap="round" stroke-linejoin="round"/>
<path d="M112.568 155.758C112.568 155.758 114.092 164.6 115.616 173.74C117.141 182.88 115.921 195.692 114.702 199.039C113.482 202.387 112.263 205.137 112.263 205.137" stroke="#2E353A" stroke-linecap="round" stroke-linejoin="round"/>
<path d="M118.312 200.654C116.952 204.825 115.263 199.953 115.263 199.953" stroke="#2E353A" stroke-linecap="round" stroke-linejoin="round"/>
<path d="M118.257 169.482C118.257 169.482 121.129 184.306 119.507 195.465" stroke="#2E353A" stroke-linecap="round" stroke-linejoin="round"/>
<path d="M111.958 174.361C111.958 174.361 115.007 180.764 112.263 186.862" stroke="#2E353A" stroke-linecap="round" stroke-linejoin="round"/>
<path d="M168.85 175.264C169.258 177.128 169.794 178.961 170.453 180.752" stroke="#2E353A" stroke-linecap="round" stroke-linejoin="round"/>
<path d="M171.368 143.568C169.433 149.71 168.205 156.052 167.709 162.471C167.527 165.719 167.709 168.977 168.252 172.185" stroke="#2E353A" stroke-linecap="round" stroke-linejoin="round"/>
<path d="M165.575 171.605C165.575 171.605 168.319 181.972 169.844 185.63C171.368 189.289 170.758 198.124 168.929 202.393" stroke="#2E353A" stroke-linecap="round" stroke-linejoin="round"/>
<path d="M206.723 148.141C206.723 148.141 212.82 159.117 207.028 177.099" stroke="#2E353A" stroke-linecap="round" stroke-linejoin="round"/>
<path d="M212.326 166.885C212.363 170.312 212.058 174.653 210.686 178.312C207.942 185.629 206.723 188.068 206.723 188.068" stroke="#2E353A" stroke-linecap="round" stroke-linejoin="round"/>
<path d="M211.905 160.947C211.905 160.947 212.106 162.258 212.228 164.277" stroke="#2E353A" stroke-linecap="round" stroke-linejoin="round"/>
</svg>
