<svg width="48" height="48" viewBox="0 0 48 48" fill="none" xmlns="http://www.w3.org/2000/svg">
<rect width="48" height="48" rx="4" fill="#ECF9ED"/>
<path d="M19.0112 22.2914H29.3385C30.3437 22.2914 31.1615 21.4736 31.1615 20.4684V13.823C31.1615 12.8178 30.3437 12 29.3385 12H19.0112C18.006 12 17.1882 12.8178 17.1882 13.823V20.4688C17.1882 21.4736 18.006 22.2914 19.0112 22.2914ZM21.5621 14.5528C21.5621 14.4509 21.6152 14.3564 21.7019 14.3029C21.7886 14.2502 21.8971 14.2459 21.9881 14.292L27.0657 16.8854C27.1637 16.9354 27.2254 17.0362 27.2254 17.1463C27.2254 17.2564 27.1637 17.3572 27.0657 17.4071L21.9881 20.0002C21.9463 20.0217 21.9003 20.0322 21.855 20.0322C21.8018 20.0322 21.7487 20.0178 21.7019 19.9893C21.6148 19.9362 21.5621 19.8417 21.5621 19.7393V14.5528Z" fill="#15421B"/>
<path d="M22.1479 15.031V19.2603L26.2886 17.1457L22.1479 15.031Z" fill="#15421B"/>
<path d="M24.1746 24.2456C18.5644 24.2456 14 28.81 14 34.4202V35.707C14 35.8687 14.1312 35.9999 14.2929 35.9999H34.056C34.2176 35.9999 34.3489 35.8687 34.3489 35.707V34.4202C34.3493 28.8096 29.7848 24.2456 24.1746 24.2456Z" fill="#15421B"/>
</svg>
