<svg width="64" height="64" viewBox="0 0 64 64" fill="none" xmlns="http://www.w3.org/2000/svg">
<rect width="64" height="64" rx="4" fill="#CDEFD1"/>
<path d="M28.4733 26.7089C28.5342 26.7089 28.5951 26.6949 28.6508 26.6662L35.4208 23.2089C35.5515 23.1422 35.6338 23.0079 35.6338 22.861C35.6338 22.7142 35.5515 22.5799 35.4208 22.5132L28.6508 19.0558C28.5295 18.9944 28.3848 19.0001 28.2692 19.0704C28.1531 19.1412 28.0828 19.2672 28.0828 19.4037V26.3184C28.0828 26.4543 28.1536 26.5803 28.2692 26.6517C28.3317 26.6897 28.4019 26.7089 28.4733 26.7089ZM28.8638 20.0415L34.3852 22.8616L28.8638 25.6806V20.0415Z" fill="#15421B"/>
<path d="M24.6816 29.7217H38.4512C39.7915 29.7217 40.8818 28.6314 40.8818 27.2912V18.4306C40.8818 17.0903 39.7915 16 38.4512 16H24.6816C23.3413 16 22.251 17.0903 22.251 18.4306V27.2917C22.251 28.6314 23.3413 29.7217 24.6816 29.7217ZM23.032 18.4306C23.032 17.5209 23.7719 16.781 24.6816 16.781H38.4512C39.3608 16.781 40.1007 17.5209 40.1007 18.4306V27.2917C40.1007 28.2013 39.3608 28.9412 38.4512 28.9412H24.6816C23.7719 28.9412 23.032 28.2013 23.032 27.2917V18.4306Z" fill="#15421B"/>
<path d="M31.5661 32.3276C24.0858 32.3276 18 38.4135 18 45.8937V47.6094C18 47.8249 18.175 47.9999 18.3905 47.9999H44.7411C44.9566 47.9999 45.1316 47.8249 45.1316 47.6094V45.8937C45.1321 38.4129 39.0463 32.3276 31.5661 32.3276ZM31.5661 33.1087C38.6157 33.1087 44.3511 38.8441 44.3511 45.8937V47.2189H18.781V45.8937C18.781 38.8441 24.5164 33.1087 31.5661 33.1087Z" fill="#15421B"/>
</svg>
