<svg width="64" height="64" viewBox="0 0 64 64" fill="none" xmlns="http://www.w3.org/2000/svg">
<rect width="64" height="64" rx="4" fill="#CDEFD1"/>
<path d="M44.211 16C42.5836 18.2647 40.4407 20.1096 37.9593 21.3822C35.4778 22.6548 32.7292 23.3185 29.9404 23.3186H20.4134C18.7939 23.3181 17.2342 23.9305 16.0477 25.0327C14.8612 26.1349 14.1358 27.6454 14.0172 29.2605C13.8987 30.8756 14.3957 32.4758 15.4086 33.7395C16.4214 35.0032 17.875 35.8367 19.4772 36.0726C21.0832 38.9939 21.881 42.2907 21.7884 45.623C21.7776 46.0097 21.864 46.393 22.0396 46.7376C22.2153 47.0823 22.4746 47.3774 22.7938 47.5959C23.1131 47.8144 23.482 47.9493 23.8669 47.9882C24.2518 48.0272 24.6403 47.969 24.9968 47.819L27.7508 46.6573C28.0039 46.5505 28.2301 46.3886 28.4129 46.1835C28.5957 45.9783 28.7305 45.735 28.8075 45.4712C28.8845 45.2075 28.9018 44.9299 28.8581 44.6586C28.8144 44.3873 28.7108 44.1293 28.5549 43.903C27.8463 42.8762 27.2939 41.7498 26.9156 40.5609H28.4071C28.5748 40.5608 28.7405 40.5247 28.893 40.4549C29.0454 40.3851 29.1811 40.2833 29.2907 40.1565C29.4003 40.0296 29.4814 39.8805 29.5283 39.7196C29.5753 39.5586 29.587 39.3895 29.5628 39.2235L29.1116 36.1412H29.9404C32.7292 36.1413 35.4778 36.805 37.9593 38.0776C40.4407 39.3502 42.5836 41.1951 44.211 43.4598H46.2201V32.5487C46.9675 32.5487 47.6842 32.2518 48.2127 31.7233C48.7412 31.1948 49.0381 30.4781 49.0381 29.7307C49.0381 28.9834 48.7412 28.2665 48.2127 27.7381C47.6842 27.2096 46.9675 26.9127 46.2201 26.9127V16H44.211ZM44.6774 16.9253H45.2947V42.5361H44.6774C42.9522 40.2618 40.7241 38.4177 38.1675 37.148C35.6108 35.8783 32.795 35.2175 29.9404 35.2173H27.7881V24.244H29.9404C32.795 24.2439 35.6108 23.583 38.1675 22.3134C40.7241 21.0437 42.9522 19.1995 44.6774 16.9253ZM20.4134 24.244H26.863V35.2173H20.4134C18.9583 35.2173 17.5627 34.6392 16.5337 33.6103C15.5048 32.5813 14.9267 31.1858 14.9267 29.7306C14.9267 28.2755 15.5048 26.8799 16.5337 25.851C17.5627 24.822 18.9583 24.244 20.4134 24.244ZM46.2201 27.8381C46.7181 27.844 47.1938 28.046 47.5438 28.4003C47.8939 28.7546 48.0902 29.2327 48.0902 29.7307C48.0902 30.2288 47.8939 30.7068 47.5438 31.0611C47.1938 31.4153 46.7181 31.6173 46.2201 31.6233V27.8381ZM20.5612 36.1412H25.4118C25.2816 39.0893 26.1177 41.9992 27.7929 44.4286C27.8707 44.5417 27.9225 44.6707 27.9443 44.8062C27.9661 44.9417 27.9575 45.0804 27.9191 45.2121C27.8807 45.3439 27.8135 45.4655 27.7222 45.568C27.631 45.6706 27.5181 45.7516 27.3917 45.8051L24.6375 46.9668C24.4236 47.0569 24.1904 47.0919 23.9595 47.0685C23.7285 47.0452 23.5071 46.9643 23.3155 46.8332C23.1239 46.7022 22.9683 46.5251 22.8629 46.3183C22.7574 46.1115 22.7056 45.8815 22.712 45.6495C22.8043 42.3498 22.0647 39.0799 20.5612 36.1412ZM26.3372 36.1412H28.1769L28.6467 39.3573C28.6517 39.3918 28.6492 39.427 28.6394 39.4605C28.6296 39.494 28.6127 39.525 28.5898 39.5514C28.567 39.5778 28.5388 39.599 28.507 39.6135C28.4753 39.628 28.4408 39.6356 28.4059 39.6356H26.6595C26.3895 38.4916 26.2806 37.3154 26.336 36.1412H26.3372Z" fill="#15421B"/>
</svg>
