<svg width="48" height="48" viewBox="0 0 48 48" fill="none" xmlns="http://www.w3.org/2000/svg">
<rect width="48" height="48" rx="4" fill="#ECF9ED"/>
<g clip-path="url(#clip0)">
<path d="M10.1982 26.5523C9.79997 25.0122 10.0289 23.377 10.8347 22.0055C11.6405 20.6339 12.9575 19.6381 14.4967 19.2363L19.3339 17.9795C19.3967 17.963 25.6495 16.2495 30.3186 9.69145C30.5392 9.38109 30.8438 9.14014 31.1965 8.99691C31.5493 8.85369 31.9356 8.81414 32.3101 8.88292C32.6846 8.95171 33.0317 9.12596 33.3105 9.3852C33.5894 9.64444 33.7884 9.9779 33.8843 10.3464L38.7772 29.1791C38.8753 29.5472 38.865 29.9358 38.7477 30.2982C38.6305 30.6606 38.4111 30.9815 38.116 31.2224C37.8899 31.4104 37.6251 31.5465 37.3406 31.621C36.8859 31.7381 36.4045 31.6906 35.9815 31.4869C30.4004 28.8341 25.3941 29.129 23.3408 29.4164L24.4441 33.6633C24.5273 33.9819 24.5304 34.3162 24.453 34.6363C24.3756 34.9564 24.2202 35.2523 24.0007 35.4978L22.9011 36.7301C22.6877 36.9692 22.42 37.1536 22.1204 37.2676C21.8209 37.3816 21.4984 37.422 21.18 37.3853C20.8616 37.3486 20.5567 37.2359 20.2909 37.0567C20.0252 36.8776 19.8064 36.6372 19.653 36.3558L16.7318 30.9979C15.2893 31.1723 13.8325 30.8179 12.6312 30.0005C11.4299 29.1831 10.5656 27.9581 10.1982 26.5523ZM21.409 35.3983L22.5084 34.1662L21.3857 29.8448L18.7538 30.5286L21.409 35.3983ZM17.0113 28.915L20.8827 27.9091L18.871 20.1662L14.9996 21.172C13.9728 21.4388 13.0941 22.1025 12.5566 23.0172C12.0192 23.9319 11.8672 25.0226 12.134 26.0493C12.4007 27.0761 13.0645 27.9549 13.9791 28.4923C14.8938 29.0297 15.9845 29.1817 17.0113 28.915Z" fill="#15421B"/>
</g>
<defs>
<clipPath id="clip0">
<rect width="32" height="32" fill="white" transform="matrix(-0.967867 0.251462 0.251462 0.967867 35.4624 4.49048)"/>
</clipPath>
</defs>
</svg>
