<svg width="32" height="32" viewBox="0 0 32 32" fill="none" xmlns="http://www.w3.org/2000/svg">
<path d="M0 8C0 3.58172 3.58172 0 8 0H24C28.4183 0 32 3.58172 32 8V24C32 28.4183 28.4183 32 24 32H8C3.58172 32 0 28.4183 0 24V8Z" fill="#FFF0D4"/>
<path d="M25.0169 11.9917C25.4148 12.5583 24.9405 13.25 24.2482 13.25H7C6.44772 13.25 6 12.8023 6 12.25V10.42C6 7.98 7.98 6 10.42 6H12.74C14.37 6 14.88 6.53 15.53 7.4L16.93 9.26C17.24 9.67 17.28 9.72 17.86 9.72H20.65C22.4546 9.72 24.0516 10.6171 25.0169 11.9917Z" fill="#A26B00"/>
<path d="M24.9834 14.75C25.5343 14.75 25.9815 15.1957 25.9834 15.7466L26 20.6503C26 23.6003 23.6 26.0003 20.65 26.0003H11.35C8.4 26.0003 6 23.6003 6 20.6503V15.7503C6 15.198 6.44771 14.7503 6.99999 14.7503L24.9834 14.75Z" fill="#A26B00"/>
</svg>
