<svg width="178" height="500" viewBox="0 0 178 500" fill="none" xmlns="http://www.w3.org/2000/svg">
<path d="M148.234 32.2338C70.7854 32.2338 8 95.0192 8 172.468L148.234 172.468L148.234 32.2338Z" fill="#FFC700"/>
<path d="M146.13 255.205L76.0133 255.205C37.2892 255.205 5.89648 223.813 5.89648 185.088H76.0133C114.737 185.088 146.13 216.481 146.13 255.205Z" fill="#2D3652"/>
<path d="M286.364 241.883L216.247 241.883C177.523 241.883 146.13 210.491 146.13 171.766H216.247C254.971 171.766 286.364 203.159 286.364 241.883Z" fill="#FFC700"/>
<path d="M161.306 396.707L161.306 466.824C161.306 505.548 129.913 536.941 91.1887 536.941L91.1887 466.824C91.1887 428.1 122.581 396.707 161.306 396.707Z" fill="#FFC700"/>
<path d="M286.364 241.883H216.247C177.523 241.883 146.13 273.276 146.13 312H216.247C254.971 312 286.364 280.608 286.364 241.883Z" fill="#FF743C"/>
<path d="M10.1887 396.825L10.1887 466.941C10.1887 505.666 41.5811 537.058 80.3055 537.058L80.3055 466.941C80.3055 428.217 48.9131 396.825 10.1887 396.825Z" fill="#FF743C"/>
<path d="M148.234 -37.8832C148.234 0.840923 116.841 32.2336 78.1169 32.2336C39.3927 32.2336 8 0.840923 8 -37.8832C8 -76.6074 39.3927 -108 78.1169 -108L148.234 -108L148.234 -37.8832Z" fill="#FF743C"/>
<path d="M140.234 333.117C140.234 371.841 108.841 403.234 70.1169 403.234C31.3927 403.234 0 371.841 0 333.117C0 294.393 31.3927 263 70.1169 263H140.234L140.234 333.117Z" fill="#FF743C"/>
<path d="M147.75 32.2338C147.75 109.682 210.535 172.468 287.984 172.468V32.2338H147.75Z" fill="#FF743C"/>
<path d="M147.75 318.234C147.75 395.682 210.535 458.468 287.984 458.468V318.234H147.75Z" fill="#2D3652"/>
<path d="M150.75 -108C149.093 -108 147.747 -106.647 147.781 -104.99C149.362 -29.9311 209.916 30.6215 284.974 32.202C286.63 32.2369 287.984 30.8905 287.984 29.2336V-105C287.984 -106.657 286.64 -108 284.984 -108H150.75Z" fill="#6ED47C"/>
<path d="M170.322 472C168.902 472 167.747 473.16 167.777 474.581C169.132 538.944 221.057 590.868 285.419 592.223C286.839 592.253 288 591.098 288 589.678V474.572C288 473.152 286.848 472 285.428 472H170.322Z" fill="#6ED47C"/>
</svg>
