<svg width="375" height="124" viewBox="0 0 375 124" fill="none" xmlns="http://www.w3.org/2000/svg">
<path d="M324.517 97.2839C324.517 46.4555 283.311 5.25024 232.483 5.25024V97.2839H324.517Z" fill="#FFC700"/>
<path d="M178.183 95.9033V49.8864C178.183 24.4723 198.786 3.86963 224.2 3.86963V49.8864C224.2 75.3006 203.597 95.9033 178.183 95.9033Z" fill="#2D3652"/>
<path d="M186.926 187.937V141.92C186.926 116.506 207.529 95.9036 232.943 95.9036V141.92C232.943 167.335 212.341 187.937 186.926 187.937Z" fill="#FFC700"/>
<path d="M85.3171 105.863L39.3003 105.863C13.8861 105.863 -6.71655 85.2606 -6.71655 59.8462L39.3003 59.8462C64.7144 59.8462 85.3171 80.4487 85.3171 105.863Z" fill="#FFC700"/>
<path d="M186.926 187.937V141.92C186.926 116.506 166.324 95.9036 140.909 95.9036V141.92C140.909 167.335 161.512 187.937 186.926 187.937Z" fill="#FF743C"/>
<path d="M85.2402 6.6868H39.2234C13.8092 6.6868 -6.79346 27.2893 -6.79346 52.7036L39.2234 52.7036C64.6375 52.7036 85.2402 32.1011 85.2402 6.6868Z" fill="#FF743C"/>
<path d="M370.533 97.2839C345.119 97.2839 324.517 76.6812 324.517 51.2671C324.517 25.8529 345.119 5.25024 370.533 5.25024C395.948 5.25024 416.55 25.8529 416.55 51.2671V97.2839H370.533Z" fill="#FF743C"/>
<path d="M127.051 92.0336C101.637 92.0336 81.0339 71.431 81.0339 46.0168C81.0339 20.6026 101.637 0 127.051 0C152.465 0 173.068 20.6026 173.068 46.0168V92.0336H127.051Z" fill="#FF743C"/>
<path d="M324.517 96.9664C273.688 96.9664 232.483 138.172 232.483 189H324.517V96.9664Z" fill="#FF743C"/>
<path d="M136.818 96.9664C85.99 96.9664 44.7847 138.172 44.7847 189H136.818V96.9664Z" fill="#2D3652"/>
<path d="M416.55 98.9352C416.55 97.8479 415.662 96.9643 414.575 96.9872C365.315 98.0244 325.575 137.765 324.537 187.025C324.514 188.112 325.398 189 326.485 189H414.581C415.669 189 416.55 188.119 416.55 187.031V98.9352Z" fill="#6ED47C"/>
<path d="M35.9036 111.78C35.9036 110.848 35.1421 110.09 34.21 110.11C-8.02254 110.999 -42.0929 145.07 -42.9822 187.302C-43.0018 188.234 -42.2443 188.996 -41.312 188.996H34.2157C35.1479 188.996 35.9036 188.24 35.9036 187.308V111.78Z" fill="#6ED47C"/>
</svg>
