<svg width="227" height="338" viewBox="0 0 227 338" fill="none" xmlns="http://www.w3.org/2000/svg">
<path d="M114.541 112.848C52.2172 112.848 1.69275 163.373 1.69275 225.697H114.541V112.848Z" fill="#FFC700"/>
<path d="M112.848 292.277H56.4242C25.2622 292.277 0 267.015 0 235.853H56.4242C87.5861 235.853 112.848 261.115 112.848 292.277Z" fill="#2D3652"/>
<path d="M225.697 281.556H169.273C138.111 281.556 112.848 256.294 112.848 225.132H169.273C200.434 225.132 225.697 250.394 225.697 281.556Z" fill="#FFC700"/>
<path d="M225.697 281.557H169.273C138.111 281.557 112.848 306.819 112.848 337.981H169.273C200.434 337.981 225.697 312.719 225.697 281.557Z" fill="#FF743C"/>
<path d="M114.541 56.4242C114.541 87.5862 89.2789 112.848 58.1169 112.848C26.955 112.848 1.69275 87.5862 1.69275 56.4242C1.69275 25.2623 26.955 6.10352e-05 58.1169 6.10352e-05H114.541V56.4242Z" fill="#FF743C"/>
<path d="M114.152 112.848C114.152 175.172 164.676 225.697 227 225.697V112.848H114.152Z" fill="#FF743C"/>
<path d="M116.566 3.8147e-05C115.233 3.8147e-05 114.149 1.08921 114.177 2.42222C115.449 62.8235 164.178 111.551 224.578 112.823C225.911 112.851 227 111.768 227 110.434V2.41418C227 1.08088 225.919 3.8147e-05 224.586 3.8147e-05H116.566Z" fill="#6ED47C"/>
<path d="M171.823 -2.67029e-05C170.489 -2.67029e-05 169.403 1.08402 169.458 2.41618C170.692 32.3017 194.698 56.3085 224.584 57.5418C225.916 57.5968 227 56.5107 227 55.1774V2.41412C227 1.08082 225.919 -2.67029e-05 224.586 -2.67029e-05H171.823Z" fill="#D5E155"/>
</svg>
