<svg width="64" height="64" viewBox="0 0 64 64" fill="none" xmlns="http://www.w3.org/2000/svg">
<rect width="64" height="64" rx="4" fill="#ECF9ED"/>
<path d="M32.3222 19L47.5602 26.1108C47.828 26.2361 47.9994 26.5051 47.9994 26.8015C47.9994 27.0978 47.828 27.3664 47.5602 27.4917L32.3222 34.6033C32.2201 34.6509 32.11 34.6749 31.9999 34.6749C31.8899 34.6749 31.7798 34.6509 31.6777 34.6033L16.4397 27.4917C16.1715 27.366 16.0001 27.0971 16.0001 26.8011C16.0001 26.5051 16.1715 26.2361 16.4397 26.1104L32.3222 19ZM32.3222 39.6821L47.5602 32.5713C47.9412 32.393 48.1065 31.9401 47.9282 31.5584C47.7503 31.1774 47.2989 31.0117 46.9156 31.1904L31.9999 38.1507L17.0842 31.1904C16.7033 31.0132 16.25 31.1774 16.0717 31.5584C15.8938 31.9401 16.0583 32.393 16.4401 32.5713L31.678 39.6821C31.7801 39.7298 31.8902 39.7538 32.0003 39.7538C32.1104 39.7538 32.2201 39.7298 32.3222 39.6821ZM32.3222 44.7617L47.5602 37.6505C47.9412 37.4722 48.1065 37.0193 47.9282 36.6376C47.7503 36.2566 47.2989 36.0905 46.9156 36.2696L31.9999 43.2303L17.0842 36.2696C16.7033 36.0924 16.25 36.2566 16.0717 36.6376C15.8938 37.0193 16.0583 37.4722 16.4401 37.6505L31.678 44.7617C31.7798 44.8093 31.8899 44.833 31.9999 44.833C32.11 44.833 32.2201 44.8093 32.3222 44.7617Z" fill="#15421B"/>
</svg>
