<svg width="387" height="289" viewBox="0 0 387 289" fill="none" xmlns="http://www.w3.org/2000/svg">
<path d="M348.304 265.428H322.723V265.621H348.304V265.428Z" fill="#EBEBEB"/>
<path d="M256.638 267.527H249.926V267.72H256.638V267.527Z" fill="#EBEBEB"/>
<path d="M321.95 258.259H307.128V258.452H321.95V258.259Z" fill="#EBEBEB"/>
<path d="M74.6893 259.557H41.3303V259.75H74.6893V259.557Z" fill="#EBEBEB"/>
<path d="M86.4604 259.557H81.5713V259.75H86.4604V259.557Z" fill="#EBEBEB"/>
<path d="M174.712 262.816H102.356V263.01H174.712V262.816Z" fill="#EBEBEB"/>
<path d="M183.865 218.552H34.7268C33.5584 218.55 32.4386 218.085 31.6132 217.258C30.7878 216.431 30.3242 215.31 30.3242 214.142V4.49568C30.3344 3.33404 30.8025 2.22333 31.6268 1.40479C32.4511 0.586259 33.5651 0.126013 34.7268 0.124023H183.865C185.035 0.124023 186.157 0.588676 186.984 1.41576C187.811 2.24285 188.275 3.36462 188.275 4.5343V214.142C188.275 215.312 187.811 216.433 186.984 217.261C186.157 218.088 185.035 218.552 183.865 218.552ZM34.7268 0.278499C33.6096 0.280545 32.539 0.725756 31.7498 1.51641C30.9606 2.30706 30.5173 3.37855 30.5173 4.49568V214.142C30.5173 215.259 30.9606 216.331 31.7498 217.121C32.539 217.912 33.6096 218.357 34.7268 218.359H183.865C184.983 218.357 186.054 217.912 186.845 217.122C187.635 216.331 188.08 215.26 188.082 214.142V4.49568C188.08 3.37784 187.635 2.30637 186.845 1.51594C186.054 0.725505 184.983 0.280541 183.865 0.278499H34.7268Z" fill="#EBEBEB"/>
<path d="M350.938 218.459H201.792C200.624 218.457 199.505 217.993 198.678 217.168C197.852 216.343 197.386 215.224 197.382 214.057V4.40255C197.386 3.23484 197.852 2.11624 198.678 1.29126C199.505 0.466282 200.624 0.00203433 201.792 0H350.938C352.106 -1.7917e-06 353.227 0.463591 354.054 1.28901C354.881 2.11442 355.346 3.23421 355.348 4.40255V214.072C355.342 215.238 354.875 216.354 354.048 217.176C353.222 217.998 352.104 218.459 350.938 218.459ZM201.792 0.193094C200.675 0.193092 199.603 0.636342 198.813 1.42555C198.022 2.21475 197.577 3.28542 197.575 4.40255V214.072C197.577 215.189 198.022 216.26 198.813 217.049C199.603 217.838 200.675 218.281 201.792 218.281H350.938C352.055 218.281 353.126 217.838 353.917 217.049C354.708 216.26 355.153 215.189 355.155 214.072V4.40255C355.153 3.28542 354.708 2.21475 353.917 1.42555C353.126 0.636342 352.055 0.193092 350.938 0.193094H201.792Z" fill="#EBEBEB"/>
<path d="M387 253H0.811523V253.193H387V253Z" fill="#EBEBEB"/>
<path d="M298.439 222.351V19.834H294.461V222.351H298.439Z" fill="#E8E8E8"/>
<path d="M290.878 209.693L291.959 206.649H299.86L302.031 209.693H290.878Z" fill="#E8E8E8"/>
<path d="M282.034 219.533L283.981 221.719L294.392 233.344H294.4H295.188H295.257H297.652H297.721H298.517L297.752 232.486L297.652 232.37L296.454 231.034L295.257 229.706L295.056 229.482L294.4 228.74L285.78 219.109L283.888 217H283.641L282.034 219.533Z" fill="#E8E8E8"/>
<path d="M310.867 219.533L308.982 221.642L298.517 233.344H294.392L294.4 233.336L295.157 232.478L295.257 232.37L296.454 231.034L297.652 229.706L297.852 229.474L298.517 228.732L307.183 219.055L309.021 217H309.26L310.867 219.533Z" fill="#E8E8E8"/>
<path d="M329.721 248.427H328.068L309.531 221.718L307.723 219.123L301.174 209.693L299.065 206.649H301.992C302.357 206.649 302.717 206.74 303.037 206.916C303.357 207.091 303.627 207.345 303.823 207.653L309.762 217.069L311.369 219.61L329.721 248.427Z" fill="#E8E8E8"/>
<path d="M263.42 248.427L289.333 207.653C289.53 207.346 289.8 207.093 290.12 206.918C290.44 206.742 290.799 206.65 291.164 206.649H294.099L265.382 248.427H263.42Z" fill="#E8E8E8"/>
<path d="M92.6316 222.351L92.6316 19.834H88.6538L88.6538 222.351H92.6316Z" fill="#E8E8E8"/>
<path d="M85.2556 209.538L86.3369 206.495H94.2384L96.4087 209.538H85.2556Z" fill="#E8E8E8"/>
<path d="M76.4119 219.456L78.3583 221.634L88.7699 233.266H89.5655H89.635H92.0293H92.0989H92.8944L92.1297 232.409L92.0293 232.293L90.8322 230.957L89.635 229.621L89.4264 229.397L88.7699 228.663L80.1579 219.031L78.2656 216.923H78.0184L76.4119 219.456Z" fill="#E8E8E8"/>
<path d="M105.245 219.456L103.36 221.565L92.8945 233.266H88.77V233.259L89.5347 232.401L89.6351 232.293L90.8323 230.957L92.0295 229.621L92.2303 229.397L92.8945 228.655L101.561 218.97L103.399 216.923H103.638L105.245 219.456Z" fill="#E8E8E8"/>
<path d="M123.565 248.273H121.92L103.383 221.564L101.583 218.969L95.0415 209.538L92.9329 206.495H95.8138C96.179 206.494 96.5386 206.585 96.8588 206.761C97.179 206.936 97.4493 207.19 97.6444 207.499L103.63 216.914L105.237 219.456L123.565 248.273Z" fill="#E8E8E8"/>
<path d="M58.0911 248.273L84.0043 207.499C84.2009 207.192 84.4716 206.939 84.7914 206.764C85.1113 206.588 85.4701 206.496 85.8349 206.495H88.7699L60.0529 248.273H58.0911Z" fill="#E8E8E8"/>
<path d="M283.278 26.2764H103.206V210.681H283.278V26.2764Z" fill="#FAFAFA"/>
<path d="M295.813 21.6807H91.2878V25.6584H295.813V21.6807Z" fill="#E8E8E8"/>
<path d="M284.413 19.8271H101.507L102.094 29.6363H285L284.413 19.8271Z" fill="#F0F0F0"/>
<path d="M193.906 289C276.614 289 343.662 285.086 343.662 280.257C343.662 275.428 276.614 271.514 193.906 271.514C111.198 271.514 44.1499 275.428 44.1499 280.257C44.1499 285.086 111.198 289 193.906 289Z" fill="#F5F5F5"/>
<path d="M220.105 144.311C216.668 155.827 221.789 168.34 219.603 180.149C219.238 182.609 218.31 184.951 216.892 186.993C214.073 190.769 170.843 190.654 168.024 186.877C166.608 184.834 165.68 182.492 165.313 180.033C163.127 168.216 168.248 155.704 164.811 144.195C164.175 142.502 163.707 140.751 163.413 138.966C162.996 134.61 165.73 130.601 168.819 127.496C171.909 124.391 175.493 121.634 177.516 117.764C178.474 115.942 179.061 113.902 179.98 112.103C180.932 110.254 182.245 108.615 183.842 107.283C186.12 105.414 188.975 104.393 191.921 104.395H191.998L192.948 104.441H193.288C195.869 104.512 198.366 105.375 200.44 106.912C202.318 108.332 203.852 110.156 204.928 112.25C205.862 114.072 206.473 116.111 207.392 117.903C209.415 121.765 213.015 124.53 216.089 127.635C219.163 130.74 221.92 134.757 221.495 139.113C221.199 140.886 220.733 142.627 220.105 144.311Z" fill="#39B54A"/>
<path opacity="0.7" d="M220.105 144.311C216.668 155.827 221.789 168.34 219.603 180.149C219.238 182.609 218.31 184.951 216.892 186.993C214.073 190.769 170.843 190.654 168.024 186.877C166.608 184.834 165.68 182.492 165.313 180.033C163.127 168.216 168.248 155.704 164.811 144.195C164.175 142.502 163.707 140.751 163.413 138.966C162.996 134.61 165.73 130.601 168.819 127.496C171.909 124.391 175.493 121.634 177.516 117.764C178.474 115.942 179.061 113.902 179.98 112.103C180.932 110.254 182.245 108.615 183.842 107.283C186.12 105.414 188.975 104.393 191.921 104.395H191.998L192.948 104.441H193.288C195.869 104.512 198.366 105.375 200.44 106.912C202.318 108.332 203.852 110.156 204.928 112.25C205.862 114.072 206.473 116.111 207.392 117.903C209.415 121.765 213.015 124.53 216.089 127.635C219.163 130.74 221.92 134.757 221.495 139.113C221.199 140.886 220.733 142.627 220.105 144.311Z" fill="white"/>
<path d="M191.512 104.356L191.427 104.364V104.356H191.512Z" fill="#39B54A"/>
<path opacity="0.4" d="M209.23 189.411C207.4 187.573 177.563 187.573 175.724 189.411C173.886 191.249 176.783 177.053 175.724 151.881C174.666 126.709 182.892 122.229 182.892 122.229H202.07C202.07 122.229 210.273 126.709 209.23 151.881C208.187 177.053 211.061 191.241 209.23 189.411Z" fill="black"/>
<path d="M184.352 125.52C183.525 126.617 182.575 128.231 182.985 129.467H190.4L191.427 122.229H185.742V122.415C185.54 123.548 185.063 124.614 184.352 125.52Z" fill="white"/>
<path d="M201.684 125.52C202.51 126.617 203.468 128.231 203.051 129.467H195.574L194.609 122.229H200.294V122.415C200.495 123.548 200.973 124.614 201.684 125.52Z" fill="white"/>
<path d="M209.207 114.435C208.844 116.42 208.365 119.919 208.882 122.708C209.33 125.071 203.576 125.025 198.564 124.561C194.517 124.183 190.445 124.183 186.399 124.561C181.394 125.032 175.624 125.071 176.072 122.708C176.597 119.919 176.118 116.42 175.755 114.435C175.721 114.247 175.729 114.053 175.778 113.867C175.828 113.682 175.917 113.509 176.04 113.362C176.163 113.215 176.316 113.096 176.49 113.015C176.664 112.933 176.853 112.891 177.045 112.891H207.94C208.13 112.894 208.317 112.939 208.488 113.022C208.659 113.105 208.809 113.224 208.93 113.371C209.05 113.518 209.137 113.689 209.185 113.873C209.233 114.056 209.24 114.248 209.207 114.435Z" fill="#39B54A"/>
<path opacity="0.5" d="M209.207 114.435C208.844 116.42 208.365 119.919 208.882 122.708C209.33 125.071 203.576 125.025 198.564 124.561C194.517 124.183 190.445 124.183 186.399 124.561C181.394 125.032 175.624 125.071 176.072 122.708C176.597 119.919 176.118 116.42 175.755 114.435C175.721 114.247 175.729 114.053 175.778 113.867C175.828 113.682 175.917 113.509 176.04 113.362C176.163 113.215 176.316 113.096 176.49 113.015C176.664 112.933 176.853 112.891 177.045 112.891H207.94C208.13 112.894 208.317 112.939 208.488 113.022C208.659 113.105 208.809 113.224 208.93 113.371C209.05 113.518 209.137 113.689 209.185 113.873C209.233 114.056 209.24 114.248 209.207 114.435Z" fill="white"/>
<path d="M184.066 114.868C183.787 115.162 183.592 115.524 183.502 115.919C183.46 116.117 183.482 116.323 183.567 116.507C183.652 116.691 183.795 116.842 183.973 116.938C184.177 116.997 184.392 116.998 184.597 116.942C184.801 116.886 184.986 116.775 185.132 116.622C186.198 115.726 186.507 114.227 186.746 112.853C186.746 112.853 185.495 113.509 185.394 113.625C184.908 113.99 184.462 114.407 184.066 114.868Z" fill="#263238"/>
<path d="M202.657 139.731C193.52 138.665 187.109 138.905 177.941 139.978H177.802C177.225 140.076 176.672 140.286 176.176 140.596C175.681 140.907 175.251 141.313 174.911 141.79C174.572 142.267 174.33 142.806 174.199 143.376C174.068 143.947 174.051 144.537 174.149 145.114C176.737 160.828 177.942 176.738 177.748 192.662L210.891 192.044C211.122 176.512 212.435 152.861 211.292 145.632C212.922 141.816 205.855 140.272 202.657 139.731Z" fill="#39B54A"/>
<path opacity="0.4" d="M202.657 139.731C193.52 138.665 187.109 138.905 177.941 139.978H177.802C177.225 140.076 176.672 140.286 176.176 140.596C175.681 140.907 175.251 141.313 174.911 141.79C174.572 142.267 174.33 142.806 174.199 143.376C174.068 143.947 174.051 144.537 174.149 145.114C176.737 160.828 177.942 176.738 177.748 192.662L210.891 192.044C211.122 176.512 212.435 152.861 211.292 145.632C212.922 141.816 205.855 140.272 202.657 139.731Z" fill="black"/>
<path d="M201.63 143.585C201.63 146.311 202.611 148.52 203.816 148.52C205.021 148.52 205.994 146.311 205.994 143.585C205.994 140.859 205.021 138.657 203.816 138.657C202.611 138.657 201.63 140.866 201.63 143.585Z" fill="#263238"/>
<path d="M181.872 141.19C181.787 140.997 179.996 136.34 182.552 132.756C184.499 130.014 188.376 128.755 194.061 129.002C198.618 129.211 201.715 130.423 203.26 132.625C205.113 135.258 204.148 138.379 203.785 139.576L203.746 139.715L201.939 139.151L201.985 139.004C202.302 137.985 203.036 135.59 201.723 133.714C200.525 132.022 197.922 131.072 193.999 130.902C188.994 130.678 185.665 131.675 184.105 133.86C182.143 136.618 183.633 140.464 183.649 140.503L181.872 141.19Z" fill="#263238"/>
<path d="M199.189 143.584C199.189 147.145 200.464 150.026 202.039 150.026C203.615 150.026 204.889 147.145 204.889 143.584C204.889 140.024 203.615 137.15 202.039 137.15C200.464 137.15 199.189 140.031 199.189 143.584Z" fill="#263238"/>
<path d="M187.349 143.584C187.349 147.145 186.074 150.026 184.499 150.026C182.923 150.026 181.656 147.145 181.656 143.584C181.656 140.024 182.931 137.15 184.499 137.15C186.067 137.15 187.349 140.031 187.349 143.584Z" fill="#263238"/>
<path d="M187.349 143.584C187.349 147.145 186.074 150.026 184.499 150.026C182.923 150.026 181.656 147.145 181.656 143.584C181.656 140.024 182.931 137.15 184.499 137.15C186.067 137.15 187.349 140.031 187.349 143.584Z" fill="#263238"/>
<path d="M184.946 143.585C184.946 146.311 183.965 148.52 182.761 148.52C181.556 148.52 180.575 146.311 180.575 143.585C180.575 140.859 181.556 138.657 182.761 138.657C183.965 138.657 184.946 140.866 184.946 143.585Z" fill="#263238"/>
<path d="M184.946 143.585C184.946 146.311 183.965 148.52 182.761 148.52C181.556 148.52 180.575 146.311 180.575 143.585C180.575 140.859 181.556 138.657 182.761 138.657C183.965 138.657 184.946 140.866 184.946 143.585Z" fill="#263238"/>
<g opacity="0.5">
<path opacity="0.5" d="M184.946 143.585C184.946 146.311 183.965 148.52 182.761 148.52C181.556 148.52 180.575 146.311 180.575 143.585C180.575 140.859 181.556 138.657 182.761 138.657C183.965 138.657 184.946 140.866 184.946 143.585Z" fill="white"/>
<path opacity="0.5" d="M184.946 143.585C184.946 146.311 183.965 148.52 182.761 148.52C181.556 148.52 180.575 146.311 180.575 143.585C180.575 140.859 181.556 138.657 182.761 138.657C183.965 138.657 184.946 140.866 184.946 143.585Z" fill="white"/>
</g>
<path d="M201.63 143.585C201.63 146.311 202.611 148.52 203.816 148.52C205.021 148.52 205.994 146.311 205.994 143.585C205.994 140.859 205.021 138.657 203.816 138.657C202.611 138.657 201.63 140.866 201.63 143.585Z" fill="#263238"/>
<path opacity="0.5" d="M201.63 143.585C201.63 146.311 202.611 148.52 203.816 148.52C205.021 148.52 205.994 146.311 205.994 143.585C205.994 140.859 205.021 138.657 203.816 138.657C202.611 138.657 201.63 140.866 201.63 143.585Z" fill="white"/>
<path d="M186.684 139.322C186.375 139.731 189.882 144.875 196.099 144.875C200.332 144.875 198.61 139.383 198.61 139.383C195.52 138.202 195.057 136.031 195.304 133.49C195.366 132.777 195.48 132.07 195.644 131.374L190.384 127.01L186.522 123.789C187.534 128.145 189.133 135.815 186.684 139.322Z" fill="#F9BBB2"/>
<path opacity="0.2" d="M190.508 128.585C190.46 129.255 190.486 129.929 190.585 130.593C190.832 132.594 193.443 134.671 195.404 135.065C195.471 134.353 195.585 133.646 195.744 132.949L190.508 128.585Z" fill="black"/>
<path d="M185.163 114.435C185.794 112.327 187.236 110.556 189.172 109.51C191.109 108.464 193.381 108.23 195.49 108.859C201.97 110.604 204.241 119.718 203.762 125.457C203.664 126.949 203.16 128.386 202.305 129.613C201.45 130.839 200.276 131.809 198.91 132.416C197.544 133.024 196.037 133.246 194.554 133.06C193.07 132.873 191.666 132.285 190.492 131.358C186.854 128.547 186.383 124.878 185.047 118.722C184.71 117.308 184.75 115.83 185.163 114.435Z" fill="#F9BBB2"/>
<path d="M199.197 125.249C199.25 125.343 199.332 125.418 199.431 125.462C199.529 125.507 199.639 125.519 199.745 125.496C199.831 125.454 199.902 125.388 199.95 125.305C199.998 125.223 200.021 125.128 200.016 125.033C200.031 124.815 199.974 124.598 199.853 124.415C199.768 124.299 199.629 124.191 199.498 124.23C199.181 124.322 199.05 124.994 199.197 125.249Z" fill="#263238"/>
<path d="M184.908 120.823C186.515 120.422 188.237 122.268 188.924 123.674C189.697 125.218 189.172 126.833 187.426 126.524C186.079 126.261 184.874 125.517 184.035 124.43C183.008 123.048 183.301 121.225 184.908 120.823Z" fill="#F9BBB2"/>
<path d="M195.289 118.034C195.628 117.949 195.968 118.328 196.061 118.807C196.154 119.286 195.922 119.757 195.598 119.795C195.273 119.834 194.933 119.456 194.825 118.946C194.717 118.436 194.949 118.112 195.289 118.034Z" fill="#263238"/>
<path d="M201.514 117.116C201.815 117.116 202.116 117.417 202.186 117.889C202.255 118.36 202.062 118.7 201.769 118.769C201.475 118.839 201.174 118.506 201.104 118.051C201.035 117.595 201.213 117.155 201.514 117.116Z" fill="#263238"/>
<path d="M199.946 122.931C200.303 123.008 200.673 123.004 201.028 122.92C201.384 122.836 201.716 122.674 202 122.445C201.036 121.358 200.225 120.145 199.591 118.838L199.946 122.931Z" fill="#ED847E"/>
<path d="M194.099 117.595C194.265 117.262 194.509 116.973 194.81 116.754C195.111 116.535 195.461 116.392 195.829 116.336C195.872 116.339 195.915 116.332 195.956 116.317C195.996 116.302 196.032 116.278 196.063 116.247C196.093 116.216 196.116 116.179 196.131 116.139C196.146 116.098 196.152 116.055 196.148 116.012C196.145 115.969 196.133 115.927 196.112 115.89C196.091 115.852 196.062 115.819 196.027 115.794C195.993 115.768 195.953 115.75 195.911 115.741C195.869 115.732 195.825 115.732 195.783 115.742C195.316 115.798 194.871 115.969 194.485 116.238C194.1 116.507 193.787 116.867 193.574 117.286C193.534 117.353 193.522 117.433 193.541 117.508C193.56 117.583 193.608 117.648 193.674 117.688C193.72 117.702 193.768 117.702 193.813 117.688C193.865 117.699 193.918 117.696 193.969 117.68C194.019 117.663 194.064 117.634 194.099 117.595Z" fill="#263238"/>
<path d="M202.642 116.435C202.669 116.408 202.691 116.376 202.706 116.34C202.721 116.304 202.729 116.266 202.729 116.227C202.729 116.188 202.721 116.15 202.706 116.114C202.691 116.078 202.669 116.046 202.642 116.018C202.298 115.68 201.88 115.428 201.422 115.28C200.963 115.133 200.476 115.094 200 115.169C199.962 115.177 199.926 115.193 199.894 115.215C199.861 115.237 199.834 115.266 199.813 115.299C199.792 115.332 199.778 115.369 199.772 115.408C199.766 115.446 199.767 115.486 199.776 115.524C199.795 115.601 199.842 115.667 199.908 115.71C199.974 115.753 200.054 115.77 200.131 115.756C200.515 115.701 200.905 115.735 201.272 115.857C201.64 115.979 201.974 116.185 202.248 116.459C202.284 116.491 202.328 116.513 202.375 116.526C202.422 116.538 202.471 116.538 202.518 116.528C202.567 116.508 202.609 116.476 202.642 116.435Z" fill="#263238"/>
<path d="M190.5 114.389C190.499 114.295 190.477 114.203 190.435 114.118C190.394 114.034 190.333 113.96 190.259 113.902C190.185 113.844 190.098 113.804 190.006 113.784C189.914 113.764 189.819 113.765 189.728 113.787L185.603 114.019C185.076 114.052 184.568 114.234 184.139 114.543C183.71 114.851 183.377 115.275 183.178 115.764C181.038 120.947 182.459 124.77 183.386 126.184C189.565 135.537 188.677 128.362 187.866 126.624C186.159 126.222 185.132 125.581 184.715 124.098C184.452 123.133 184.398 121.781 185.14 121.14C185.442 120.887 185.808 120.723 186.198 120.664C186.587 120.605 186.985 120.655 187.349 120.808C187.256 122.839 188.121 124.16 189.357 125.913C189.357 125.913 187.889 119.858 189.527 119.078C190.469 118.622 190.492 115.888 190.5 114.389Z" fill="#263238"/>
<path d="M185.866 109.414C185.28 109.97 184.822 110.646 184.521 111.395C184.219 112.144 184.083 112.949 184.12 113.755C184.126 113.935 184.194 114.107 184.313 114.242C184.457 114.35 184.635 114.405 184.815 114.396C187.928 114.597 191.051 114.574 194.161 114.327L192.083 112.99C193.527 113.726 195.102 114.17 196.717 114.296C198.185 114.419 199.807 114.296 201.012 115.068C202.217 115.841 202.827 117.385 203.329 118.776C204.13 117.115 204.572 115.304 204.627 113.462C204.665 111.61 204.038 109.807 202.858 108.379C201.33 106.855 199.29 105.952 197.135 105.846C187.812 104.935 185.866 109.414 185.866 109.414Z" fill="#263238"/>
<path d="M170.928 145.06C170.341 146.713 168.665 155.874 179.64 168.78C180.544 169.838 184.344 171.916 187.773 168.394C191.906 164.138 192.902 145.601 193.296 143.168C193.69 140.735 194.115 138.001 194.493 135.653C190.392 136.124 190.963 134.038 190.06 132.795C189.141 133.961 184.931 155.688 182.429 159.913C182.506 157.102 178.636 140.102 176.62 140.387C175.316 140.518 174.08 141.031 173.067 141.863C172.054 142.694 171.31 143.807 170.928 145.06Z" fill="#39B54A"/>
<path d="M183.494 157.496C183.788 156.677 184.027 155.781 184.39 154.522L181.401 152.738C181.304 152.7 181.198 152.691 181.097 152.713C180.995 152.735 180.902 152.787 180.83 152.862L179.231 154.507C178.865 154.86 178.61 155.31 178.495 155.805C178.379 156.3 178.41 156.817 178.582 157.295C178.731 157.683 178.972 158.028 179.284 158.302C179.596 158.576 179.97 158.769 180.374 158.866C180.778 158.963 181.199 158.959 181.602 158.857C182.004 158.754 182.375 158.555 182.683 158.276L183.533 157.504L183.494 157.496Z" fill="#F9BBB2"/>
<path d="M206.596 146.042C206.411 146.675 203.669 163.034 203.769 162.694C203.089 163.467 202.34 163.08 201.846 162.934C198.023 161.791 193.188 158.099 189.364 156.955C188.839 156.801 188.183 156.67 187.82 157.064C187.62 157.321 187.506 157.634 187.495 157.96C187.356 159.002 186.785 161.049 186.646 162.069C186.59 162.305 186.608 162.554 186.7 162.779C186.816 162.95 186.976 163.086 187.163 163.173C191.89 165.9 193.744 167.298 198.463 170.032C200.517 171.214 207.384 174.481 209.716 172.287C212.18 169.97 218.707 145.764 209.608 141.817C208.635 141.4 208.164 140.697 206.596 146.042Z" fill="#39B54A"/>
<path d="M201.375 131.427C201.336 131.574 201.306 131.72 201.282 131.859C201.152 132.465 200.813 133.005 200.324 133.385C199.835 133.764 199.229 133.96 198.61 133.937H198.301C198.085 133.984 196.154 134.926 194.655 135.652C193.93 136.018 193.1 136.117 192.309 135.932C191.518 135.747 190.818 135.289 190.33 134.64C190.088 134.091 189.979 133.493 190.013 132.894C190.013 132.779 192.4 130.407 193.875 128.901C194.198 128.579 194.589 128.332 195.019 128.178C195.449 128.024 195.908 127.968 196.362 128.013C197.135 128.09 198.633 128.113 199.552 128.206C201.159 128.337 201.699 129.882 201.375 131.427Z" fill="#E6A8A1"/>
<path d="M268.294 278.728H119.881L110.651 178.134H277.531L268.294 278.728Z" fill="#39B54A"/>
<path d="M279.586 178.049H108.226V186.151H279.586V178.049Z" fill="#263238"/>
<path opacity="0.2" d="M279.586 178.049H108.226V186.151H279.586V178.049Z" fill="white"/>
<path d="M216.66 227.595L178.93 205.814V249.377L216.66 227.595Z" fill="white"/>
<path d="M338.889 228.315L340.186 267.05H341.716L343.013 228.315H338.889Z" fill="black"/>
<path d="M335.374 241.415L336.456 238.372H344.357L346.527 241.415H335.374Z" fill="#263238"/>
<path d="M326.531 251.332L328.477 253.518L338.889 265.142H339.684H339.754H342.148H342.217H343.013L342.248 264.293L342.148 264.177L340.951 262.841L339.754 261.504L339.553 261.28L338.889 260.539L330.277 250.907L328.384 248.799H328.137L326.531 251.332Z" fill="#263238"/>
<path d="M355.363 251.332L353.479 253.441L343.013 265.142H338.889V265.135L339.653 264.285L339.754 264.177L340.951 262.841L342.148 261.504L342.349 261.273L343.013 260.531L351.679 250.853L353.517 248.799H353.757L355.363 251.332Z" fill="#263238"/>
<path d="M342.148 258.153V97.3516H339.754V258.153H342.148Z" fill="#263238"/>
<path opacity="0.2" d="M342.148 107.099H339.754V258.152H342.148V107.099Z" fill="white"/>
<path d="M373.684 280.157H372.039L353.479 253.464L351.679 250.876L345.122 241.438L343.013 238.402H345.94C346.306 238.399 346.666 238.49 346.987 238.666C347.307 238.842 347.577 239.097 347.771 239.406L353.788 248.83L355.394 251.363L373.684 280.157Z" fill="#263238"/>
<path d="M308.218 280.15L334.131 239.376C334.327 239.069 334.598 238.816 334.918 238.64C335.238 238.465 335.597 238.373 335.961 238.372H338.896L310.179 280.15H308.218Z" fill="#263238"/>
<path d="M344.512 97.3516H337.398V107.099H344.512V97.3516Z" fill="#263238"/>
<path opacity="0.3" d="M344.512 97.3516H337.398V107.099H344.512V97.3516Z" fill="white"/>
<path d="M333.011 91.6749L344.071 87.1797C345.609 88.0858 346.823 89.4532 347.539 91.0879C348.207 92.8031 348.229 94.7026 347.601 96.4328L337.027 101.067L333.011 91.6749Z" fill="#263238"/>
<path opacity="0.5" d="M333.011 91.6749L344.071 87.1797C345.609 88.0858 346.823 89.4532 347.539 91.0879C348.207 92.8031 348.229 94.7026 347.601 96.4328L337.027 101.067L333.011 91.6749Z" fill="white"/>
<path d="M330.184 141.94C330.184 141.94 344.55 115.517 335.645 94.9259C333 88.7185 328.937 83.2173 323.782 78.8634C318.628 74.5095 312.524 71.424 305.962 69.8545L305.723 69.9317L330.045 141.948L330.184 141.94Z" fill="#263238"/>
<path d="M305.962 69.8545L289.874 75.0449L313.956 142.79L330.184 141.94L305.962 69.8545Z" fill="#263238"/>
<path opacity="0.8" d="M305.962 69.8545L289.874 75.0449L313.956 142.79L330.184 141.94L305.962 69.8545Z" fill="white"/>
<path d="M306.812 72.3877L293.79 76.6821L315.285 138.21L328.608 137.252L306.812 72.3877Z" fill="#39B54A"/>
<path d="M306.812 72.3877L293.79 76.6821L315.285 138.21L328.608 137.252L306.812 72.3877Z" fill="white"/>
<path d="M343.013 182.621H338.889V258.144H343.013V182.621Z" fill="#263238"/>
<path d="M47.0151 228.315L45.7175 267.05H44.1882L42.8906 228.315H47.0151Z" fill="black"/>
<path d="M50.5293 241.415L49.4403 238.372H41.5466L39.3762 241.415H50.5293Z" fill="#263238"/>
<path d="M59.3654 251.332L57.4268 253.518L47.0151 265.142H47.0074H46.2196H46.1501H43.7557H43.6785H42.8906L43.6553 264.293L43.7557 264.177L44.9529 262.841L46.1501 261.504L46.3509 261.28L47.0074 260.539L55.6271 250.907L57.5194 248.799H57.7589L59.3654 251.332Z" fill="#263238"/>
<path d="M30.5325 251.332L32.4171 253.441L42.8905 265.142H47.015L47.0073 265.135L46.2503 264.285L46.1499 264.177L44.9528 262.841L43.7556 261.504L43.5548 261.273L42.8905 260.531L34.2244 250.853L32.3862 248.799H32.139L30.5325 251.332Z" fill="#263238"/>
<path d="M46.1497 258.153L46.1497 97.3516H43.7553L43.7553 258.153H46.1497Z" fill="#263238"/>
<path opacity="0.2" d="M46.15 107.099H43.7556V258.152H46.15V107.099Z" fill="white"/>
<path d="M12.2195 280.158H13.8646L32.4017 253.441L34.2091 250.854L40.7665 241.415L42.8751 238.38H39.9401C39.5748 238.378 39.2149 238.469 38.8946 238.645C38.5743 238.82 38.3041 239.075 38.1096 239.384L32.1391 248.83L30.5325 251.364L12.2195 280.158Z" fill="#263238"/>
<path d="M77.6862 280.15L51.7884 239.376C51.5934 239.067 51.3231 238.813 51.0029 238.638C50.6827 238.462 50.3231 238.371 49.9579 238.372H47.0151L75.7321 280.15H77.6862Z" fill="#263238"/>
<path d="M41.4001 107.099H48.5137V97.3512H41.4001V107.099Z" fill="#263238"/>
<path opacity="0.3" d="M41.4001 107.099H48.5137V97.3512H41.4001V107.099Z" fill="white"/>
<path d="M52.8852 91.6749L41.8325 87.1797C40.2946 88.0858 39.0812 89.4532 38.3645 91.0879C37.6967 92.8031 37.6747 94.7026 38.3027 96.4328L48.8765 101.067L52.8852 91.6749Z" fill="#263238"/>
<path opacity="0.5" d="M52.8852 91.6749L41.8325 87.1797C40.2946 88.0858 39.0812 89.4532 38.3645 91.0879C37.6967 92.8031 37.6747 94.7026 38.3027 96.4328L48.8765 101.067L52.8852 91.6749Z" fill="white"/>
<path d="M55.7196 141.94C55.7196 141.94 41.3534 115.517 50.2434 94.9259C52.8883 88.7185 56.951 83.2173 62.1057 78.8634C67.2604 74.5095 73.3636 71.424 79.9259 69.8545L80.1576 69.9317L55.8586 141.948L55.7196 141.94Z" fill="#263238"/>
<path d="M79.9415 69.8545L96.0301 75.0449L71.9474 142.79L55.7197 141.94L79.9415 69.8545Z" fill="#263238"/>
<path opacity="0.8" d="M79.9415 69.8545L96.0301 75.0449L71.9474 142.79L55.7197 141.94L79.9415 69.8545Z" fill="white"/>
<path d="M79.0842 72.3877L92.1142 76.6821L70.6189 138.21L57.2954 137.252L79.0842 72.3877Z" fill="#39B54A"/>
<path d="M79.0842 72.3877L92.1142 76.6821L70.6189 138.21L57.2954 137.252L79.0842 72.3877Z" fill="white"/>
<path d="M42.8906 258.152H47.0151L47.0151 182.629H42.8906L42.8906 258.152Z" fill="#263238"/>
<path d="M110.62 126.794C110.619 131.096 111.893 135.302 114.282 138.88C116.671 142.458 120.068 145.247 124.042 146.894C128.016 148.542 132.389 148.973 136.609 148.135C140.829 147.297 144.705 145.226 147.747 142.184C150.79 139.143 152.862 135.267 153.702 131.048C154.542 126.829 154.112 122.455 152.466 118.48C150.82 114.505 148.032 111.108 144.455 108.718C140.878 106.328 136.673 105.052 132.371 105.052C129.515 105.051 126.686 105.612 124.048 106.705C121.409 107.797 119.011 109.398 116.991 111.417C114.972 113.436 113.369 115.834 112.276 118.472C111.183 121.11 110.62 123.938 110.62 126.794ZM116.799 126.246C116.799 123.169 117.712 120.162 119.421 117.604C121.13 115.045 123.56 113.052 126.402 111.874C129.245 110.697 132.372 110.389 135.39 110.989C138.407 111.589 141.179 113.071 143.355 115.246C145.53 117.422 147.012 120.194 147.612 123.211C148.212 126.229 147.904 129.356 146.727 132.199C145.549 135.041 143.555 137.471 140.997 139.18C138.439 140.889 135.432 141.801 132.355 141.801C130.312 141.799 128.29 141.395 126.403 140.611C124.517 139.828 122.803 138.68 121.36 137.234C119.917 135.788 118.773 134.072 117.993 132.184C117.213 130.296 116.813 128.273 116.815 126.23L116.799 126.246Z" fill="#263238"/>
<g opacity="0.2">
<path opacity="0.2" d="M110.62 126.794C110.619 131.096 111.893 135.302 114.282 138.88C116.671 142.458 120.068 145.247 124.042 146.894C128.016 148.542 132.389 148.973 136.609 148.135C140.829 147.297 144.705 145.226 147.747 142.184C150.79 139.143 152.862 135.267 153.702 131.048C154.542 126.829 154.112 122.455 152.466 118.48C150.82 114.505 148.032 111.108 144.455 108.718C140.878 106.328 136.673 105.052 132.371 105.052C129.515 105.051 126.686 105.612 124.048 106.705C121.409 107.797 119.011 109.398 116.991 111.417C114.972 113.436 113.369 115.834 112.276 118.472C111.183 121.11 110.62 123.938 110.62 126.794ZM116.799 126.246C116.799 123.169 117.712 120.162 119.421 117.604C121.13 115.045 123.56 113.052 126.402 111.874C129.245 110.697 132.372 110.389 135.39 110.989C138.407 111.589 141.179 113.071 143.355 115.246C145.53 117.422 147.012 120.194 147.612 123.211C148.212 126.229 147.904 129.356 146.727 132.199C145.549 135.041 143.555 137.471 140.997 139.18C138.439 140.889 135.432 141.801 132.355 141.801C130.312 141.799 128.29 141.395 126.403 140.611C124.517 139.828 122.803 138.68 121.36 137.234C119.917 135.788 118.773 134.072 117.993 132.184C117.213 130.296 116.813 128.273 116.815 126.23L116.799 126.246Z" fill="white"/>
</g>
<path d="M136.255 159.419H138.302V156.692H136.255V159.419Z" fill="#263238"/>
<path d="M133.977 158.764H137.669V157.427H133.977V158.764Z" fill="#263238"/>
<path d="M128.624 160.146H126.578V162.872H128.624V160.146Z" fill="#263238"/>
<path d="M130.903 160.879H127.211V162.215H130.903V160.879Z" fill="#263238"/>
<path d="M137.793 151.773H139.839V149.047H137.793V151.773Z" fill="#263238"/>
<path d="M135.514 151.032H139.206V149.696H135.514V151.032Z" fill="#263238"/>
<path d="M131.482 187.758H133.977V157.002H131.482V187.758Z" fill="black"/>
<path d="M130.463 169.56H135.128V165.412H130.463V169.56Z" fill="#263238"/>
<path d="M131.984 156.692H133.583V151.726H131.984V156.692Z" fill="#263238"/>
<path d="M130.849 163.598H134.711V155.874C134.711 155.358 134.506 154.863 134.141 154.498C133.776 154.133 133.281 153.928 132.764 153.928C132.509 153.928 132.256 153.978 132.02 154.076C131.784 154.174 131.569 154.317 131.388 154.498C131.207 154.679 131.064 154.893 130.966 155.129C130.868 155.365 130.818 155.619 130.818 155.874L130.849 163.598Z" fill="black"/>
<path d="M129.775 165.329H135.869V163.599H129.775V165.329Z" fill="#263238"/>
<path d="M129.837 152.477H135.761V148.205H129.837V152.477Z" fill="#263238"/>
<path d="M127.636 178.165H138.781V174.566H127.636V178.165Z" fill="#263238"/>
<path opacity="0.1" d="M127.636 178.165H138.781V174.566H127.636V178.165Z" fill="black"/>
<path d="M134.996 177.608C134.996 177.608 132.926 172.48 130.687 177.608L131.582 285.231C131.582 285.231 133.127 287.672 134.1 285.231L134.996 177.608Z" fill="#263238"/>
<path d="M139.36 175.577C139.36 175.577 150.297 246.636 155.58 277.763C156.075 280.652 153.68 282.343 152.877 278.713C152.56 277.284 135.722 176.705 135.722 176.705C135.722 176.705 136.572 171.978 139.36 175.577Z" fill="#263238"/>
<path d="M126.23 175.577C126.23 175.577 115.293 246.636 110.01 277.763C109.516 280.652 111.91 282.343 112.713 278.713C113.03 277.284 129.868 176.705 129.868 176.705C129.868 176.705 129.026 171.978 126.23 175.577Z" fill="#263238"/>
<path d="M254.151 106.843C255.307 106.844 256.451 107.084 257.511 107.546L259.535 108.442C260.932 108.956 262.137 109.886 262.989 111.107C263.84 112.328 264.297 113.781 264.297 115.269C264.297 116.758 263.84 118.211 262.989 119.432C262.137 120.653 260.932 121.583 259.535 122.097L257.511 122.985C256.453 123.456 255.309 123.701 254.151 123.704C253.024 123.738 251.901 123.545 250.849 123.137C249.797 122.729 248.838 122.115 248.028 121.329C247.219 120.544 246.575 119.603 246.136 118.565C245.696 117.526 245.469 116.409 245.469 115.281C245.469 114.153 245.696 113.036 246.136 111.997C246.575 110.959 247.219 110.018 248.028 109.233C248.838 108.447 249.797 107.833 250.849 107.425C251.901 107.017 253.024 106.824 254.151 106.858V106.843Z" fill="#263238"/>
<path opacity="0.2" d="M254.151 106.843C255.307 106.844 256.451 107.084 257.511 107.546L259.535 108.442C260.932 108.956 262.137 109.886 262.989 111.107C263.84 112.328 264.297 113.781 264.297 115.269C264.297 116.758 263.84 118.211 262.989 119.432C262.137 120.653 260.932 121.583 259.535 122.097L257.511 122.985C256.453 123.456 255.309 123.701 254.151 123.704C253.024 123.738 251.901 123.545 250.849 123.137C249.797 122.729 248.838 122.115 248.028 121.329C247.219 120.544 246.575 119.603 246.136 118.565C245.696 117.526 245.469 116.409 245.469 115.281C245.469 114.153 245.696 113.036 246.136 111.997C246.575 110.959 247.219 110.018 248.028 109.233C248.838 108.447 249.797 107.833 250.849 107.425C251.901 107.017 253.024 106.824 254.151 106.858V106.843Z" fill="black"/>
<path d="M257.156 108.889H265.521C266.377 108.859 267.23 109.002 268.03 109.309C268.829 109.616 269.559 110.081 270.175 110.676C270.791 111.271 271.281 111.984 271.615 112.772C271.95 113.56 272.123 114.408 272.123 115.265C272.123 116.121 271.95 116.969 271.615 117.757C271.281 118.546 270.791 119.259 270.175 119.854C269.559 120.449 268.829 120.913 268.03 121.22C267.23 121.528 266.377 121.67 265.521 121.641H257.156C255.503 121.583 253.938 120.886 252.789 119.697C251.64 118.507 250.998 116.918 250.998 115.265C250.998 113.611 251.64 112.022 252.789 110.833C253.938 109.643 255.503 108.946 257.156 108.889Z" fill="#263238"/>
<path opacity="0.2" d="M257.156 108.889H265.521C266.377 108.859 267.23 109.002 268.03 109.309C268.829 109.616 269.559 110.081 270.175 110.676C270.791 111.271 271.281 111.984 271.615 112.772C271.95 113.56 272.123 114.408 272.123 115.265C272.123 116.121 271.95 116.969 271.615 117.757C271.281 118.546 270.791 119.259 270.175 119.854C269.559 120.449 268.829 120.913 268.03 121.22C267.23 121.528 266.377 121.67 265.521 121.641H257.156C255.503 121.583 253.938 120.886 252.789 119.697C251.64 118.507 250.998 116.918 250.998 115.265C250.998 113.611 251.64 112.022 252.789 110.833C253.938 109.643 255.503 108.946 257.156 108.889Z" fill="white"/>
<path opacity="0.2" d="M259.481 108.889H261.466C260.61 108.859 259.757 109.002 258.957 109.309C258.158 109.616 257.428 110.081 256.812 110.676C256.196 111.271 255.706 111.984 255.371 112.772C255.037 113.56 254.864 114.408 254.864 115.265C254.864 116.121 255.037 116.969 255.371 117.757C255.706 118.546 256.196 119.259 256.812 119.854C257.428 120.449 258.158 120.913 258.957 121.22C259.757 121.528 260.61 121.67 261.466 121.641H259.481C257.828 121.583 256.263 120.886 255.114 119.697C253.965 118.507 253.323 116.918 253.323 115.265C253.323 113.611 253.965 112.022 255.114 110.833C256.263 109.643 257.828 108.946 259.481 108.889Z" fill="white"/>
<path d="M264.107 103.22H269.668C269.943 103.22 270.211 103.304 270.437 103.46C270.663 103.616 270.837 103.836 270.935 104.093L272.24 107.499H261.466C261.466 107.499 263.196 103.22 264.107 103.22Z" fill="#263238"/>
<path opacity="0.2" d="M266.038 103.22H269.668C269.943 103.22 270.211 103.304 270.437 103.46C270.663 103.616 270.837 103.836 270.935 104.093L272.24 107.499H263.466L264.771 104.093C264.869 103.836 265.042 103.614 265.268 103.458C265.495 103.302 265.763 103.219 266.038 103.22Z" fill="white"/>
<path d="M274.164 123.054H256.832C256.012 123.054 255.226 122.728 254.647 122.149C254.068 121.569 253.742 120.784 253.742 119.964V109.058C253.742 108.649 253.905 108.256 254.194 107.966C254.484 107.676 254.877 107.513 255.287 107.513H275.708C276.118 107.513 276.511 107.676 276.801 107.966C277.09 108.256 277.253 108.649 277.253 109.058V119.964C277.253 120.784 276.928 121.569 276.348 122.149C275.769 122.728 274.983 123.054 274.164 123.054Z" fill="#263238"/>
<path opacity="0.2" d="M274.164 123.054H260.956C260.137 123.054 259.351 122.728 258.771 122.149C258.192 121.569 257.867 120.784 257.867 119.964V109.058C257.867 108.649 258.029 108.256 258.319 107.966C258.609 107.676 259.002 107.513 259.411 107.513H275.708C276.118 107.513 276.511 107.676 276.801 107.966C277.09 108.256 277.253 108.649 277.253 109.058V119.964C277.253 120.784 276.928 121.569 276.348 122.149C275.769 122.728 274.983 123.054 274.164 123.054Z" fill="white"/>
<path d="M266.301 119.817H275.693C276.12 119.817 276.465 119.472 276.465 119.045V111.615C276.465 111.188 276.12 110.842 275.693 110.842H266.301C265.874 110.842 265.528 111.188 265.528 111.615V119.045C265.528 119.472 265.874 119.817 266.301 119.817Z" fill="#39B54A"/>
<path opacity="0.5" d="M266.301 119.817H275.693C276.12 119.817 276.465 119.472 276.465 119.045V111.615C276.465 111.188 276.12 110.842 275.693 110.842H266.301C265.874 110.842 265.528 111.188 265.528 111.615V119.045C265.528 119.472 265.874 119.817 266.301 119.817Z" fill="white"/>
<path d="M266.803 107.235H269.414C269.84 107.235 270.186 106.89 270.186 106.463V105.505C270.186 105.079 269.84 104.733 269.414 104.733H266.803C266.376 104.733 266.031 105.079 266.031 105.505V106.463C266.031 106.89 266.376 107.235 266.803 107.235Z" fill="#39B54A"/>
<path opacity="0.5" d="M266.803 107.235H269.414C269.84 107.235 270.186 106.89 270.186 106.463V105.505C270.186 105.079 269.84 104.733 269.414 104.733H266.803C266.376 104.733 266.031 105.079 266.031 105.505V106.463C266.031 106.89 266.376 107.235 266.803 107.235Z" fill="white"/>
<path opacity="0.2" d="M264.316 113.593H265.528V112.38H264.316V113.593Z" fill="white"/>
<path opacity="0.2" d="M264.316 115.045H265.528V113.832H264.316V115.045Z" fill="white"/>
<path opacity="0.2" d="M264.316 116.497H265.528V115.284H264.316V116.497Z" fill="white"/>
<path opacity="0.2" d="M264.316 117.948H265.528V116.736H264.316V117.948Z" fill="white"/>
<path d="M258.786 115.136C258.786 115.647 258.937 116.145 259.22 116.57C259.504 116.994 259.907 117.324 260.378 117.52C260.85 117.715 261.368 117.766 261.869 117.667C262.369 117.567 262.829 117.321 263.19 116.961C263.55 116.6 263.796 116.14 263.896 115.64C263.995 115.139 263.944 114.621 263.749 114.149C263.553 113.678 263.223 113.275 262.799 112.991C262.374 112.708 261.876 112.557 261.365 112.557C260.681 112.557 260.025 112.828 259.541 113.312C259.057 113.796 258.786 114.452 258.786 115.136ZM259.867 115.136C259.865 114.84 259.952 114.549 260.116 114.302C260.279 114.054 260.513 113.861 260.787 113.747C261.06 113.632 261.362 113.601 261.653 113.658C261.944 113.715 262.212 113.857 262.422 114.066C262.632 114.276 262.776 114.543 262.834 114.833C262.893 115.124 262.864 115.426 262.75 115.7C262.637 115.975 262.445 116.209 262.199 116.374C261.952 116.539 261.662 116.627 261.365 116.627C261.167 116.631 260.97 116.596 260.785 116.523C260.601 116.45 260.433 116.34 260.291 116.202C260.15 116.063 260.037 115.897 259.96 115.714C259.883 115.531 259.844 115.335 259.844 115.136H259.867Z" fill="#263238"/>
<path d="M260.369 115.137C260.369 115.391 260.47 115.635 260.649 115.815C260.829 115.994 261.073 116.095 261.327 116.095C261.581 116.095 261.824 115.994 262.004 115.815C262.183 115.635 262.284 115.391 262.284 115.137C262.284 114.883 262.183 114.64 262.004 114.46C261.824 114.281 261.581 114.18 261.327 114.18C261.073 114.18 260.829 114.281 260.649 114.46C260.47 114.64 260.369 114.883 260.369 115.137Z" fill="#263238"/>
<path d="M264.548 108.889C264.548 108.99 264.587 109.086 264.658 109.157C264.729 109.228 264.826 109.268 264.926 109.268C264.975 109.268 265.024 109.258 265.07 109.239C265.115 109.22 265.156 109.192 265.191 109.157C265.226 109.121 265.253 109.08 265.271 109.034C265.289 108.988 265.298 108.939 265.297 108.889C265.298 108.84 265.289 108.792 265.271 108.746C265.252 108.701 265.225 108.66 265.191 108.625C265.156 108.59 265.115 108.563 265.069 108.545C265.024 108.526 264.975 108.518 264.926 108.519C264.877 108.518 264.828 108.526 264.782 108.545C264.736 108.563 264.694 108.59 264.659 108.624C264.624 108.659 264.596 108.7 264.577 108.746C264.557 108.791 264.548 108.84 264.548 108.889Z" fill="#39B54A"/>
<path d="M269.939 135.575H272.225V132.524H269.939V135.575Z" fill="#263238"/>
<path d="M267.382 134.841H271.514V133.342H267.382V134.841Z" fill="#263238"/>
<path d="M261.396 136.386H259.11V139.437H261.396V136.386Z" fill="#263238"/>
<path d="M263.945 137.212H259.813V138.71H263.945V137.212Z" fill="#263238"/>
<path d="M271.653 127.018H273.94V123.967H271.653V127.018Z" fill="#263238"/>
<path d="M269.104 126.197H273.237V124.699H269.104V126.197Z" fill="#263238"/>
<path d="M264.594 164.708H267.382V142.178H264.594V164.708Z" fill="black"/>
<path d="M259.759 165.357H272.217V161.333H259.759V165.357Z" fill="#263238"/>
<path opacity="0.1" d="M259.759 165.357H272.217V161.333H259.759V165.357Z" fill="black"/>
<path d="M267.993 164.724C267.993 164.724 265.675 158.993 263.173 164.724L264.192 285.13C264.192 285.13 265.953 287.864 267.004 285.13L267.993 164.724Z" fill="#263238"/>
<path d="M272.874 162.462C272.874 162.462 285.108 241.947 291.048 276.773C291.596 280.01 288.916 281.894 288.012 277.832C287.665 276.217 268.826 163.721 268.826 163.721C268.826 163.721 269.753 158.461 272.874 162.462Z" fill="#263238"/>
<path d="M258.191 162.461C258.191 162.461 245.949 241.947 240.017 276.773C239.468 280.009 242.141 281.894 243.045 277.831C243.4 276.24 262.23 163.743 262.23 163.743C262.23 163.743 261.304 158.46 258.191 162.461Z" fill="#263238"/>
<path d="M263.459 156.274H268.672V151.64H263.459V156.274Z" fill="#263238"/>
<path d="M263.459 149.23H268.672V144.596H263.459V149.23Z" fill="#263238"/>
<path d="M265.165 132.531H266.949V126.978H265.165V132.531Z" fill="#263238"/>
<path d="M263.883 140.247H268.239V131.612C268.239 131.034 268.01 130.48 267.602 130.072C267.193 129.663 266.639 129.434 266.061 129.434C265.484 129.434 264.93 129.663 264.521 130.072C264.113 130.48 263.883 131.034 263.883 131.612V140.247Z" fill="black"/>
<path d="M262.678 142.187H269.499V140.256H262.678V142.187Z" fill="#263238"/>
<path d="M262.756 127.812H269.383V123.031H262.756V127.812Z" fill="#263238"/>
<path d="M179.756 81.7704H179.617C171.735 78.9492 164.941 73.7174 160.199 66.8172C160.139 66.7266 160.117 66.6162 160.137 66.5095C160.158 66.4027 160.219 66.3081 160.308 66.2456C160.352 66.2146 160.401 66.1925 160.454 66.1808C160.507 66.169 160.561 66.1677 160.614 66.1771C160.667 66.1864 160.718 66.2061 160.764 66.2351C160.809 66.2641 160.848 66.3018 160.879 66.3461C165.548 73.0865 172.191 78.2136 179.895 81.0212C179.946 81.0394 179.993 81.0674 180.033 81.1036C180.072 81.1398 180.105 81.1836 180.128 81.2324C180.151 81.2812 180.164 81.3341 180.166 81.388C180.169 81.4419 180.161 81.4957 180.142 81.5464C180.106 81.6165 180.05 81.6748 179.982 81.7144C179.913 81.7541 179.835 81.7735 179.756 81.7704Z" fill="#39B54A"/>
<path d="M185.989 83.4482H185.912C184.66 83.2221 183.42 82.9333 182.197 82.5831C182.092 82.5525 182.003 82.482 181.95 82.3867C181.896 82.2913 181.882 82.1788 181.911 82.0734C181.926 82.0215 181.951 81.9732 181.985 81.9312C182.019 81.8891 182.061 81.8542 182.108 81.8283C182.156 81.8025 182.208 81.7862 182.261 81.7806C182.315 81.7749 182.369 81.7799 182.421 81.7953C183.61 82.1352 184.838 82.4209 186.059 82.6449C186.137 82.6795 186.202 82.7378 186.246 82.8115C186.289 82.8853 186.309 82.9708 186.301 83.056C186.293 83.1413 186.259 83.222 186.203 83.2868C186.147 83.3516 186.072 83.3972 185.989 83.4173V83.4482Z" fill="#39B54A"/>
<path d="M200.464 83.424C200.38 83.4039 200.306 83.3583 200.25 83.2935C200.194 83.2287 200.159 83.148 200.152 83.0627C200.144 82.9775 200.163 82.892 200.207 82.8182C200.25 82.7445 200.316 82.6862 200.394 82.6516C208.892 81.0398 216.624 76.6784 222.399 70.2395C222.435 70.1994 222.479 70.1669 222.527 70.1436C222.576 70.1204 222.629 70.107 222.682 70.1041C222.736 70.1012 222.79 70.109 222.841 70.1269C222.892 70.1448 222.938 70.1726 222.978 70.2086C223.018 70.2446 223.051 70.2882 223.074 70.3368C223.097 70.3854 223.111 70.4381 223.114 70.4919C223.117 70.5457 223.109 70.5995 223.091 70.6503C223.073 70.7011 223.045 70.7478 223.009 70.7879C217.116 77.3657 209.219 81.8177 200.541 83.4549L200.464 83.424Z" fill="#39B54A"/>
<path d="M224.863 68.2547C224.774 68.2525 224.687 68.2229 224.616 68.1697C224.53 68.1026 224.473 68.0042 224.459 67.8959C224.444 67.7875 224.473 67.6779 224.539 67.5905C225.164 66.764 225.759 65.8989 226.315 65.0184C226.373 64.9263 226.466 64.861 226.572 64.8371C226.679 64.8132 226.791 64.8326 226.883 64.891C226.975 64.9494 227.04 65.042 227.064 65.1484C227.088 65.2549 227.069 65.3665 227.01 65.4587C226.439 66.3546 225.828 67.2429 225.195 68.0848C225.156 68.1365 225.106 68.1787 225.049 68.2081C224.991 68.2376 224.928 68.2535 224.863 68.2547Z" fill="#39B54A"/>
<path d="M231.984 36.4785C231.89 36.4788 231.799 36.4467 231.726 36.3876C231.653 36.3285 231.602 36.2461 231.583 36.1541C230.57 31.1858 228.597 26.4631 225.774 22.2513C225.744 22.2074 225.722 22.1578 225.711 22.1055C225.7 22.0532 225.7 21.9992 225.71 21.9467C225.72 21.8941 225.74 21.8442 225.77 21.7997C225.8 21.7552 225.838 21.717 225.882 21.6875C225.927 21.6568 225.977 21.6352 226.03 21.6241C226.083 21.6129 226.138 21.6123 226.191 21.6224C226.244 21.6324 226.295 21.6529 226.34 21.6826C226.385 21.7124 226.424 21.7508 226.454 21.7956C229.34 26.0928 231.357 30.9127 232.394 35.9842C232.405 36.037 232.405 36.0915 232.395 36.1445C232.384 36.1975 232.363 36.2479 232.333 36.2926C232.303 36.3373 232.264 36.3754 232.219 36.4047C232.173 36.434 232.122 36.4538 232.069 36.4631L231.984 36.4785Z" fill="#39B54A"/>
<path d="M224.593 20.3285C224.529 20.3294 224.467 20.3152 224.411 20.287C224.354 20.2587 224.305 20.2173 224.268 20.1663C218.941 13.2505 211.466 8.30037 203.02 6.09358C202.915 6.06458 202.826 5.9959 202.771 5.90215C202.717 5.8084 202.7 5.69696 202.727 5.59154C202.74 5.53917 202.764 5.48999 202.796 5.44685C202.829 5.4037 202.87 5.36743 202.916 5.34014C202.963 5.31285 203.015 5.29508 203.068 5.28785C203.122 5.28063 203.176 5.28409 203.229 5.29804C211.852 7.54798 219.482 12.602 224.917 19.6643C224.983 19.7507 225.013 19.8598 225 19.9681C224.987 20.0763 224.932 20.1752 224.847 20.2435C224.773 20.2977 224.684 20.3274 224.593 20.3285Z" fill="#39B54A"/>
<path d="M171.082 11.554C170.988 11.5629 170.893 11.5385 170.814 11.4849C170.735 11.4313 170.677 11.352 170.651 11.2605C170.624 11.169 170.631 11.0711 170.669 10.9837C170.706 10.8963 170.774 10.8249 170.858 10.7817C173.96 8.69336 177.34 7.05265 180.899 5.90796C180.952 5.88373 181.009 5.87084 181.066 5.87015C181.124 5.86945 181.181 5.88097 181.234 5.90394C181.287 5.9269 181.335 5.96081 181.373 6.00342C181.412 6.04603 181.442 6.09639 181.46 6.15119C181.478 6.206 181.484 6.264 181.478 6.32141C181.473 6.37881 181.455 6.43432 181.426 6.48429C181.397 6.53426 181.358 6.57755 181.311 6.61134C181.264 6.64513 181.211 6.66864 181.154 6.68034C177.665 7.8035 174.35 9.41023 171.306 11.4536C171.245 11.5116 171.166 11.547 171.082 11.554Z" fill="#39B54A"/>
<path d="M167.151 14.5742C167.092 14.5721 167.034 14.5579 166.981 14.5327C166.928 14.5075 166.881 14.4717 166.842 14.4275C166.767 14.3497 166.725 14.2459 166.725 14.1378C166.725 14.0298 166.767 13.926 166.842 13.8482C167.483 13.2998 168.139 12.7514 168.811 12.2417C168.899 12.1761 169.008 12.1474 169.117 12.1619C169.225 12.1763 169.323 12.2327 169.391 12.3189C169.424 12.3618 169.449 12.411 169.463 12.4635C169.477 12.516 169.481 12.5708 169.474 12.6248C169.466 12.6787 169.449 12.7307 169.421 12.7776C169.394 12.8245 169.357 12.8655 169.313 12.8982C168.657 13.4002 168.008 13.9254 167.382 14.4429C167.322 14.5118 167.241 14.5581 167.151 14.5742Z" fill="#39B54A"/>
<path d="M156.229 30.0839C156.181 30.0911 156.131 30.0911 156.083 30.0839C155.981 30.0441 155.899 29.966 155.854 29.8663C155.809 29.7667 155.805 29.6534 155.843 29.5509C157.884 24.3233 161.005 19.5857 165.004 15.6481C165.081 15.5713 165.187 15.5286 165.296 15.5293C165.35 15.5297 165.404 15.5407 165.454 15.5617C165.503 15.5828 165.549 15.6135 165.587 15.652C165.625 15.6906 165.655 15.7362 165.675 15.7864C165.696 15.8365 165.706 15.8902 165.706 15.9444C165.705 15.9985 165.694 16.0521 165.673 16.102C165.652 16.1519 165.621 16.1971 165.583 16.2352C161.664 20.0976 158.608 24.7464 156.616 29.8753C156.576 29.942 156.52 29.9966 156.452 30.0333C156.383 30.0701 156.307 30.0876 156.229 30.0839Z" fill="#39B54A"/>
<path d="M192.941 84.3811C188.685 84.3811 186.383 81.0753 186.275 74.8191C186.274 74.7724 186.282 74.726 186.299 74.6825C186.316 74.639 186.341 74.5993 186.374 74.5656C186.406 74.5318 186.444 74.5048 186.487 74.486C186.53 74.4672 186.576 74.4571 186.623 74.4561C186.717 74.4579 186.807 74.4957 186.874 74.5618C186.942 74.6278 186.982 74.717 186.986 74.8113C187.086 80.6891 189.094 83.6705 192.941 83.6705C196.787 83.6705 198.811 80.7741 198.896 74.8113C198.898 74.7164 198.937 74.626 199.005 74.5596C199.073 74.4932 199.164 74.456 199.259 74.4561C199.354 74.4581 199.444 74.4972 199.51 74.5651C199.577 74.6329 199.614 74.7241 199.614 74.8191C199.514 81.168 197.266 84.3811 192.941 84.3811Z" fill="#263238"/>
<path d="M199.259 75.1666H186.63C186.583 75.1677 186.537 75.1592 186.493 75.1417C186.449 75.1243 186.41 75.0981 186.377 75.0649C186.344 75.0317 186.317 74.9921 186.3 74.9485C186.282 74.905 186.274 74.8583 186.275 74.8113C186.275 74.7171 186.312 74.6267 186.379 74.5601C186.446 74.4935 186.536 74.4561 186.63 74.4561H199.259C199.352 74.458 199.441 74.4961 199.508 74.5623C199.574 74.6285 199.612 74.7177 199.614 74.8113C199.614 74.9056 199.577 74.9959 199.51 75.0626C199.443 75.1292 199.353 75.1666 199.259 75.1666Z" fill="#263238"/>
<path d="M197.181 72.0156H188.685L188.94 62.8088L189.117 62.7239C190.301 62.1222 191.609 61.8086 192.937 61.8086C194.264 61.8086 195.573 62.1222 196.756 62.7239L196.934 62.8088L197.181 72.0156Z" fill="#263238"/>
<g opacity="0.1">
<path opacity="0.1" d="M197.18 72.0166H188.684L188.939 62.8098L189.117 62.7249C190.3 62.1232 191.609 61.8096 192.936 61.8096C194.264 61.8096 195.572 62.1232 196.756 62.7249L196.933 62.8098L197.18 72.0166Z" fill="#FAFAFA"/>
</g>
<path d="M188.677 72.0156H197.173L196.926 81.2224L196.749 81.315C195.565 81.9167 194.257 82.2303 192.929 82.2303C191.602 82.2303 190.293 81.9167 189.11 81.315L188.932 81.2224L188.677 72.0156Z" fill="#39B54A"/>
<path d="M197.444 71.2979H188.446V72.8426H197.444V71.2979Z" fill="#263238"/>
<path d="M197.444 71.2979H188.446V72.8426H197.444V71.2979Z" fill="#39B54A"/>
<path opacity="0.2" d="M197.444 71.2979H188.446V72.8426H197.444V71.2979Z" fill="black"/>
<path d="M193.983 76.3408C193.817 76.5457 193.593 76.6967 193.341 76.7747C193.089 76.8528 192.82 76.8545 192.567 76.7795C192.313 76.7045 192.088 76.5563 191.919 76.3535C191.75 76.1507 191.645 75.9024 191.617 75.6399C191.589 75.3774 191.64 75.1126 191.762 74.8787C191.885 74.6449 192.073 74.4525 192.305 74.3259C192.537 74.1993 192.801 74.1441 193.063 74.1673C193.326 74.1905 193.577 74.291 193.782 74.4562C193.921 74.5658 194.036 74.7019 194.121 74.8564C194.206 75.011 194.259 75.181 194.278 75.3564C194.297 75.5318 194.28 75.7092 194.23 75.8783C194.179 76.0473 194.095 76.2045 193.983 76.3408Z" fill="#263238"/>
<path opacity="0.2" d="M194.285 75.4983C194.286 75.7644 194.209 76.025 194.062 76.2471C193.915 76.4691 193.706 76.6425 193.46 76.7455C193.215 76.8484 192.944 76.8761 192.683 76.8251C192.422 76.7741 192.182 76.6467 191.993 76.4591C191.804 76.2714 191.676 76.032 191.623 75.7711C191.571 75.5102 191.597 75.2396 191.698 74.9935C191.8 74.7475 191.972 74.5372 192.193 74.3891C192.414 74.2411 192.674 74.1621 192.941 74.1621C193.296 74.1621 193.636 74.3026 193.888 74.553C194.14 74.8034 194.282 75.1432 194.285 75.4983Z" fill="white"/>
<path d="M193.52 74.874C193.509 74.9427 193.473 75.0051 193.42 75.0502C193.367 75.0953 193.3 75.12 193.23 75.12C193.161 75.12 193.093 75.0953 193.04 75.0502C192.987 75.0051 192.952 74.9427 192.941 74.874C192.952 74.8053 192.987 74.7428 193.04 74.6977C193.093 74.6527 193.161 74.6279 193.23 74.6279C193.3 74.6279 193.367 74.6527 193.42 74.6977C193.473 74.7428 193.509 74.8053 193.52 74.874Z" fill="#39B54A"/>
<path d="M192.941 89.9191C192.847 89.9171 192.758 89.8791 192.692 89.8129C192.625 89.7466 192.587 89.6574 192.585 89.5638V83.2458C192.598 83.1596 192.641 83.0808 192.707 83.0238C192.773 82.9669 192.857 82.9355 192.945 82.9355C193.032 82.9355 193.116 82.9669 193.182 83.0238C193.248 83.0808 193.291 83.1596 193.304 83.2458V89.5638C193.302 89.6587 193.263 89.7491 193.195 89.8155C193.127 89.8819 193.036 89.9191 192.941 89.9191Z" fill="#263238"/>
<path d="M185.989 92.4681C185.989 92.4681 189.079 89.4326 192.941 89.4326C196.803 89.4326 199.892 92.4681 199.892 92.4681H185.989Z" fill="#39B54A"/>
<path d="M149.464 31.7217H144.111V63.4046H149.464V31.7217Z" fill="#39B54A"/>
<path opacity="0.1" d="M149.464 31.7217H144.111V63.4046H149.464V31.7217Z" fill="black"/>
<path d="M151.371 64.0146H141.84L144.111 62.3076H149.464L151.371 64.0146Z" fill="#263238"/>
<path d="M163.784 64.0455H162.069L162.084 62.5625L163.784 64.0455Z" fill="#263238"/>
<path d="M162.084 31.7835L162.069 64.0457L151.371 64.0148L149.464 62.3078V31.7217L162.084 31.7835Z" fill="#39B54A"/>
<path opacity="0.3" d="M162.084 31.7835L162.069 64.0457L151.371 64.0148L149.464 62.3078V31.7217L162.084 31.7835Z" fill="black"/>
<path d="M137.716 55.0547V64.0452H138.735C139.211 64.0403 139.677 63.908 140.084 63.6622C140.492 63.4163 140.826 63.0659 141.052 62.6472L144.034 57.1787L137.716 55.0547Z" fill="#39B54A"/>
<path d="M144.783 55.1723C144.784 55.8723 144.578 56.557 144.191 57.1398C143.803 57.7225 143.251 58.1771 142.605 58.4461C141.958 58.715 141.247 58.7861 140.56 58.6505C139.873 58.5149 139.242 58.1786 138.747 57.6842C138.251 57.1898 137.914 56.5595 137.777 55.873C137.639 55.1866 137.709 54.475 137.977 53.8281C138.244 53.1813 138.697 52.6283 139.279 52.2393C139.861 51.8503 140.546 51.6426 141.245 51.6426C142.182 51.6426 143.081 52.0142 143.744 52.676C144.407 53.3377 144.781 54.2355 144.783 55.1723Z" fill="#39B54A"/>
<path d="M152.414 58.5849C154.364 58.5849 155.944 57.0046 155.944 55.0552C155.944 53.1057 154.364 51.5254 152.414 51.5254C150.465 51.5254 148.885 53.1057 148.885 55.0552C148.885 57.0046 150.465 58.5849 152.414 58.5849Z" fill="#39B54A"/>
<path d="M153.248 52.9697H152.121V56.0361H153.248V52.9697Z" fill="white"/>
<path d="M151.155 53.9426V55.0703H154.221V53.9426H151.155Z" fill="white"/>
<path d="M140.303 53.7497C140.305 53.8585 140.274 53.9653 140.214 54.0564C140.155 54.1476 140.07 54.2191 139.97 54.2618C139.87 54.3045 139.759 54.3165 139.652 54.2962C139.546 54.2759 139.447 54.2243 139.37 54.1479C139.292 54.0716 139.239 53.9739 139.217 53.8673C139.196 53.7607 139.206 53.65 139.247 53.5494C139.289 53.4487 139.359 53.3626 139.449 53.302C139.54 53.2414 139.646 53.2091 139.755 53.209C139.826 53.208 139.897 53.2212 139.964 53.248C140.03 53.2747 140.091 53.3143 140.142 53.3646C140.193 53.4149 140.233 53.4749 140.261 53.541C140.289 53.6071 140.303 53.678 140.303 53.7497Z" fill="white"/>
<path d="M142.543 53.7496C142.545 53.8584 142.514 53.9652 142.454 54.0564C142.395 54.1476 142.31 54.2191 142.21 54.2618C142.11 54.3045 141.999 54.3164 141.892 54.2961C141.786 54.2759 141.687 54.2243 141.61 54.1479C141.532 54.0715 141.479 53.9738 141.457 53.8672C141.436 53.7606 141.446 53.65 141.487 53.5493C141.529 53.4487 141.599 53.3626 141.689 53.302C141.78 53.2414 141.886 53.209 141.995 53.209C142.139 53.209 142.277 53.2657 142.38 53.3669C142.482 53.468 142.541 53.6055 142.543 53.7496Z" fill="white"/>
<path d="M140.303 55.7349C140.303 55.8434 140.271 55.9494 140.211 56.0396C140.15 56.1298 140.065 56.2 139.965 56.2416C139.864 56.2831 139.754 56.2939 139.648 56.2728C139.541 56.2516 139.444 56.1994 139.367 56.1227C139.29 56.046 139.238 55.9483 139.217 55.8419C139.196 55.7355 139.207 55.6253 139.248 55.5251C139.29 55.4248 139.36 55.3392 139.45 55.2789C139.54 55.2187 139.646 55.1865 139.755 55.1865C139.9 55.1865 140.04 55.2443 140.142 55.3471C140.245 55.45 140.303 55.5895 140.303 55.7349Z" fill="white"/>
<path d="M142.543 55.7349C142.543 55.8434 142.511 55.9494 142.451 56.0396C142.39 56.1298 142.305 56.2 142.205 56.2416C142.104 56.2831 141.994 56.2939 141.888 56.2728C141.781 56.2516 141.684 56.1994 141.607 56.1227C141.53 56.046 141.478 55.9483 141.457 55.8419C141.436 55.7355 141.447 55.6253 141.488 55.5251C141.53 55.4248 141.6 55.3392 141.69 55.2789C141.78 55.2187 141.886 55.1865 141.995 55.1865C142.14 55.1865 142.28 55.2443 142.382 55.3471C142.485 55.45 142.543 55.5895 142.543 55.7349Z" fill="white"/>
<path d="M150.483 53.6494H143.223V57.1792H150.483V53.6494Z" fill="#39B54A"/>
<path d="M155.944 55.0547V64.0452H154.515C154.161 64.0444 153.814 63.9487 153.51 63.7681C153.205 63.5874 152.955 63.3283 152.785 63.0179L149.603 57.1787L155.944 55.0547Z" fill="#39B54A"/>
<path opacity="0.2" d="M137.716 63.1034H139.013C139.342 63.1037 139.665 63.013 139.946 62.8412C140.227 62.6695 140.455 62.4234 140.604 62.1302L143.763 55.9512H149.595V57.2179H144.065L140.913 63.003C140.734 63.3302 140.471 63.6033 140.15 63.7935C139.829 63.9838 139.463 64.0842 139.09 64.0843H137.716V63.1034Z" fill="black"/>
<path opacity="0.2" d="M155.944 63.1034H154.646C154.317 63.1029 153.995 63.0118 153.714 62.8401C153.433 62.6685 153.205 62.4228 153.055 62.1302L149.904 55.9512H144.064V57.2179H149.595L152.746 63.003C152.925 63.3297 153.189 63.6023 153.51 63.7925C153.83 63.9826 154.196 64.0834 154.569 64.0843H155.944V63.1034Z" fill="black"/>
<path d="M247.022 50.6742C247.02 53.1098 246.304 55.4913 244.963 57.5244C243.622 59.5574 241.714 61.1527 239.476 62.1131V62.0281H229.435C227.243 61.0462 225.382 59.451 224.076 57.4351C222.77 55.4192 222.075 53.0685 222.074 50.6665C222.074 50.5661 222.074 50.4656 222.074 50.3652C222.213 51.3925 226.052 52.2498 231.243 52.5202L232.27 52.5588H232.617H233.652H235.383C235.73 52.5588 236.078 52.5588 236.418 52.5588H236.757H237.792C242.604 52.3039 246.25 51.5779 247.022 50.6742Z" fill="#39B54A"/>
<path d="M247.022 50.6757C246.25 51.5794 242.604 52.3054 237.854 52.5371H236.819H236.479C236.14 52.5371 235.792 52.5371 235.444 52.5371H233.714H232.679H232.332L231.305 52.4985C226.114 52.2282 222.275 51.3708 222.136 50.3436C222.133 50.2973 222.133 50.2508 222.136 50.2046C222.33 49.1773 226.145 48.3354 231.297 48.0805C231.629 48.0805 231.977 48.0805 232.324 48.0342H232.672C233.004 48.0342 233.359 48.0342 233.707 48.0342H235.089C235.205 48.0342 235.321 48.0342 235.437 48.0342H236.472H236.812L237.847 48.0728C242.543 48.2968 246.165 49.0074 246.992 49.9033C247.015 50.1737 247.022 50.4285 247.022 50.6757Z" fill="#39B54A"/>
<path opacity="0.3" d="M247.2 50.3273C247.198 50.4638 247.142 50.594 247.046 50.6904C246.273 51.594 242.628 52.3201 237.877 52.5518H236.842H236.503C236.163 52.5518 235.815 52.5518 235.468 52.5518H233.737H232.702H232.355L231.328 52.5132C226.137 52.2428 222.299 51.3855 222.16 50.3582C222.155 50.3379 222.155 50.3168 222.16 50.2964C222.152 50.2712 222.152 50.2444 222.16 50.2192C222.353 49.1919 226.168 48.3501 231.32 48.0952C231.652 48.0952 232 48.0952 232.347 48.0488H232.695C233.027 48.0488 233.382 48.0488 233.73 48.0488H235.112C235.228 48.0488 235.344 48.0488 235.46 48.0488H236.495H236.835L237.87 48.0874C242.566 48.3114 246.188 49.022 247.015 49.918C247.073 49.9689 247.12 50.0319 247.152 50.1025C247.184 50.1731 247.2 50.2498 247.2 50.3273Z" fill="black"/>
<path d="M220.877 40.479V40.1391L226.099 39.9229H248.274V40.7879H226.099L220.877 40.479Z" fill="#263238"/>
<path d="M220.877 41.3129V40.9653L226.099 40.749H248.274V41.6141H226.099L220.877 41.3129Z" fill="#263238"/>
<path d="M232.332 40.1011V52.5673L231.305 52.5287V40.1011C231.296 40.0284 231.302 39.9546 231.324 39.8846C231.346 39.8146 231.382 39.75 231.431 39.6951C231.479 39.6402 231.539 39.5963 231.606 39.5662C231.673 39.5361 231.745 39.5205 231.818 39.5205C231.892 39.5205 231.964 39.5361 232.031 39.5662C232.098 39.5963 232.157 39.6402 232.206 39.6951C232.254 39.75 232.291 39.8146 232.312 39.8846C232.334 39.9546 232.341 40.0284 232.332 40.1011Z" fill="#39B54A"/>
<path d="M233.714 40.1015V52.6449H232.679V40.1015C232.679 39.9642 232.734 39.8326 232.831 39.7356C232.928 39.6385 233.059 39.584 233.197 39.584C233.334 39.584 233.466 39.6385 233.563 39.7356C233.66 39.8326 233.714 39.9642 233.714 40.1015Z" fill="#39B54A"/>
<path d="M235.097 40.1015V52.6449H234.07V40.1015C234.07 39.9642 234.124 39.8326 234.221 39.7356C234.318 39.6385 234.45 39.584 234.587 39.584C234.724 39.584 234.856 39.6385 234.953 39.7356C235.05 39.8326 235.105 39.9642 235.105 40.1015H235.097Z" fill="#39B54A"/>
<path d="M236.479 40.1015V52.5831C236.139 52.5831 235.792 52.5831 235.444 52.5831V40.1015C235.444 39.9642 235.499 39.8326 235.596 39.7356C235.693 39.6385 235.825 39.584 235.962 39.584C236.099 39.584 236.231 39.6385 236.328 39.7356C236.425 39.8326 236.479 39.9642 236.479 40.1015Z" fill="#39B54A"/>
<path d="M237.854 40.1015V52.5367H236.819V40.1015C236.819 39.9642 236.874 39.8326 236.971 39.7356C237.068 39.6385 237.2 39.584 237.337 39.584C237.474 39.584 237.606 39.6385 237.703 39.7356C237.8 39.8326 237.854 39.9642 237.854 40.1015Z" fill="#39B54A"/>
<g opacity="0.2">
<path opacity="0.2" d="M235.097 40.1015V52.6449H234.07V40.1015C234.07 39.9642 234.124 39.8326 234.221 39.7356C234.318 39.6385 234.45 39.584 234.587 39.584C234.724 39.584 234.856 39.6385 234.953 39.7356C235.05 39.8326 235.105 39.9642 235.105 40.1015H235.097Z" fill="white"/>
</g>
<path d="M239.499 62.0293H229.489V63.1184H239.499V62.0293Z" fill="#263238"/>
<path opacity="0.2" d="M231.822 39.584C231.685 39.584 231.553 39.6385 231.456 39.7356C231.359 39.8326 231.304 39.9642 231.304 40.1015V52.529L232.332 52.5676V40.1015C232.332 39.9656 232.278 39.8351 232.183 39.7383C232.087 39.6414 231.958 39.586 231.822 39.584Z" fill="white"/>
<g opacity="0.2">
<path opacity="0.2" d="M233.714 40.1015V52.6449H232.679V40.1015C232.679 39.9642 232.734 39.8326 232.831 39.7356C232.928 39.6385 233.059 39.584 233.197 39.584C233.334 39.584 233.466 39.6385 233.563 39.7356C233.66 39.8326 233.714 39.9642 233.714 40.1015Z" fill="white"/>
</g>
<g opacity="0.2">
<path opacity="0.2" d="M236.479 40.1015V52.5831C236.139 52.5831 235.792 52.5831 235.444 52.5831V40.1015C235.444 39.9642 235.499 39.8326 235.596 39.7356C235.693 39.6385 235.825 39.584 235.962 39.584C236.099 39.584 236.231 39.6385 236.328 39.7356C236.425 39.8326 236.479 39.9642 236.479 40.1015Z" fill="white"/>
</g>
<g opacity="0.2">
<path opacity="0.2" d="M237.854 40.1015V52.5367H236.819V40.1015C236.819 39.9642 236.874 39.8326 236.971 39.7356C237.068 39.6385 237.2 39.584 237.337 39.584C237.474 39.584 237.606 39.6385 237.703 39.7356C237.8 39.8326 237.854 39.9642 237.854 40.1015Z" fill="white"/>
</g>
<path d="M177.462 9.22168L181.239 15.8873L181.262 15.9182H191.288L187.511 9.24485L187.488 9.22168H177.462Z" fill="#39B54A"/>
<path opacity="0.3" d="M177.462 9.22168L181.239 15.8873L181.262 15.9182H191.288L187.511 9.24485L187.488 9.22168H177.462Z" fill="black"/>
<path d="M197.521 6.06985L196.224 20.606C196.192 20.9011 196.053 21.1745 195.835 21.375C195.616 21.5755 195.331 21.6892 195.034 21.695H188.037C187.897 21.6981 187.758 21.6713 187.63 21.6163C187.501 21.5614 187.386 21.4796 187.291 21.3765C187.197 21.2734 187.126 21.1513 187.082 21.0184C187.039 20.8855 187.025 20.7449 187.04 20.606L188.346 6.06985C188.376 5.77332 188.513 5.49806 188.732 5.29601C188.951 5.09396 189.237 4.97909 189.535 4.97307H196.486C196.63 4.96546 196.773 4.98914 196.906 5.04245C197.039 5.09576 197.159 5.17743 197.258 5.2818C197.356 5.38616 197.431 5.51071 197.476 5.64679C197.522 5.78288 197.537 5.92724 197.521 6.06985Z" fill="#263238"/>
<path opacity="0.3" d="M197.05 6.06953L195.783 20.6057C195.751 20.9008 195.613 21.1742 195.394 21.3747C195.175 21.5751 194.89 21.6889 194.594 21.6947H188.067C187.927 21.6978 187.789 21.6709 187.66 21.616C187.532 21.5611 187.416 21.4793 187.322 21.3762C187.228 21.273 187.156 21.151 187.113 21.0181C187.07 20.8852 187.055 20.7446 187.071 20.6057L188.345 6.06953C188.375 5.773 188.513 5.49774 188.732 5.29569C188.951 5.09364 189.237 4.97877 189.535 4.97275H196.053C196.194 4.97081 196.332 4.99868 196.461 5.0545C196.589 5.11032 196.705 5.19281 196.799 5.29652C196.893 5.40023 196.964 5.52278 197.007 5.65605C197.051 5.78932 197.065 5.93026 197.05 6.06953Z" fill="white"/>
<path d="M192.787 12.2416C192.787 11.8786 192.524 11.6546 192.014 11.6546C191.799 11.6504 191.586 11.6972 191.393 11.7912C191.2 11.8851 191.031 12.0236 190.902 12.1953C190.793 12.1333 190.702 12.0434 190.639 11.9349C190.576 11.8263 190.542 11.703 190.542 11.5774C190.542 11.4518 190.576 11.3285 190.639 11.2199C190.702 11.1114 190.793 11.0215 190.902 10.9595C191.306 10.772 191.747 10.6795 192.192 10.6892C193.296 10.6892 194.022 11.1835 193.945 12.0485C193.837 13.2303 192.593 13.3616 192.524 14.1417H191.412C191.589 13.1067 192.732 12.8827 192.787 12.2416ZM191.242 15.3311C191.259 15.1426 191.35 14.9684 191.494 14.8458C191.639 14.7231 191.825 14.6617 192.014 14.6746C192.102 14.6661 192.191 14.6772 192.274 14.7073C192.357 14.7374 192.433 14.7856 192.495 14.8485C192.557 14.9114 192.604 14.9874 192.633 15.0708C192.662 15.1543 192.673 15.2433 192.663 15.3311C192.638 15.5181 192.546 15.6897 192.404 15.8135C192.262 15.9373 192.079 16.0047 191.891 16.0031C191.799 16.0121 191.707 16.0002 191.621 15.9685C191.534 15.9367 191.456 15.8859 191.392 15.8198C191.329 15.7537 191.28 15.6741 191.252 15.5868C191.223 15.4995 191.214 15.4068 191.226 15.3157L191.242 15.3311Z" fill="white"/>
<path d="M198.896 15.918H181.224V30.485H198.896V15.918Z" fill="#39B54A"/>
<path d="M205.137 15.918H198.896V30.485H205.137V15.918Z" fill="#39B54A"/>
<path opacity="0.3" d="M205.137 15.918H195.096V30.485H205.137V15.918Z" fill="black"/>
<path d="M208.929 9.22168L205.145 15.8873L205.129 15.9182H195.096L198.881 9.24485L198.896 9.22168H208.929Z" fill="#39B54A"/>
<path d="M205.145 15.8877L205.137 15.9186H205.129L205.145 15.8877Z" fill="black"/>
<path d="M198.896 9.22168L198.881 9.24472L198.888 9.22168H198.896Z" fill="black"/>
</svg>
