<svg width="24" height="24" viewBox="0 0 24 24" fill="none" xmlns="http://www.w3.org/2000/svg">
<path d="M22.3623 9.15154L22.3626 9.15223C22.4574 9.43847 22.4639 9.74663 22.3811 10.0366C22.2983 10.3265 22.1302 10.5849 21.8985 10.7779C21.8985 10.7779 21.8985 10.7779 21.8985 10.7779L17.6578 14.3074L17.6277 14.3325L17.6371 14.3705L18.9833 19.8153L18.9835 19.816C19.0594 20.108 19.0453 20.4161 18.9432 20.7C18.8411 20.9839 18.6557 21.2304 18.4112 21.4071L18.4109 21.4073C18.175 21.5794 17.8926 21.6763 17.6007 21.6853C17.3088 21.6944 17.021 21.6151 16.7749 21.4578L16.7747 21.4577L12.0462 18.4621L12.0462 18.462L12.0431 18.4603C12.0307 18.4534 12.0129 18.4463 11.9916 18.4483C11.9725 18.4501 11.959 18.4586 11.9525 18.4632L7.55983 21.246L7.55972 21.2461C7.28715 21.4195 6.96868 21.5069 6.64577 21.4969C6.32285 21.4868 6.01044 21.3798 5.74919 21.1897L5.74904 21.1896C5.47814 20.9937 5.27269 20.7206 5.1596 20.406C5.0465 20.0913 5.03102 19.7499 5.11519 19.4264L5.11528 19.426L6.38237 14.4419L6.392 14.404L6.36214 14.3788L2.10238 10.7782L2.10204 10.7779C1.87038 10.5849 1.70222 10.3266 1.61944 10.0366C1.53667 9.74664 1.54312 9.43847 1.63796 9.15223L1.63796 9.15223L1.63818 9.15154C1.72801 8.86953 1.90075 8.62114 2.13387 8.43878C2.36699 8.25642 2.64966 8.14855 2.94501 8.12926L8.48209 7.76964L8.52141 7.76709L8.53606 7.73052L10.6323 2.49957L10.6325 2.49895C10.7395 2.22355 10.927 1.98684 11.1707 1.81977C11.4143 1.65269 11.7027 1.56303 11.9982 1.5625L11.9995 1.5625C12.2954 1.56255 12.5844 1.65199 12.8286 1.81909C13.0728 1.98619 13.2608 2.22317 13.368 2.49896L13.3682 2.49939L15.4336 7.70032L15.4481 7.73685L15.4874 7.7396L21.0552 8.12925L21.0555 8.12926C21.3509 8.14855 21.6335 8.25642 21.8666 8.43878C22.0998 8.62114 22.2725 8.86953 22.3623 9.15154Z" fill="#FFC700" stroke="#FFC700" stroke-width="0.125"/>
</svg>
