<svg width="40" height="16" viewBox="0 0 40 16" fill="none" xmlns="http://www.w3.org/2000/svg">
<path fill-rule="evenodd" clip-rule="evenodd" d="M39.1756 8.26683C39.1756 5.53253 37.8546 3.375 35.3298 3.375C32.7944 3.375 31.2603 5.53253 31.2603 8.24547C31.2603 11.4604 33.0713 13.0839 35.6707 13.0839C36.9384 13.0839 37.8972 12.7955 38.6216 12.3896V10.2535C37.8972 10.6166 37.0662 10.8409 36.0116 10.8409C34.9782 10.8409 34.0621 10.4778 33.9449 9.21743H39.1543C39.1543 9.07858 39.1756 8.52317 39.1756 8.26683ZM33.9129 7.25215C33.9129 6.04521 34.648 5.54321 35.3191 5.54321C35.969 5.54321 36.6614 6.04521 36.6614 7.25215H33.9129Z" fill="#32325D"/>
<path fill-rule="evenodd" clip-rule="evenodd" d="M27.1482 3.375C26.1042 3.375 25.4331 3.86632 25.0602 4.20811L24.9217 3.54589H22.578V15.9998L25.2413 15.4337L25.252 12.411C25.6355 12.6887 26.2001 13.0839 27.1376 13.0839C29.0445 13.0839 30.7809 11.5459 30.7809 8.16002C30.7703 5.06258 29.0125 3.375 27.1482 3.375ZM26.509 10.7341C25.8805 10.7341 25.5076 10.5098 25.252 10.2321L25.2413 6.26951C25.5183 5.95977 25.9018 5.74615 26.509 5.74615C27.4785 5.74615 28.1496 6.8356 28.1496 8.23479C28.1496 9.66603 27.4891 10.7341 26.509 10.7341Z" fill="#32325D"/>
<path fill-rule="evenodd" clip-rule="evenodd" d="M18.9134 2.74498L21.5873 2.16821V0L18.9134 0.566085V2.74498Z" fill="#32325D"/>
<path d="M21.5873 3.55664H18.9134V12.9024H21.5873V3.55664Z" fill="#32325D"/>
<path fill-rule="evenodd" clip-rule="evenodd" d="M16.0477 4.34708L15.8772 3.55669H13.5762V12.9024H16.2394V6.56869C16.868 5.74627 17.9333 5.8958 18.2635 6.01329V3.55669C17.9226 3.42852 16.6762 3.19354 16.0477 4.34708Z" fill="#32325D"/>
<path fill-rule="evenodd" clip-rule="evenodd" d="M10.7212 1.23926L8.1218 1.79466L8.11115 10.35C8.11115 11.9308 9.29364 13.095 10.8703 13.095C11.7438 13.095 12.383 12.9348 12.7346 12.7425V10.5743C12.3937 10.7132 10.7105 11.2045 10.7105 9.62373V5.83203H12.7346V3.557H10.7105L10.7212 1.23926Z" fill="#32325D"/>
<path fill-rule="evenodd" clip-rule="evenodd" d="M3.51966 6.26951C3.51966 5.85296 3.86056 5.69275 4.42518 5.69275C5.23481 5.69275 6.25751 5.93841 7.06714 6.37632V3.86632C6.18294 3.51385 5.30938 3.375 4.42518 3.375C2.2626 3.375 0.824432 4.50717 0.824432 6.39768C0.824432 9.3456 4.87261 8.87564 4.87261 10.1467C4.87261 10.638 4.44648 10.7982 3.84991 10.7982C2.9657 10.7982 1.83648 10.435 0.941616 9.94373V12.4858C1.93235 12.913 2.93374 13.0946 3.84991 13.0946C6.06575 13.0946 7.58914 11.9945 7.58914 10.0826C7.57849 6.89968 3.51966 7.46577 3.51966 6.26951Z" fill="#32325D"/>
</svg>
