<svg width="24" height="24" viewBox="0 0 24 24" fill="none" xmlns="http://www.w3.org/2000/svg">
<path d="M12 12L21 3" stroke="white" stroke-width="1.5" stroke-linecap="round" stroke-linejoin="round"/>
<path d="M18.3641 5.63597C16.7698 4.04485 14.6364 3.11007 12.386 3.01655C10.1355 2.92303 7.93192 3.67758 6.21114 5.13093C4.49037 6.58428 3.37776 8.63056 3.09343 10.8649C2.80911 13.0993 3.37377 15.359 4.67571 17.197C5.97765 19.035 7.92203 20.3174 10.1242 20.7905C12.3263 21.2636 14.6258 20.8929 16.5678 19.7518C18.5097 18.6106 19.9526 16.7822 20.611 14.6282C21.2695 12.4742 21.0954 10.1515 20.1234 8.11966" stroke="white" stroke-width="1.5" stroke-linecap="round" stroke-linejoin="round"/>
<path d="M15.182 8.81792C14.438 8.07399 13.4569 7.61426 12.4091 7.51863C11.3614 7.42301 10.3132 7.69754 9.44689 8.2945C8.58055 8.89147 7.95076 9.77313 7.667 10.7862C7.38324 11.7994 7.46345 12.8799 7.89367 13.84C8.3239 14.8001 9.07695 15.5791 10.0219 16.0417C10.9669 16.5042 12.0441 16.6209 13.0663 16.3717C14.0884 16.1224 14.9909 15.5229 15.6169 14.6772C16.2429 13.8316 16.5528 12.7934 16.4927 11.743" stroke="white" stroke-width="1.5" stroke-linecap="round" stroke-linejoin="round"/>
</svg>
