<svg width="26" height="26" viewBox="0 0 26 26" fill="none" xmlns="http://www.w3.org/2000/svg">
<path d="M13 25C19.6274 25 25 19.6274 25 13C25 6.37258 19.6274 1 13 1C6.37258 1 1 6.37258 1 13C1 19.6274 6.37258 25 13 25Z" stroke="#4E4B66" stroke-width="1.5" stroke-linecap="round" stroke-linejoin="round"/>
<path d="M9.99951 7.49902H15.9995L12.5003 12.5C13.0759 12.5 13.6426 12.642 14.1502 12.9133C14.6578 13.1846 15.0907 13.5769 15.4104 14.0555C15.7302 14.5341 15.927 15.0841 15.9834 15.6569C16.0399 16.2298 15.9541 16.8076 15.7339 17.3394C15.5136 17.8712 15.1656 18.3404 14.7207 18.7055C14.2757 19.0707 13.7476 19.3205 13.1831 19.4328C12.6186 19.545 12.0351 19.5164 11.4843 19.3493C10.9335 19.1822 10.4324 18.8819 10.0254 18.4749" stroke="#4E4B66" stroke-width="1.5" stroke-linecap="round" stroke-linejoin="round"/>
</svg>
