<svg width="65" height="64" viewBox="0 0 65 64" fill="none" xmlns="http://www.w3.org/2000/svg">
<path d="M24.0156 14V50" stroke="#2A8014" stroke-width="1.5" stroke-linecap="round" stroke-linejoin="round"/>
<path d="M6.01563 41.7976C6.01554 41.3368 6.17477 40.8902 6.46634 40.5334C6.75791 40.1767 7.16387 39.9317 7.61542 39.84C9.42227 39.4709 11.0462 38.4889 12.2124 37.0603C13.3786 35.6318 14.0156 33.8442 14.0156 32C14.0156 30.1558 13.3786 28.3682 12.2124 26.9397C11.0462 25.5111 9.42227 24.5291 7.61542 24.16C7.16387 24.0683 6.75791 23.8233 6.46634 23.4666C6.17477 23.1098 6.01554 22.6632 6.01563 22.2024V16C6.01563 15.4696 6.22634 14.9609 6.60141 14.5858C6.97648 14.2107 7.48519 14 8.01562 14H56.0156C56.5461 14 57.0548 14.2107 57.4298 14.5858C57.8049 14.9609 58.0156 15.4696 58.0156 16V22.2024C58.0157 22.6632 57.8565 23.1098 57.5649 23.4666C57.2733 23.8234 56.8674 24.0683 56.4158 24.16C54.609 24.5291 52.9851 25.5111 51.8189 26.9397C50.6526 28.3683 50.0156 30.1558 50.0156 32C50.0156 33.8442 50.6526 35.6318 51.8189 37.0604C52.9851 38.489 54.609 39.4709 56.4158 39.84C56.8674 39.9317 57.2733 40.1767 57.5649 40.5334C57.8565 40.8902 58.0157 41.3368 58.0156 41.7976V48C58.0156 48.5304 57.8049 49.0391 57.4298 49.4142C57.0548 49.7893 56.5461 50 56.0156 50H8.01562C7.48519 50 6.97648 49.7893 6.60141 49.4142C6.22634 49.0391 6.01563 48.5304 6.01563 48V41.7976Z" stroke="#2A8014" stroke-width="1.5" stroke-linecap="round" stroke-linejoin="round"/>
</svg>
