<svg width="24" height="24" viewBox="0 0 24 24" fill="none" xmlns="http://www.w3.org/2000/svg">
<rect width="24" height="24" rx="4" fill="#ECF9ED"/>
<path d="M19.0005 7.79085C18.4562 8.57014 17.7771 9.24595 16.9951 9.78645L16.9951 9.78645C16.9456 11.1534 16.5466 12.4848 15.8362 13.6536C15.1257 14.8225 14.1275 15.7897 12.9369 16.463C11.7462 17.1363 10.4029 17.4931 9.03506 17.4995C7.66725 17.5059 6.32064 17.1615 5.12378 16.4994L5.12419 16.4986C6.68709 16.477 8.20904 15.9957 9.50024 15.1148L9.50019 15.1149C8.11801 14.1729 7.06529 12.8219 6.48963 11.2514C5.91397 9.68085 5.84424 7.96957 6.29019 6.35742L6.29017 6.35744C6.9289 7.3411 7.77612 8.17227 8.77182 8.79206C9.76753 9.41186 10.8873 9.80511 12.0519 9.94397L12.0518 9.944C11.9291 9.35938 12.0198 8.75017 12.3074 8.22663C12.595 7.70308 13.0606 7.29979 13.6198 7.08974C14.179 6.8797 14.7949 6.87677 15.3561 7.08149C15.9172 7.28622 16.3866 7.68507 16.6791 8.20586L16.6791 8.20613C17.4691 8.18256 18.2513 8.04263 19.0005 7.79085" stroke="#15421B" stroke-width="1.5" stroke-linecap="round" stroke-linejoin="round"/>
</svg>
