<svg width="32" height="32" viewBox="0 0 32 32" fill="none" xmlns="http://www.w3.org/2000/svg">
<path d="M30.0007 7.58268C28.9121 9.14125 27.5539 10.4929 25.99 11.5739L25.99 11.5739C25.8911 14.3077 25.093 16.9706 23.6721 19.3083C22.2512 21.6459 20.2548 23.5804 17.8735 24.9269C15.4922 26.2735 12.8055 26.9872 10.0699 27C7.33427 27.0127 4.64104 26.324 2.24731 24.9997L2.24813 24.9982C5.37393 24.9549 8.41783 23.9924 11.0002 22.2307L11.0001 22.2308C8.23577 20.3467 6.13034 17.6447 4.97902 14.5037C3.8277 11.3627 3.68823 7.94011 4.58015 4.71582L4.5801 4.71585C5.85756 6.68317 7.55201 8.34551 9.54341 9.5851C11.5348 10.8247 13.7744 11.6112 16.1036 11.8889L16.1033 11.889C15.858 10.7197 16.0394 9.50132 16.6146 8.45423C17.1898 7.40714 18.1209 6.60056 19.2393 6.18046C20.3577 5.76037 21.5895 5.75452 22.7119 6.16397C23.8342 6.57341 24.7729 7.37111 25.358 8.41269L25.3581 8.41324C26.938 8.36609 28.5024 8.08623 30.0007 7.58268" stroke="white" stroke-width="1.5" stroke-linecap="round" stroke-linejoin="round"/>
</svg>
