<svg width="24" height="24" viewBox="0 0 24 24" fill="none" xmlns="http://www.w3.org/2000/svg">
<path d="M22.5006 5.68706C21.6841 6.85599 20.6655 7.8697 19.4926 8.68046L19.4926 8.68045C19.4183 10.7308 18.8198 12.728 17.7541 14.4812C16.6884 16.2345 15.1911 17.6853 13.4052 18.6953C11.6192 19.7052 9.60418 20.2405 7.55247 20.25C5.50076 20.2596 3.48084 19.7431 1.68555 18.7498L1.68616 18.7487C4.03051 18.7163 6.31343 17.9944 8.25024 16.673L8.25016 16.6732C6.17689 15.2601 4.59782 13.2336 3.73433 10.8778C2.87084 8.52206 2.76623 5.95513 3.43517 3.53691L3.43513 3.53694C4.39323 5.01243 5.66407 6.25918 7.15762 7.18887C8.65117 8.11857 10.3309 8.70845 12.0778 8.91673L12.0775 8.91679C11.8936 8.03986 12.0296 7.12604 12.461 6.34072C12.8924 5.5554 13.5907 4.95047 14.4295 4.6354C15.2683 4.32033 16.1922 4.31594 17.034 4.62302C17.8757 4.93011 18.5797 5.52838 19.0186 6.30957L19.0186 6.30998C20.2036 6.27462 21.3769 6.06472 22.5006 5.68706" stroke="#15421B" stroke-width="1.5" stroke-linecap="round" stroke-linejoin="round"/>
</svg>
