<svg width="24" height="24" viewBox="0 0 24 24" fill="none" xmlns="http://www.w3.org/2000/svg">
<path d="M22.5006 5.68725C21.6841 6.85618 20.6655 7.8699 19.4926 8.68066L19.4926 8.68064C19.4183 10.731 18.8198 12.7282 17.7541 14.4814C16.6884 16.2347 15.1911 17.6855 13.4052 18.6955C11.6192 19.7054 9.60418 20.2407 7.55247 20.2502C5.50076 20.2598 3.48084 19.7433 1.68555 18.75L1.68616 18.7489C4.03051 18.7165 6.31343 17.9945 8.25024 16.6732L8.25016 16.6733C6.17689 15.2603 4.59782 13.2338 3.73433 10.878C2.87084 8.52226 2.76623 5.95533 3.43517 3.53711L3.43513 3.53713C4.39323 5.01262 5.66407 6.25938 7.15762 7.18907C8.65117 8.11876 10.3309 8.70864 12.0778 8.91693L12.0775 8.91698C11.8936 8.04005 12.0296 7.12624 12.461 6.34092C12.8924 5.5556 13.5907 4.95066 14.4295 4.63559C15.2683 4.32052 16.1922 4.31613 17.034 4.62322C17.8757 4.93031 18.5797 5.52858 19.0186 6.30976L19.0186 6.31018C20.2036 6.27481 21.3769 6.06492 22.5006 5.68725" stroke="#15421B" stroke-width="1.5" stroke-linecap="round" stroke-linejoin="round"/>
</svg>
