<svg width="26" height="26" viewBox="0 0 26 26" fill="none" xmlns="http://www.w3.org/2000/svg">
<path d="M13 25C19.6274 25 25 19.6274 25 13C25 6.37258 19.6274 1 13 1C6.37258 1 1 6.37258 1 13C1 19.6274 6.37258 25 13 25Z" stroke="#4E4B66" stroke-width="1.5" stroke-linecap="round" stroke-linejoin="round"/>
<path d="M10.2358 8.83236C10.3986 8.44694 10.6404 8.09986 10.9454 7.8134C11.2504 7.52694 11.6119 7.30744 12.0067 7.169C12.4016 7.03055 12.8211 6.97623 13.2382 7.00951C13.6553 7.04279 14.0608 7.16294 14.4287 7.36224C14.7966 7.56155 15.1188 7.8356 15.3745 8.1668C15.6302 8.498 15.8138 8.87902 15.9135 9.28538C16.0133 9.69175 16.0269 10.1145 15.9535 10.5264C15.8802 10.9384 15.7215 11.3304 15.4876 11.6774V11.6774L10 19.0001V18.9994H16" stroke="#4E4B66" stroke-width="1.5" stroke-linecap="round" stroke-linejoin="round"/>
</svg>
