<svg width="160" height="160" viewBox="0 0 160 160" fill="none" xmlns="http://www.w3.org/2000/svg">
<path d="M80 140C113.137 140 140 113.137 140 80C140 46.8629 113.137 20 80 20C46.8629 20 20 46.8629 20 80C20 113.137 46.8629 140 80 140Z" stroke="black" stroke-width="1.5" stroke-linecap="round" stroke-linejoin="round"/>
<path d="M80 100C93.8071 100 105 88.8071 105 75C105 61.1929 93.8071 50 80 50C66.1929 50 55 61.1929 55 75C55 88.8071 66.1929 100 80 100Z" stroke="black" stroke-width="1.5" stroke-linecap="round" stroke-linejoin="round"/>
<path d="M39.8752 124.609C43.6416 117.204 49.3835 110.986 56.4654 106.642C63.5474 102.299 71.693 100 80.0007 100C88.3085 100 96.4542 102.299 103.536 106.642C110.618 110.985 116.36 117.204 120.126 124.609" stroke="black" stroke-width="1.5" stroke-linecap="round" stroke-linejoin="round"/>
</svg>
