<svg width="22" height="21" viewBox="0 0 22 21" fill="none" xmlns="http://www.w3.org/2000/svg">
<path d="M21.4218 8.13257C21.3281 7.83859 21.1481 7.57965 20.905 7.38955C20.662 7.19945 20.3674 7.08701 20.0595 7.0669L14.4916 6.67725L12.4262 1.47632C12.3144 1.18879 12.1184 0.941726 11.8638 0.767511C11.6092 0.593296 11.3079 0.500053 10.9994 0.5H10.998C10.6899 0.500549 10.3893 0.59403 10.1352 0.768219C9.8812 0.942408 9.68564 1.1892 9.57413 1.47632L7.47794 6.70727L1.94083 7.0669C1.63295 7.08701 1.33827 7.19945 1.09526 7.38955C0.85224 7.57965 0.672164 7.83858 0.578523 8.13257C0.479738 8.43073 0.473018 8.75172 0.559238 9.05375C0.645457 9.35578 0.820622 9.62485 1.06192 9.82593L5.32169 13.4265L4.0546 18.4106C3.96726 18.7464 3.98332 19.1006 4.10068 19.4271C4.21803 19.7535 4.43121 20.037 4.71231 20.2402C4.98371 20.4377 5.30825 20.5489 5.64371 20.5593C5.97917 20.5698 6.31001 20.479 6.59317 20.2988L10.9877 17.5149C10.9936 17.5105 10.9994 17.5076 11.0126 17.5149L15.7411 20.5105C15.9978 20.6745 16.2981 20.7572 16.6025 20.7478C16.907 20.7384 17.2016 20.6373 17.4477 20.4578C17.7024 20.2736 17.8956 20.0169 18.0019 19.7212C18.1083 19.4254 18.1229 19.1045 18.0439 18.8003L16.6977 13.3555L20.9384 9.82593C21.1797 9.62485 21.3548 9.35578 21.4411 9.05375C21.5273 8.75172 21.5206 8.43073 21.4218 8.13257Z" fill="#F4B740"/>
</svg>
