<svg width="24" height="24" viewBox="0 0 24 24" fill="none" xmlns="http://www.w3.org/2000/svg">
<rect width="24" height="24" rx="4" fill="#ECF9ED"/>
<path d="M16.7498 16.8708C13.5926 17.2165 10.407 17.2165 7.24982 16.8708C6.70157 16.808 6.16385 16.2993 6.07654 15.7501C5.69421 13.2647 5.69421 10.7355 6.07654 8.25011C6.16388 7.70089 6.70154 7.19225 7.24982 7.12943C10.407 6.78368 13.5926 6.78368 16.7498 7.12943C17.2979 7.19226 17.8359 7.70084 17.9231 8.25011C18.3054 10.7355 18.3054 13.2647 17.9231 15.7501C17.8358 16.2993 17.2982 16.808 16.7498 16.8708Z" stroke="#15421B" stroke-width="1.5" stroke-linecap="round" stroke-linejoin="round"/>
<path d="M14 12L11 10V14L14 12Z" stroke="#15421B" stroke-width="1.5" stroke-linecap="round" stroke-linejoin="round"/>
</svg>
